<?xml version="1.0" standalone="no"?>
<!DOCTYPE svg PUBLIC "-//W3C//DTD SVG 1.1//EN" "http://www.w3.org/Graphics/SVG/1.1/DTD/svg11.dtd" >
<svg xmlns="http://www.w3.org/2000/svg">
<metadata></metadata>
<defs>
<font id="worksafebc_halis_rregular" horiz-adv-x="1275" >
<font-face units-per-em="2048" ascent="1638" descent="-410" />
<missing-glyph horiz-adv-x="614" />
<glyph unicode="&#xfb01;" horiz-adv-x="1089" d="M20 887v106q0 12 10 22q9 9 21 9h94v90q0 163 101 249q100 85 254 85q122 0 233 -45q30 -11 19 -41l-33 -98q-11 -29 -39 -19q-92 29 -162 29q-72 0 -120 -39t-48 -129v-82h545q12 0 21 -9q10 -10 10 -22v-962q0 -12 -10 -22q-9 -9 -21 -9h-143q-13 0 -22 9t-9 22v825 h-371v-823q0 -13 -9 -22t-22 -9h-143q-12 0 -21 9q-10 10 -10 22v823h-94q-12 0 -21 9q-10 10 -10 22z" />
<glyph unicode="&#xfb02;" horiz-adv-x="1087" d="M20 887v106q0 12 10 22q9 9 21 9h94v88q0 159 107 248q106 88 260 88q162 0 252 -102l22 59q11 29 41 29h66q11 0 21 -10t10 -21v-1374q0 -12 -10 -22q-9 -9 -21 -9h-143q-13 0 -22 9t-9 22v1145q-66 88 -191 88q-70 0 -119 -39q-52 -41 -59 -119v-80h215q13 0 22 -9 t9 -22v-106q0 -13 -9 -22t-22 -9h-215v-825q0 -13 -9 -22t-22 -9h-143q-12 0 -21 9q-10 10 -10 22v825h-94q-12 0 -21 9q-10 10 -10 22z" />
<glyph unicode="&#xfb03;" horiz-adv-x="1667" d="M20 887v106q0 12 10 22q9 9 21 9h94v90q0 159 107 248q106 88 260 88q173 0 297 -100q98 98 268 98q123 0 234 -45q29 -11 18 -41l-33 -98q-11 -29 -39 -19q-92 29 -161 29q-72 0 -120 -39t-48 -129v-82h545q12 0 21 -9t9 -22v-962q0 -13 -9 -22t-21 -9h-144q-12 0 -21 9 q-10 10 -10 22v825h-370v-823q0 -13 -9 -22t-22 -9h-143q-13 0 -22 9t-9 22v823h-373v-823q0 -13 -9 -22t-22 -9h-143q-12 0 -21 9q-10 10 -10 22v823h-94q-12 0 -21 9q-10 10 -10 22zM350 1024h373v90q0 42 6 76q-82 76 -207 76q-74 0 -123 -40t-49 -120v-82z" />
<glyph unicode="&#xfb04;" horiz-adv-x="1656" d="M20 887v106q0 12 10 22q9 9 21 9h94v90q0 159 107 248q106 88 260 88q169 0 295 -98v-4q106 100 274 100q162 0 252 -102l23 59q11 29 41 29h65q12 0 22 -10q9 -9 9 -21v-1374q0 -13 -9 -22t-22 -9h-143q-13 0 -22 9t-9 22v1145q-66 88 -190 88q-70 0 -120 -39 q-51 -40 -58 -119v-80h215q12 0 21 -9t9 -22v-106q0 -13 -9 -22t-21 -9h-215v-825q0 -12 -10 -22q-9 -9 -21 -9h-144q-12 0 -21 9t-9 22v825h-365v-823q0 -13 -9 -22t-22 -9h-143q-12 0 -21 9q-10 10 -10 22v823h-94q-12 0 -21 9q-10 10 -10 22zM350 1024h365v88q0 47 8 82 q-83 72 -201 72q-74 0 -123 -40t-49 -120v-82z" />
<glyph horiz-adv-x="0" />
<glyph unicode="&#xd;" horiz-adv-x="681" />
<glyph unicode=" "  horiz-adv-x="614" />
<glyph unicode="&#x09;" horiz-adv-x="614" />
<glyph unicode="&#xa0;" horiz-adv-x="614" />
<glyph unicode="!" horiz-adv-x="653" d="M205 115q0 52 35 87q34 34 86 34q50 0 87 -35q36 -34 36 -86q0 -51 -36 -87t-87 -36q-52 0 -86 36q-35 37 -35 87zM223 856v545q0 33 33 33h139q33 0 33 -33v-545l-37 -397q0 -15 -10 -24q-11 -9 -25 -9h-63q-15 0 -25 9t-10 24z" />
<glyph unicode="&#x22;" horiz-adv-x="694" d="M84 1401q0 33 31 33h141q31 0 31 -33l-35 -430q-4 -33 -35 -33h-63q-14 0 -25 9q-10 9 -10 24zM408 1401q0 33 30 33h142q30 0 30 -33l-35 -430q-5 -33 -34 -33h-64q-13 0 -24 9t-11 24z" />
<glyph unicode="#" horiz-adv-x="1171" d="M123 264v88q0 33 33 33h147v256h-147q-33 0 -33 33v88q0 33 33 33h147v196q0 33 33 33h88q33 0 33 -33v-196h256v196q0 33 32 33h89q32 0 32 -33v-196h150q33 0 33 -33v-88q0 -33 -33 -33h-150v-256h150q33 0 33 -33v-88q0 -33 -33 -33h-150v-198q0 -33 -32 -33h-89 q-32 0 -32 33v198h-256v-198q0 -33 -33 -33h-88q-33 0 -33 33v198h-147q-33 0 -33 33zM457 385h256v256h-256v-256z" />
<glyph unicode="$" horiz-adv-x="1271" d="M133 1028q0 36 2 66q10 166 129 262q118 95 303 100v100q0 33 33 33h76q33 0 33 -33v-108q153 -22 327 -96q31 -15 19 -45l-49 -113q-10 -30 -43 -18q-154 56 -254 73v-432q92 -32 129 -46q48 -18 116 -57q67 -38 104 -81q37 -42 64 -111q27 -68 27 -149 q0 -158 -123 -263q-124 -106 -317 -122v-172q0 -33 -33 -33h-76q-33 0 -33 33v170q-231 15 -415 110q-29 16 -15 43l51 107q17 29 43 14q161 -76 336 -88v479q-98 28 -153 50q-62 25 -129 67q-71 45 -108 108q-38 66 -44 152zM340 1077q0 -78 58 -126q59 -48 169 -87v389 q-216 -18 -227 -176zM709 176q84 18 147 62q62 44 74 104q6 24 2 66q-10 75 -66 119q-58 46 -157 79v-430z" />
<glyph unicode="%" horiz-adv-x="1591" d="M61 1120q0 73 26 142q25 67 97 121q73 55 183 55q109 0 182 -55q72 -54 97 -121q26 -69 26 -142q0 -52 -16 -106t-48 -102q-33 -49 -95 -79q-63 -30 -146 -30q-84 0 -147 30q-62 30 -95 79q-32 48 -48 102t-16 106zM215 1120q0 -22 6 -48t21 -56q15 -31 47 -51 q33 -21 78 -21q59 0 96 37t45 72q8 37 8 67q0 31 -8 68q-7 34 -45 70q-37 36 -96 36t-97 -36q-37 -36 -46 -70t-9 -68zM489 31l447 1372q11 31 43 31h100q12 0 20 -11q7 -10 3 -20l-447 -1372q-11 -31 -43 -31h-100q-12 0 -19 10q-8 11 -4 21zM920 313q0 76 25 142 q26 69 97 122q72 54 183 54q110 0 182 -54q71 -53 97 -122t26 -142q0 -52 -16 -106t-48 -102q-33 -49 -95 -79q-63 -30 -146 -30q-84 0 -147 30q-62 30 -95 79q-32 48 -48 102q-15 51 -15 106zM1073 313q0 -23 6 -48q6 -26 21 -56q15 -31 47 -51q33 -21 78 -21q59 0 96 37 q37 38 45 72q8 37 8 67q0 31 -8 68q-8 35 -45 71q-36 35 -96 35q-61 0 -97 -35q-37 -35 -46 -71q-9 -34 -9 -68z" />
<glyph unicode="&#x26;" horiz-adv-x="1431" d="M166 393q-2 137 66 222q70 89 190 161l-51 55q-115 124 -115 285q0 131 92 231q92 99 262 99q160 0 247 -96t87 -228q0 -200 -237 -379l286 -309q50 102 80 236q7 32 39 26l107 -20q33 -6 28 -39q-29 -194 -117 -348l156 -166q22 -24 -2 -45l-90 -78q-27 -18 -47 4 l-133 139q-168 -165 -412 -157q-191 6 -313 127q-123 121 -123 280zM365 403q-2 -107 74 -172q75 -65 179 -65q156 0 269 113l-334 356q-186 -125 -188 -232zM446 1102q0 -46 29 -96q26 -44 109 -131q85 55 127 109q45 57 45 136q0 66 -41 113t-115 47q-90 0 -126 -66 q-36 -65 -28 -112z" />
<glyph unicode="'" horiz-adv-x="370" d="M84 1401q0 33 31 33h141q31 0 31 -33l-35 -430q-4 -33 -35 -33h-63q-14 0 -25 9q-10 9 -10 24z" />
<glyph unicode="(" horiz-adv-x="579" d="M61 594q0 503 306 954q18 26 45 8l77 -49q31 -17 13 -45q-232 -434 -232 -866q0 -447 232 -881q18 -28 -13 -47l-77 -49q-26 -15 -45 10q-306 451 -306 965z" />
<glyph unicode=")" horiz-adv-x="579" d="M78 -285q231 432 231 881q0 434 -231 866q-18 29 10 45l78 49q29 19 47 -8q305 -449 305 -954q0 -516 -305 -965q-19 -25 -47 -10l-78 49q-26 20 -10 47z" />
<glyph unicode="*" horiz-adv-x="964" d="M139 901q-16 26 11 47l169 109l-169 110q-27 21 -11 47l35 62q15 29 45 14l182 -94l11 205q4 33 34 33h72q30 0 35 -33l10 -205l182 94q28 15 46 -14l34 -62q15 -28 -10 -47l-172 -110l172 -109q25 -19 10 -47l-34 -61q-19 -30 -46 -15l-182 93l-10 -203q-5 -33 -35 -33 h-72q-30 0 -34 33l-11 203l-182 -93q-29 -15 -45 15z" />
<glyph unicode="+" horiz-adv-x="1132" d="M164 647v88q0 33 33 33h292v293q0 33 33 33h88q33 0 33 -33v-293h293q33 0 33 -33v-88q0 -33 -33 -33h-293v-292q0 -33 -33 -33h-88q-33 0 -33 33v292h-292q-33 0 -33 33z" />
<glyph unicode="," horiz-adv-x="610" d="M164 123q0 57 38 95t95 38q78 0 114 -43q35 -42 35 -107q0 -145 -153 -409q-18 -24 -45 -14l-47 22q-28 17 -13 41q81 156 97 242q-52 5 -86 43q-35 40 -35 92z" />
<glyph unicode="-" horiz-adv-x="884" d="M164 537v108q0 13 9 22t22 9h495q13 0 22 -9t9 -22v-108q0 -13 -9 -22t-22 -9h-495q-13 0 -22 9t-9 22z" />
<glyph unicode="." horiz-adv-x="595" d="M164 125q0 57 38 95t95 38q55 0 95 -39t40 -94t-40 -95t-95 -40t-94 40t-39 95z" />
<glyph unicode="/" horiz-adv-x="755" d="M72 29l446 1376q11 29 41 29h105q9 0 17 -10q7 -9 3 -19l-446 -1376q-11 -29 -41 -29h-105q-10 0 -17 9q-8 9 -3 20z" />
<glyph unicode="0" d="M129 692q0 98 13 185q14 93 49 185q36 94 92 167q55 71 147 118q91 46 209 46t209 -46q92 -47 147 -118q54 -70 91 -167q37 -96 50 -185q13 -87 13 -185q0 -99 -13 -187q-13 -91 -50 -187q-36 -95 -91 -166q-55 -72 -147 -117t-209 -45t-209 45t-147 117q-57 74 -92 166 t-49 187q-13 88 -13 187zM330 692q0 -61 4 -108q5 -56 22 -135q17 -76 50 -143q30 -60 91 -104t142 -44t142 44t91 104q33 67 50 143q17 79 22 135q4 47 4 108q0 60 -4 108q-5 57 -22 136q-16 73 -50 141q-30 60 -91 104t-142 44t-142 -44t-91 -104q-34 -68 -50 -141 q-17 -79 -22 -136q-4 -48 -4 -108z" />
<glyph unicode="1" d="M387 1036q-18 25 6 43l359 297q22 21 55 21h57q13 0 22 -9t9 -22v-1335q0 -13 -9 -22t-22 -9h-143q-13 0 -22 9t-9 22v1046l-207 -125q-27 -18 -45 9z" />
<glyph unicode="2" d="M211 31v14q0 31 18 55l504 645q110 128 121 234q18 98 -32 176t-187 78q-148 0 -303 -143q-24 -21 -43 2l-76 75q-23 23 0 45q189 191 420 191q196 0 316 -112q119 -111 102 -320q-10 -134 -170 -340l-359 -447h459q12 0 21 -9q10 -10 10 -21v-123q0 -12 -10 -22 q-9 -9 -21 -9h-739q-13 0 -22 9t-9 22z" />
<glyph unicode="3" d="M227 170l66 80q20 20 43 2q141 -109 276 -109q106 0 181 61q73 60 73 171q0 113 -73 173t-181 60h-137q-12 0 -21 9q-10 10 -10 22v102q0 12 10 22q9 9 21 9h137q106 0 181 61q73 60 73 173q0 111 -73 171t-181 60q-135 0 -276 -109q-23 -18 -43 2l-66 80q-21 20 2 43 q171 148 383 148q131 0 223 -40q93 -41 138 -105q43 -62 65 -127q21 -63 21 -123q0 -84 -36 -170q-37 -87 -118 -146q82 -60 118 -145q36 -86 36 -170q0 -61 -21 -124q-22 -65 -65 -127q-45 -64 -138 -105q-90 -39 -223 -39q-214 0 -383 147q-24 21 -2 43z" />
<glyph unicode="4" d="M125 315v50q0 29 16 57l607 934q16 26 47 26h104q13 0 22 -9t9 -21v-891h190q13 0 22 -9t9 -22v-115q0 -12 -9 -21t-22 -9h-190v-254q0 -13 -9 -22t-22 -9h-147q-13 0 -22 9t-9 22v254h-565q-13 0 -22 9t-9 21zM377 461h344v538z" />
<glyph unicode="5" d="M211 156q-17 24 4 45l82 78q20 18 43 -5q107 -116 252 -116q130 0 206 85t76 197q0 115 -75 196q-77 83 -209 83h-283q-12 0 -21 9q-10 10 -10 22v602q0 11 10 21q9 9 21 9h629q12 0 21 -9q10 -10 10 -21v-115q0 -12 -10 -22q-9 -9 -21 -9h-455v-321h109q135 0 237 -44 q100 -43 151 -117t73 -146t22 -150q0 -47 -12 -101q-12 -52 -47 -117q-34 -62 -87 -112q-51 -48 -140 -82q-84 -32 -197 -32q-234 0 -379 172z" />
<glyph unicode="6" d="M164 457q-2 617 569 946q28 16 43 -12l60 -86q17 -24 -11 -41q-165 -99 -268 -221q-102 -120 -141 -228q30 30 99 54t122 24q138 0 236 -46q100 -47 149 -121t70 -146q20 -69 20 -146q0 -46 -12 -99t-45 -116q-35 -66 -84 -114q-49 -47 -137 -83q-84 -34 -197 -34 q-111 0 -197 36q-88 37 -136 88q-50 53 -84 118q-32 61 -45 122q-11 51 -11 105zM362 446q0 -113 73 -198q72 -84 202 -84q129 0 203 84q73 83 73 198q0 114 -72 196q-72 83 -204 83q-129 0 -200 -81t-75 -198z" />
<glyph unicode="7" d="M231 1237v115q0 11 10 21q9 9 21 9h752q12 0 21 -9t9 -21v-23q0 -31 -12 -59l-504 -1241q-12 -29 -43 -29h-147q-10 0 -16 9q-7 11 -3 20l478 1177h-535q-12 0 -21 9q-10 10 -10 22z" />
<glyph unicode="8" d="M190 375q0 83 37 169t117 146q-80 60 -117 147q-37 86 -37 169q0 60 21 123q22 65 65 127q45 64 139 105q92 40 222 40t222 -40q93 -41 138 -105q45 -65 66 -127q20 -60 20 -123q0 -87 -35 -170q-37 -87 -118 -146q82 -60 118 -145q35 -83 35 -170q0 -64 -20 -124 q-21 -62 -66 -127q-45 -64 -138 -105q-90 -39 -222 -39t-222 39q-94 41 -139 105q-43 62 -65 127q-21 63 -21 124zM383 375q0 -111 74 -171q75 -61 180 -61t180 61q74 60 74 171q0 113 -74 173q-73 60 -180 60t-180 -60q-74 -60 -74 -173zM383 1006q0 -113 74 -173 q75 -61 180 -61t180 61q74 60 74 173q0 111 -74 171q-73 60 -180 60t-180 -60q-74 -60 -74 -171z" />
<glyph unicode="9" d="M162 950q0 48 12 100t45 115q35 66 84 114q51 49 137 84q84 34 197 34q111 0 197 -36q88 -37 136 -88q49 -52 84 -119q32 -61 45 -122q11 -51 11 -104q2 -617 -569 -946q-28 -16 -43 10l-60 86q-15 24 11 43q163 101 267 221q102 117 142 227q-30 -30 -99 -54 q-66 -23 -122 -23q-139 0 -237 46q-100 47 -148 120q-49 74 -70 147q-20 69 -20 145zM360 938q0 -112 73 -196q72 -83 204 -83q129 0 200 81q69 80 74 198q0 115 -72 199t-202 84q-129 0 -203 -84q-74 -85 -74 -199z" />
<glyph unicode=":" horiz-adv-x="595" d="M164 125q0 57 38 95t95 38q55 0 95 -39t40 -94t-40 -95t-95 -40t-94 40t-39 95zM164 897q0 57 38 95t95 38q55 0 95 -39t40 -94t-40 -95t-95 -40t-94 40t-39 95z" />
<glyph unicode=";" horiz-adv-x="610" d="M164 123q0 57 38 95t95 38q78 0 114 -43q35 -42 35 -107q0 -145 -153 -409q-18 -24 -45 -14l-47 22q-28 17 -13 41q81 156 97 242q-52 5 -86 43q-35 40 -35 92zM164 895q0 57 38 95t95 38q55 0 95 -39t40 -94t-40 -95t-95 -40t-94 40t-39 95z" />
<glyph unicode="&#x3c;" horiz-adv-x="878" d="M61 608q0 29 25 45l623 375q26 14 41 -10l51 -88q18 -27 -10 -43l-433 -275l433 -278q28 -16 10 -43l-51 -88q-16 -28 -41 -10l-623 372q-25 16 -25 43z" />
<glyph unicode="=" horiz-adv-x="1028" d="M164 434v92q0 13 9 22t22 9h639q12 0 21 -9t9 -22v-92q0 -12 -9 -21q-10 -10 -21 -10h-639q-12 0 -22 10q-9 9 -9 21zM164 922v92q0 12 9 21t22 9h639q12 0 21 -9t9 -21v-92q0 -13 -9 -22t-21 -9h-639q-13 0 -22 9t-9 22z" />
<glyph unicode="&#x3e;" horiz-adv-x="878" d="M76 291q-16 27 12 43l432 278l-432 275q-28 16 -12 43l51 88q19 25 43 10l623 -375q24 -15 24 -45q0 -28 -24 -43l-623 -372q-25 -17 -43 10z" />
<glyph unicode="?" horiz-adv-x="1124" d="M184 1255q100 103 193 149t221 46q160 0 261 -91q102 -92 102 -253q0 -87 -48 -180q-46 -89 -104 -150q-59 -62 -104 -123q-48 -65 -48 -106l-4 -88q-5 -31 -32 -31h-121q-13 0 -22 9t-9 22v92q0 61 30 120q29 57 70 104q14 16 42 47.5t41 46.5q41 47 72 109 q30 60 30 126q0 68 -42 122t-153 50q-118 -5 -254 -139q-23 -18 -45 0l-74 73q-23 23 -2 45zM440 115q0 51 36 86q37 35 89 35q50 0 87 -35q36 -34 36 -86q0 -51 -36 -87t-87 -36t-88 36t-37 87z" />
<glyph unicode="@" horiz-adv-x="2324" d="M125 362q-5 486 285 798q290 313 768 313q464 0 744 -274t280 -697q0 -91 -16 -189q-15 -89 -53 -183q-38 -92 -94 -160q-56 -67 -144 -110q-87 -42 -195 -42q-87 0 -151 41q-62 40 -89 118l-4 3q-127 -121 -309 -121q-113 0 -198 33q-88 35 -143 89q-54 54 -91 125 q-36 70 -52 142q-16 74 -16 139q0 89 26 176q25 84 80 168q54 83 156 132q103 50 238 50q183 0 309 -120l23 75q11 29 41 29h63q13 0 22 -9t9 -22v-739q1 -62 26 -99q24 -36 93 -36q116 0 192 143t76 359q0 345 -222 570q-221 224 -608 224q-396 0 -624 -251 q-228 -250 -223 -675q1 -122 40 -247q38 -123 113 -238q76 -116 209 -215q132 -98 309 -160q27 -12 17 -39l-49 -112q-11 -30 -41 -19q-390 137 -591 409q-202 272 -206 621zM850 385q0 -49 11 -96q13 -57 41 -115q30 -64 96 -104q67 -41 159 -41q169 0 252 137v440 q-83 137 -252 137q-95 0 -161 -42q-67 -42 -95 -105q-27 -60 -40 -115q-11 -47 -11 -96z" />
<glyph unicode="A" horiz-adv-x="1413" d="M74 31l592 1390q15 27 41 27q27 0 38 -27l594 -1390q2 -4 2 -8q0 -6 -4 -12q-6 -9 -16 -9h-168q-31 0 -43 29l-139 348h-529l-139 -348q-12 -29 -43 -29h-168q-10 0 -16 9q-4 6 -4 12q0 4 2 8zM516 561h381l-190 473z" />
<glyph unicode="B" horiz-adv-x="1355" d="M205 31v1372q0 12 9 21q10 10 22 10h499q137 0 239 -39q100 -38 154 -103q54 -64 79 -130q26 -67 26 -136q0 -87 -44 -172q-43 -84 -130 -137q84 -44 129 -136q45 -93 45 -175q0 -70 -26 -137q-25 -64 -79 -129q-52 -62 -154 -101t-239 -39h-499q-13 0 -22 9t-9 22z M412 184h344q78 0 136 26t81 65q25 42 35 72t10 59q0 81 -54 144q-54 62 -200 64h-352v-430zM412 801h352q77 1 132 26q54 24 79 63q26 40 34 71q9 33 9 65q0 28 -10 59q-10 30 -35 73q-24 40 -81 67q-55 26 -136 26h-344v-450z" />
<glyph unicode="C" horiz-adv-x="1484" d="M123 719q0 101 20 191q22 98 73 196t129 176q75 75 203 124q126 48 283 48q307 0 510 -209q11 -11 11 -21q0 -11 -13 -22l-92 -92q-23 -18 -43 2q-68 66 -169 111q-102 45 -204 45q-123 0 -217 -45t-145 -108q-53 -66 -83 -144q-32 -85 -41 -142q-9 -60 -9 -110 q0 -51 9 -111q8 -56 41 -140q30 -78 83 -143q51 -63 145 -108t217 -45q198 0 383 152q23 21 41 -5l84 -104q8 -11 8 -22q0 -13 -12 -25q-203 -186 -504 -186q-157 0 -283 48q-127 48 -203 123q-77 75 -129 174q-52 98 -73 196q-20 93 -20 196z" />
<glyph unicode="D" horiz-adv-x="1531" d="M205 31v1372q0 12 9 21q10 10 22 10h464q159 0 284 -46q126 -46 203 -119q76 -71 129 -170q51 -96 73 -191q20 -89 20 -189q0 -104 -20 -194q-21 -95 -72 -191q-52 -99 -130 -169q-80 -73 -204 -119q-123 -46 -283 -46h-464q-13 0 -22 9t-9 22zM414 184h286q125 0 218 43 q94 43 144 105q52 65 82 140q33 82 41 137q9 58 9 110q0 51 -9 109q-9 56 -41 138q-30 76 -82 139q-49 59 -144 103q-93 43 -218 43h-286v-1067z" />
<glyph unicode="E" horiz-adv-x="1269" d="M205 31v1372q0 12 9 21q10 10 22 10h880q12 0 22 -10q9 -9 9 -21v-123q0 -13 -9 -22t-22 -9h-702v-450h542q13 0 22 -9t9 -22v-123q0 -12 -9 -21q-10 -10 -22 -10h-542v-430h702q13 0 22 -9t9 -21v-123q0 -13 -9 -22t-22 -9h-880q-13 0 -22 9t-9 22z" />
<glyph unicode="F" horiz-adv-x="1269" d="M205 31v1372q0 12 9 21q10 10 22 10h880q12 0 22 -10q9 -9 9 -21v-123q0 -13 -9 -22t-22 -9h-702v-450h542q13 0 22 -9t9 -22v-123q0 -12 -9 -21q-10 -10 -22 -10h-542v-583q0 -12 -10 -22q-9 -9 -21 -9h-147q-13 0 -22 9t-9 22z" />
<glyph unicode="G" horiz-adv-x="1468" d="M123 719q0 101 20 191q22 98 73 196t129 176q75 75 203 124q126 48 283 48q168 0 276 -43q113 -45 202 -137q21 -21 0 -45l-90 -90q-19 -23 -43 -2q-61 55 -154 93t-191 38q-123 0 -217 -45t-145 -108q-53 -66 -83 -144q-32 -85 -41 -142q-9 -60 -9 -110q0 -51 9 -111 q8 -56 41 -140q30 -78 83 -143q51 -63 145 -108t217 -45q179 0 304 92v248h-271q-12 0 -21 9t-9 22v123q0 12 9 21t21 9h451q12 0 21 -9q10 -10 10 -21v-453q0 -33 -23 -51q-197 -180 -492 -180q-157 0 -283 48q-127 48 -203 123q-77 75 -129 174q-52 98 -73 196 q-20 93 -20 196z" />
<glyph unicode="H" horiz-adv-x="1570" d="M205 31v1372q0 12 9 21q10 10 22 10h149q12 0 22 -10q9 -9 9 -21v-604h739v604q0 12 9 21q10 10 22 10h149q12 0 22 -10q9 -9 9 -21v-1372q0 -13 -9 -22t-22 -9h-149q-13 0 -22 9t-9 22v583h-739v-583q0 -13 -9 -22t-22 -9h-149q-13 0 -22 9t-9 22z" />
<glyph unicode="I" horiz-adv-x="620" d="M205 31v1372q0 12 9 21q10 10 22 10h149q12 0 22 -10q9 -9 9 -21v-1372q0 -13 -9 -22t-22 -9h-149q-13 0 -22 9t-9 22z" />
<glyph unicode="J" horiz-adv-x="1253" d="M49 344q-1 5 -1 10q0 20 22 29l125 47q26 10 38 -18q87 -232 295 -232h9q76 1 139 33q58 29 89 71q29 39 47 96t21 92q3 36 3 75v856q0 12 9 21q10 10 21 10h152q11 0 21 -10t10 -21v-856q0 -97 -24 -187q-23 -88 -77 -178q-52 -88 -158 -141t-253 -53q-208 0 -320 94 q-113 95 -168 262z" />
<glyph unicode="K" horiz-adv-x="1427" d="M205 31v1372q0 12 9 21q10 10 22 10h149q12 0 22 -10q9 -9 9 -21v-590l608 598q23 23 53 23h193q18 0 18 -19q0 -17 -12 -29l-660 -647l709 -702q10 -10 10 -25q0 -12 -14 -12h-201q-30 0 -53 23l-651 649v-641q0 -13 -9 -22t-22 -9h-149q-13 0 -22 9t-9 22z" />
<glyph unicode="L" horiz-adv-x="1085" d="M205 31v1372q0 12 9 21q10 10 22 10h149q12 0 22 -10q9 -9 9 -21v-1219h516q12 0 21 -9q10 -10 10 -21v-123q0 -12 -10 -22q-9 -9 -21 -9h-696q-13 0 -22 9t-9 22z" />
<glyph unicode="M" horiz-adv-x="2068" d="M72 29l469 1401q6 20 26 20q25 0 31 -20l436 -1024l436 1024q6 20 29 20t29 -20l469 -1401q2 -4 2 -8q0 -6 -5 -12q-8 -9 -18 -9h-166q-30 0 -41 29l-296 909l-402 -932q-11 -24 -37 -24t-37 24l-401 932l-297 -909q-11 -29 -41 -29h-166q-10 0 -17 9q-5 6 -5 12q0 4 2 8 z" />
<glyph unicode="N" horiz-adv-x="1570" d="M205 31v1396q0 21 18 21q19 0 33 -14l899 -959v928q0 12 9 21q10 10 22 10h149q12 0 22 -10q9 -9 9 -21v-1395q0 -18 -18 -18q-20 0 -31 14l-899 965l-2 -938q0 -13 -9 -22t-22 -9h-149q-13 0 -22 9t-9 22z" />
<glyph unicode="O" horiz-adv-x="1662" d="M123 719q0 101 20 191q22 98 73 196t129 176q75 75 203 124q126 48 283 48q158 0 284 -48q128 -49 203 -124q78 -78 129 -176t73 -196q20 -90 20 -191q0 -103 -20 -196q-21 -98 -73 -196q-53 -99 -129 -174t-203 -123q-126 -48 -284 -48q-157 0 -283 48q-127 48 -203 123 q-77 75 -129 174q-52 98 -73 196q-20 93 -20 196zM336 719q0 -51 9 -111q8 -55 41 -141q31 -80 83 -145q53 -65 145 -109q94 -45 217 -45t218 45q93 44 144 109q52 66 82 145q33 86 41 141q9 60 9 111q0 50 -9 110q-9 57 -41 142q-29 77 -82 144q-49 63 -144 108 q-94 45 -218 45q-123 0 -217 -45t-145 -108q-53 -66 -83 -144q-32 -85 -41 -142q-9 -60 -9 -110z" />
<glyph unicode="P" horiz-adv-x="1359" d="M205 31v1372q0 12 9 21q10 10 22 10h503q137 0 238 -43q104 -44 156 -114q53 -71 78 -144q26 -75 26 -148q0 -194 -144 -323q-145 -130 -325 -130h-352v-501q0 -13 -9 -22t-22 -9h-149q-13 0 -22 9t-9 22zM416 719h342q75 1 134 31q56 28 83 72q26 43 39 85q12 41 12 78 q0 41 -12 82q-12 39 -40 85q-28 45 -86 72t-138 27h-334v-532z" />
<glyph unicode="Q" horiz-adv-x="1652" d="M123 719q0 101 20 191q22 98 73 196t129 176q75 75 203 124q126 48 283 48q158 0 284 -48q128 -49 203 -124q78 -78 129 -176t73 -196q20 -90 20 -191q0 -186 -76 -360q-76 -175 -237 -275l313 -375q4 -5 4 -11v-4q-2 -9 -12 -9h-189q-33 0 -51 22l-256 297 q-94 -22 -205 -22q-157 0 -283 48q-127 48 -203 123q-77 75 -129 174q-52 98 -73 196q-20 93 -20 196zM336 719q0 -51 9 -111q8 -55 41 -141q31 -80 83 -145q53 -65 145 -109q94 -45 217 -45t218 45q93 44 144 109q52 66 82 145q33 86 41 141q9 60 9 111q0 50 -9 110 q-9 57 -41 142q-29 77 -82 144q-49 63 -144 108q-94 45 -218 45q-123 0 -217 -45t-145 -108q-53 -66 -83 -144q-32 -85 -41 -142q-9 -60 -9 -110z" />
<glyph unicode="R" horiz-adv-x="1355" d="M205 31v1372q0 12 9 21q10 10 22 10h499q137 0 238 -43q103 -44 155 -114q54 -73 79 -144q26 -75 26 -148q0 -154 -91 -267q-92 -114 -229 -161l250 -528q4 -10 -2 -20q-6 -9 -16 -9h-164q-32 0 -43 29l-238 503h-288v-501q0 -12 -10 -22q-9 -9 -21 -9h-145q-13 0 -22 9 t-9 22zM412 719h342q75 1 134 31q56 28 83 72q26 43 39 85q12 41 12 78q0 41 -12 82q-12 39 -40 85q-28 45 -86 72t-139 27h-333v-532z" />
<glyph unicode="S" horiz-adv-x="1273" d="M135 137l53 111q15 26 43 16q201 -94 396 -94q125 0 215 57t90 148q0 90 -60 150q-61 61 -147 86q-81 23 -191 60q-124 41 -192 69q-87 35 -147 118q-60 82 -60 203q0 183 124 289t323 106q234 0 462 -102q29 -11 17 -41l-53 -117q-11 -29 -41 -18q-210 82 -338 82 q-130 0 -203 -39q-74 -39 -80 -144q0 -65 44 -112t116 -74q71 -26 158 -51q81 -23 171 -59q86 -35 156 -80q73 -47 116 -130q44 -85 44 -198q0 -167 -145 -278q-146 -111 -363 -111q-265 0 -493 112q-19 10 -19 26q0 7 4 15z" />
<glyph unicode="T" horiz-adv-x="1230" d="M92 1280v123q0 12 9 21q10 10 22 10h985q11 0 21 -10t10 -21v-123q0 -12 -10 -22q-9 -9 -21 -9h-389v-1218q0 -13 -9 -22t-22 -9h-149q-13 0 -22 9t-9 22v1218h-385q-13 0 -22 9t-9 22z" />
<glyph unicode="U" horiz-adv-x="1484" d="M184 545v858q0 11 10 21t21 10h147q12 0 22 -10q9 -9 9 -21v-858q0 -35 9 -78q8 -38 34 -97q25 -56 62 -99t100 -73t143 -30q81 0 144 30q64 30 99 73q35 42 60 99q26 59 34 97q9 43 9 78v858q0 11 10 21t21 10h152q11 0 21 -10q9 -9 9 -21v-858q0 -97 -30 -190 q-30 -92 -93 -178q-63 -85 -176 -138q-114 -53 -260 -53t-260 53q-112 52 -175 138q-62 83 -92 178q-30 93 -30 190z" />
<glyph unicode="V" horiz-adv-x="1413" d="M74 1405q-2 4 -2 8q0 6 4 11q7 10 16 10h168q28 0 43 -29l404 -1004l403 1004q15 29 43 29h168q9 0 16 -10q4 -5 4 -11q0 -4 -2 -8l-594 -1391q-10 -26 -38 -26q-27 0 -41 26z" />
<glyph unicode="W" horiz-adv-x="2263" d="M74 1405q-2 4 -2 8q0 6 4 11q7 10 16 10h168q28 0 43 -29l404 -963l387 985q11 25 36 25q26 0 37 -25l387 -985l404 963q15 29 43 29h168q9 0 16 -10q4 -5 4 -11q0 -4 -2 -8l-600 -1399q-6 -22 -33 -22q-24 0 -30 22l-394 977l-393 -977q-6 -22 -32 -22q-23 0 -33 22z " />
<glyph unicode="X" horiz-adv-x="1265" d="M78 8q-2 4 -2 9t2 10l440 692l-440 688q-2 6 -2 10.5t2 7.5q5 9 14 9h182q32 0 48 -27l311 -506l311 506q16 27 47 27h183q9 0 14 -10q2 -4 2 -8.5t-2 -8.5l-440 -688l440 -692q2 -4 2 -8.5t-2 -9.5q-4 -9 -14 -9h-179q-30 0 -47 27l-315 510l-316 -510q-17 -27 -47 -27 h-178q-9 0 -14 8z" />
<glyph unicode="Y" horiz-adv-x="1302" d="M77 1425q5 9 15 9h174q30 0 47 -27l336 -571l338 571q17 27 47 27h176q11 0 16 -9q2 -4 2 -8q0 -5 -3 -10l-469 -758v-618q0 -12 -10 -22q-9 -9 -21 -9h-150q-12 0 -21 9t-9 22v614l-467 762q-3 5 -3 10q0 4 2 8z" />
<glyph unicode="Z" horiz-adv-x="1308" d="M145 25q0 26 13 49l694 1177h-645q-12 0 -22 10q-9 9 -9 21v121q0 12 9 21q10 10 22 10h936q22 0 22 -23q0 -22 -12 -43l-702 -1184h704q13 0 22 -9t9 -21v-123q0 -13 -9 -22t-22 -9h-985q-9 0 -17 8t-8 17z" />
<glyph unicode="[" horiz-adv-x="507" d="M61 -379v1938q0 11 10 21q9 9 21 9h324q12 0 21 -9t9 -21v-93q0 -12 -9 -21t-21 -9h-152v-1692h152q12 0 21 -9t9 -22v-92q0 -12 -9 -21q-10 -10 -21 -10h-324q-11 0 -21 10t-10 21z" />
<glyph unicode="\" horiz-adv-x="755" d="M72 1405q-4 10 3 19q8 10 17 10h105q30 0 41 -29l446 -1376q5 -11 -3 -20q-7 -9 -17 -9h-105q-30 0 -41 29z" />
<glyph unicode="]" horiz-adv-x="507" d="M61 -285q0 12 10 22q9 9 21 9h152v1692h-152q-12 0 -21 9q-10 10 -10 21v93q0 11 10 21q9 9 21 9h324q12 0 21 -9t9 -21v-1938q0 -12 -9 -21q-10 -10 -21 -10h-324q-11 0 -21 10t-10 21v92z" />
<glyph unicode="^" horiz-adv-x="1286" d="M223 948l398 502q6 12 22 12q17 0 23 -12l397 -502q17 -24 -4 -45l-60 -53q-22 -22 -43 2l-313 356l-313 -356q-22 -22 -43 -2l-60 53q-21 21 -4 45z" />
<glyph unicode="_" horiz-adv-x="843" d="M10 -37q0 13 9 22t22 9h762q12 0 21 -9q10 -10 10 -22v-67q0 -12 -10 -22q-9 -9 -21 -9h-762q-13 0 -22 9t-9 22v67z" />
<glyph unicode="`" horiz-adv-x="1044" d="M242 1438l59 88q18 23 43 6l266 -199q25 -19 8 -43l-40 -59q-16 -26 -43 -8l-283 174q-27 16 -10 41z" />
<glyph unicode="a" horiz-adv-x="1097" d="M123 291q0 81 28 146q26 62 77 97q43 30 108 54q52 19 132 24q42 3 87 3q23 0 46 -1q47 -1 128 -10v23q0 147 -45 194t-156 47q-102 0 -249 -53q-31 -12 -41 16l-35 84q-15 26 14 43q148 70 299 80q25 1 48 1q84 0 145 -17q78 -22 122 -60q42 -36 67 -102q24 -62 30 -117 q6 -53 6 -131v-581q0 -13 -9 -22t-22 -9h-61q-31 0 -39 29l-25 77q-59 -59 -140 -92q-79 -32 -155 -32q-90 0 -156 23q-71 25 -106 57t-60 79q-23 43 -31 81q-7 34 -7 69zM313 307q0 -76 51 -121q49 -43 125 -43q81 0 145 45q65 45 95 101v157q-88 11 -157 11 q-259 0 -259 -150z" />
<glyph unicode="b" horiz-adv-x="1253" d="M164 31v1372q0 12 9 21q10 10 22 10h143q11 0 21 -10t10 -21v-418q106 55 252 55q138 0 243 -51q104 -50 160 -134q55 -82 81 -169q25 -84 25 -174q0 -70 -15 -139q-16 -72 -52 -142q-38 -73 -91 -126q-52 -52 -144 -88q-85 -33 -197 -33q-183 0 -309 120l-25 -75 q-11 -29 -41 -29h-61q-13 0 -22 9t-9 22zM369 291q83 -137 252 -137q94 0 160 42q68 43 96 105q25 55 39 115q12 51 12 96q0 48 -14 102q-14 56 -46 115q-33 61 -101 101t-163 40q-142 0 -235 -71v-508z" />
<glyph unicode="c" horiz-adv-x="1142" d="M123 520q0 90 25 175q26 88 81 170q56 84 160 134q107 52 244 52q216 0 366 -156q11 -11 11 -21q0 -11 -13 -22l-92 -84q-21 -21 -45 0q-102 90 -229 90q-126 0 -215 -90q-88 -89 -88 -248q0 -142 80 -251q79 -107 221 -107q131 0 237 96q22 22 43 0l76 -86 q22 -22 -2 -45q-151 -147 -354 -147q-118 0 -208 34t-147 88q-55 52 -90 127q-34 73 -48 145q-13 68 -13 146z" />
<glyph unicode="d" horiz-adv-x="1253" d="M123 512q0 90 25 174q26 87 81 169q56 84 160 134q105 51 244 51q146 0 252 -55v418q0 12 9 21q10 10 21 10h144q11 0 21 -10t10 -21v-1372q0 -12 -10 -22q-9 -9 -21 -9h-62q-30 0 -41 29l-24 75q-126 -120 -309 -120q-113 0 -198 33q-90 35 -143 88q-55 55 -92 126 q-36 70 -52 142q-15 69 -15 139zM326 512q0 -49 11 -96q13 -55 40 -115q28 -63 95 -105q66 -42 161 -42q169 0 252 137v508q-93 71 -236 71q-95 0 -163 -40t-101 -101q-32 -59 -46 -115q-13 -51 -13 -102z" />
<glyph unicode="e" horiz-adv-x="1110" d="M92 520q0 87 26 174t81 169q57 84 159 134q107 52 244 52q223 0 332 -151q82 -115 82 -284q0 -53 -8 -112q-5 -31 -35 -31h-676q6 -52 22 -97q16 -44 49 -98q31 -51 92 -81q62 -31 142 -31q161 0 281 98q23 18 43 -2l67 -82q22 -22 -2 -43q-167 -147 -389 -147 q-139 0 -244 51q-102 50 -159 134q-55 82 -81 170q-26 89 -26 177zM305 623h516q3 21 3 40q0 70 -41 132q-53 78 -181 84q-236 0 -297 -256z" />
<glyph unicode="f" horiz-adv-x="741" d="M20 887v106q0 12 10 22q9 9 21 9h94v90q0 163 101 249q100 85 254 85q122 0 233 -45q22 -8 22 -26q0 -7 -3 -15l-33 -98q-11 -29 -39 -19q-92 29 -162 29q-72 0 -120 -39t-48 -129v-82h180q13 0 22 -9t9 -22v-106q0 -13 -9 -22t-22 -9h-180v-823q0 -13 -9 -22t-22 -9 h-143q-12 0 -21 9q-10 10 -10 22v823h-94q-12 0 -21 9q-10 10 -10 22z" />
<glyph unicode="g" horiz-adv-x="1144" d="M123 -129q5 156 141 213q-109 40 -114 145q-1 10 -1 19q0 62 29 107q33 52 92 67q-80 107 -80 244q0 62 20 125q19 60 60 119t119 95q76 35 182 35q121 0 209 -51l127 117q11 10 21 10q12 0 24 -12l68 -68q12 -10 12 -21t-10 -22l-121 -127q53 -101 53 -200 q0 -143 -93 -260t-290 -117q-87 0 -153 24q-9 1 -18 1q-34 0 -55 -19q-26 -24 -26 -64q0 -45 46 -70q45 -24 112 -24q42 0 80 -1t78 -1q121 -2 200 -25q80 -24 118 -66q38 -43 53 -87q12 -36 12 -87v-15q-1 -36 -23 -82q-23 -48 -65 -95q-43 -47 -134 -81q-88 -33 -210 -33 q-244 0 -354 95q-109 94 -109 212zM307 -137q0 -9 5 -24q4 -12 24 -32q16 -16 45 -32q25 -14 77 -25q49 -10 113 -12q69 0 122 12q51 12 78 29q25 16 40 37q14 20 17 30t3 17q1 5 1 10q0 42 -49 65q-53 25 -212 25q-161 0 -211 -23q-53 -24 -53 -77zM393 666q0 -27 7 -55 q7 -27 24 -66q16 -37 55 -61q37 -23 92 -23q56 0 93 23q39 24 55 61q15 34 23 66t8 55q0 22 -8 54t-23 66q-16 37 -55 61q-37 23 -93 23q-55 0 -92 -23q-39 -24 -55 -61q-17 -39 -24 -66q-7 -28 -7 -54z" />
<glyph unicode="h" horiz-adv-x="1185" d="M164 31v1372q0 12 9 21q10 10 22 10h143q11 0 21 -10t10 -21v-451q47 41 118 64q73 24 144 24q133 0 226 -44q90 -43 133 -125q44 -85 58 -159q15 -80 15 -184v-497q0 -13 -9 -22t-22 -9h-141q-13 0 -22 9t-9 22v497q0 22 -1 51q-2 49 -4 70q-3 32 -17 72q-16 48 -38 73 q-25 28 -70 50q-44 21 -109 26q-12 1 -24 1q-76 0 -132 -34q-67 -41 -96 -96v-710q0 -12 -10 -22q-9 -9 -21 -9h-143q-13 0 -22 9t-9 22z" />
<glyph unicode="i" horiz-adv-x="571" d="M164 1335q0 50 35 87q35 36 86 36t87 -36t36 -87t-36 -86q-37 -35 -87 -35q-52 0 -86 34q-35 35 -35 87zM182 29v964q0 13 9 22t22 9h143q13 0 22 -9t9 -22v-964q0 -13 -9 -22t-22 -9h-143q-13 0 -22 9t-9 22z" />
<glyph unicode="j" horiz-adv-x="538" d="M-250 -281l55 84q17 29 43 13q79 -41 146 -41q156 0 156 219v999q0 13 9 22t21 9h144q12 0 21 -9t9 -22v-999v-4q0 -32 -1 -48q-2 -36 -8 -76q-7 -52 -30 -94q-24 -45 -58 -86q-38 -46 -100 -69q-67 -25 -149 -25q-139 0 -252 80q-14 10 -14 24q0 11 8 23zM131 1335 q0 50 35 87q34 36 86 36q51 0 87 -36t36 -87t-36 -86q-37 -35 -87 -35q-52 0 -86 34q-35 35 -35 87z" />
<glyph unicode="k" horiz-adv-x="1130" d="M164 31v1372q0 12 9 21q10 10 22 10h143q11 0 21 -10t10 -21v-807l395 405q23 23 53 23h205q6 0 8 -6q2 -2 -2 -8l-485 -478l520 -512q5 -4 5 -10q0 -2 -1 -4q-1 -6 -10 -6h-209q-30 0 -53 23l-426 434v-426q0 -12 -10 -22q-9 -9 -21 -9h-143q-13 0 -22 9t-9 22z" />
<glyph unicode="l" horiz-adv-x="573" d="M184 31v1372q0 11 10 21t21 10h143q12 0 22 -10q9 -9 9 -21v-1372q0 -13 -9 -22t-22 -9h-143q-12 0 -21 9q-10 10 -10 22z" />
<glyph unicode="m" horiz-adv-x="1798" d="M164 31v962q0 13 9 22t22 9h61q30 0 41 -29l25 -75q126 120 309 120q231 0 323 -135l15 15q126 120 309 120q95 0 162 -19q69 -19 111 -60t69 -84q28 -44 38 -110q10 -57 14 -116q3 -49 3 -123v-497q0 -13 -9 -22t-21 -9h-142q-12 0 -21 9t-9 22v497q0 3 -0.5 9.5 t-1 18.5t-0.5 23q0 12 -0.5 35t-1.5 34q-2 36 -12 73q-13 46 -32 72q-22 30 -60 51t-97 26q-10 1 -20 1q-148 0 -232 -138q12 -78 12 -205v-497q0 -13 -9 -22t-22 -9h-141q-12 0 -21 9q-10 10 -10 22v497q2 18 0 52q-2 44 -2 68q0 36 -12 74q-13 39 -33 70q-22 33 -60 53 q-39 20 -97 25q-10 1 -20 1q-148 0 -232 -138v-702q0 -12 -10 -22q-9 -9 -21 -9h-143q-13 0 -22 9t-9 22z" />
<glyph unicode="n" horiz-adv-x="1185" d="M164 31v962q0 13 9 22t22 9h61q30 0 41 -29l25 -75q126 120 309 120q133 0 226 -44q90 -43 133 -125q44 -85 58 -159q15 -80 15 -184v-497q0 -13 -9 -22t-22 -9h-145q-13 0 -22 9t-9 22v497q0 1 -0.5 7t-1 19t-0.5 26q-1 39 -5 73q-3 26 -18 73q-16 49 -36 73 q-22 27 -68 48q-45 21 -106 21q-85 0 -152 -40q-68 -41 -100 -95v-702q0 -12 -10 -22q-9 -9 -21 -9h-143q-13 0 -22 9t-9 22z" />
<glyph unicode="o" horiz-adv-x="1265" d="M123 512q0 90 25 174q26 87 81 169q56 84 160 134q105 51 244 51t244 -51q102 -50 159 -134q55 -82 81 -169t26 -174q0 -88 -26 -177q-25 -86 -81 -169q-56 -84 -159 -132q-106 -50 -244 -50t-244 50q-104 49 -160 132t-81 169q-25 85 -25 177zM326 512q0 -49 11 -96 q13 -55 40 -115q28 -63 95 -105q66 -42 161 -42t161 42q67 42 95 105q27 60 40 115q11 47 11 96t-11 96q-13 55 -40 115q-28 63 -95 105q-66 42 -161 42t-161 -42q-67 -42 -95 -105q-27 -60 -40 -115q-11 -47 -11 -96z" />
<glyph unicode="p" horiz-adv-x="1253" d="M164 -379v1372q0 13 9 22t22 9h61q30 0 41 -29l25 -75q126 120 309 120q112 0 197 -33q92 -36 144 -88q53 -53 91 -126q36 -70 52 -142q15 -69 15 -139q0 -86 -24 -170q-23 -81 -76 -165q-52 -83 -149 -134q-100 -53 -230 -59h-61q-123 6 -221 55v-418q0 -11 -10 -21 t-21 -10h-143q-12 0 -22 10q-9 9 -9 21zM369 225q93 -71 235 -71q95 0 163 40t101 101q32 59 46 115q14 54 14 102q0 45 -12 96q-14 60 -39 115q-28 62 -96 105q-66 42 -160 42q-169 0 -252 -137v-508z" />
<glyph unicode="q" horiz-adv-x="1253" d="M123 512q0 70 15 139q16 72 52 142q37 71 92 126q53 53 143 88q85 33 198 33q183 0 309 -120l24 75q11 29 41 29h62q12 0 21 -9q10 -10 10 -22v-1372q0 -11 -10 -21t-21 -10h-144q-11 0 -21 10q-9 9 -9 21v418q-98 -49 -221 -55h-62q-129 6 -229 59q-99 52 -150 134 q-53 84 -76 165q-24 84 -24 170zM326 512q0 -51 13 -102q14 -56 46 -115q33 -61 101 -101t163 -40q143 0 236 71v508q-83 137 -252 137q-95 0 -161 -42q-67 -42 -95 -105q-27 -60 -40 -115q-11 -47 -11 -96z" />
<glyph unicode="r" horiz-adv-x="749" d="M164 31v962q0 13 9 22t22 9h61q30 0 41 -29l25 -75q126 120 309 120q23 0 67 -6q13 -2 20 -12q5 -7 5 -17v-6l-21 -116q-6 -29 -36 -25q-22 2 -50 2q-87 0 -157 -38q-69 -38 -90 -99v-692q0 -12 -10 -22q-9 -9 -21 -9h-143q-13 0 -22 9t-9 22z" />
<glyph unicode="s" horiz-adv-x="1007" d="M135 115l47 94q12 30 39 14q145 -69 279 -69q77 0 124 33q50 35 50 87q0 62 -56 100t-134 60q-77 22 -157 52q-78 29 -133 95t-55 167q2 137 93 215q90 77 239 77q174 0 340 -77q26 -15 16 -43l-47 -99q-10 -28 -41 -16q-144 57 -231 57q-168 0 -174 -106q0 -52 56 -84 q62 -36 138 -58q81 -23 163 -57q80 -33 137 -103t57 -178q0 -129 -106 -211q-105 -81 -267 -81q-199 0 -362 88q-18 11 -18 28q0 7 3 15z" />
<glyph unicode="t" horiz-adv-x="641" d="M20 885v108q0 12 10 22q9 9 21 9h96l17 172q5 31 35 31h123q12 0 21 -9t9 -22v-172h180q13 0 22 -9t9 -22v-108q0 -13 -9 -22t-22 -9h-180v-573q0 -61 21 -96q17 -28 65 -28q9 0 19 1q33 2 102 18q31 5 37 -24l18 -91q1 -5 1 -10q0 -23 -25 -28q-115 -31 -225 -31 q-71 0 -117 28q-48 29 -67 75q-17 42 -26 81q-8 37 -8 70v608h-96q-12 0 -21 9q-10 10 -10 22z" />
<glyph unicode="u" horiz-adv-x="1185" d="M123 496v497q0 13 9 22t22 9h145q13 0 22 -9t9 -22v-497q0 -1 0.5 -7t1 -19t0.5 -26q1 -39 5 -73q3 -31 17 -73q15 -47 37 -73q22 -27 68 -48q45 -21 106 -21q85 0 152 40q68 41 100 95v702q0 13 9 22t22 9h143q13 0 22 -9t9 -22v-962q0 -13 -9 -22t-22 -9h-61 q-30 0 -41 29l-25 75q-126 -120 -309 -120q-133 0 -226 44q-90 43 -133 125q-44 85 -58 159q-15 80 -15 184z" />
<glyph unicode="v" horiz-adv-x="1046" d="M74 995q-2 4 -2 8q0 6 4 12q6 9 16 9h158q30 0 41 -29l231 -594l232 594q15 29 43 29h157q11 0 17 -9q4 -6 4 -12q0 -4 -2 -8l-420 -991q-10 -22 -35 -22t-35 22z" />
<glyph unicode="w" horiz-adv-x="1576" d="M63 995q-1 3 -1 7q0 6 4 13q6 9 16 9h158q28 0 43 -29l231 -551l231 564q15 28 43 28t43 -28l232 -564l231 551q15 29 43 29h158q10 0 16 -9q4 -6 4 -12q0 -4 -2 -8l-415 -989q-8 -18 -29 -18t-27 18l-254 598l-253 -598q-11 -18 -29 -18q-21 0 -27 18z" />
<glyph unicode="x" horiz-adv-x="1009" d="M78 8q-2 4 -2 9t2 10l311 485l-311 485q-2 6 -2 10.5t2 8.5q5 8 14 8h182q32 0 48 -27l182 -303l184 303q17 27 47 27h183q10 0 14 -9q2 -5 2 -9.5t-2 -8.5l-311 -485l311 -485q2 -4 2 -8.5t-2 -9.5q-4 -9 -14 -9h-183q-30 0 -47 27l-184 301l-182 -301q-16 -27 -48 -27 h-182q-9 0 -14 8z" />
<glyph unicode="y" horiz-adv-x="1177" d="M74 995q-2 4 -2 8q0 6 4 12q6 9 16 9h162q28 0 43 -29l293 -710l284 710q15 29 44 29h167q11 0 17 -9q4 -6 4 -12q0 -4 -2 -8l-582 -1374q-12 -29 -43 -29h-155q-10 0 -17 10q-6 9 -2 19l176 420z" />
<glyph unicode="z" horiz-adv-x="1015" d="M121 31v2q0 29 16 57l441 746h-394q-12 0 -21 9t-9 21v127q0 13 9 22t21 9h693q26 0 26 -27t-14 -47l-459 -762h436q13 0 22 -9t9 -21v-127q0 -13 -9 -22t-22 -9h-714q-13 0 -22 9t-9 22z" />
<glyph unicode="{" horiz-adv-x="618" d="M61 553v72q0 24 31 32q41 8 71 44t30 98v436q0 99 32 167q33 70 74 105q42 35 93 56q49 20 78 23q25 3 40 3h16q13 0 22 -9t9 -21v-93q0 -12 -9 -21t-22 -9h-8q-5 0 -21 -2q-8 -1 -31 -15q-17 -11 -34 -34q-12 -16 -25 -65q-12 -44 -12 -103v-437q0 -67 -38 -114t-91 -68 v-10q54 -17 91 -69q38 -53 38 -122v-432q0 -59 12 -103q14 -51 25 -66q17 -23 34 -34q21 -13 31 -14q16 -2 21 -2h8q13 0 22 -9t9 -22v-92q0 -12 -9 -21q-10 -10 -22 -10h-16q-6 0 -40 4q-29 3 -78 23q-54 21 -93 55q-41 35 -74 106q-32 68 -32 167v432q0 61 -30 97t-71 44 q-31 8 -31 33z" />
<glyph unicode="|" horiz-adv-x="387" d="M123 -379v1931q0 13 9 22t22 9h79q13 0 22 -9t9 -22v-1931q0 -12 -9 -21q-10 -10 -22 -10h-79q-12 0 -22 10q-9 9 -9 21z" />
<glyph unicode="}" horiz-adv-x="618" d="M61 -285q0 12 10 22q9 9 21 9h8q6 0 22 2q10 1 31 14q16 10 33 34q13 18 26 66q11 40 11 103v432q0 69 38 122q37 52 91 69v10q-53 21 -91 68t-38 114v437q0 63 -11 103q-13 47 -26 65q-17 24 -33 34q-23 14 -31 15q-16 2 -22 2h-8q-12 0 -21 9q-10 10 -10 21v93 q0 11 10 21q9 9 21 9h17q13 0 39 -3q29 -3 78 -23q51 -21 93 -56q41 -35 74 -105t33 -167v-436q0 -62 30 -98q31 -37 70 -44q31 -8 31 -32v-72q0 -25 -31 -33q-39 -7 -70 -44q-30 -36 -30 -97v-432q0 -97 -33 -167q-33 -71 -74 -106q-39 -34 -93 -55q-49 -20 -78 -23 q-34 -4 -39 -4h-17q-11 0 -21 10t-10 21v92z" />
<glyph unicode="~" horiz-adv-x="1257" d="M139 571q125 193 320 193q70 0 181 -64q110 -63 171 -63q89 0 184 108q21 25 41 5l76 -62q23 -23 8 -47q-123 -197 -311 -197q-80 0 -194 66q-112 65 -166 65q-99 0 -181 -94q-17 -23 -43 -8l-78 53q-26 18 -8 45z" />
<glyph unicode="&#xa1;" horiz-adv-x="653" d="M205 926q0 50 35 87q34 36 86 36q51 0 87 -36t36 -87q0 -52 -36 -86q-37 -35 -87 -35q-52 0 -86 34q-35 35 -35 87zM223 184l35 400q0 12 9 21t24 9h67q12 0 23 -9q10 -9 10 -21l37 -400v-546q0 -13 -9 -22t-22 -9h-143q-13 0 -22 9t-9 22v546z" />
<glyph unicode="&#xa2;" horiz-adv-x="1142" d="M123 520q0 82 21 163q20 75 69 160q45 77 136 134q87 55 208 70v143q0 12 9 21q10 10 22 10h80q11 0 21 -10q9 -9 9 -21v-143q170 -17 301 -152q21 -24 -2 -43l-92 -84q-21 -21 -45 0q-80 74 -162 90v-688q100 23 168 88q22 22 43 0l76 -86q22 -21 -2 -45 q-125 -125 -285 -143v-170q0 -13 -9 -22t-21 -9h-80q-13 0 -22 9t-9 22v170q-100 10 -178 48q-77 37 -125 91q-49 55 -78 124q-30 71 -42 136q-11 60 -11 137zM328 520q0 -122 60 -223q59 -100 169 -127v686q-100 -27 -165 -116q-64 -88 -64 -220z" />
<glyph unicode="&#xa3;" horiz-adv-x="1226" d="M109 106q67 100 143 144v420h-94q-13 0 -22 9t-9 21v107q0 12 9 21q10 10 22 10h94v276q0 164 100 249t254 85q119 0 230 -45q29 -11 18 -41l-35 -96q-11 -29 -39 -19q-104 29 -166 29q-150 0 -157 -150v-288h305q11 0 21 -10t10 -21v-107q0 -11 -10 -21q-9 -9 -21 -9 h-305v-373q55 -7 159 -67q101 -58 164 -58q90 0 185 109q21 24 41 4l75 -62q24 -24 9 -47q-123 -196 -312 -196q-81 0 -193 65q-114 66 -167 66q-97 0 -180 -95q-17 -23 -43 -8l-78 53q-26 18 -8 45z" />
<glyph unicode="&#xa4;" horiz-adv-x="1333" d="M145 102q-23 22 0 45l172 170q-59 103 -59 236q0 144 70 254l-183 182q-23 23 0 45l56 56q23 22 45 0l180 -181q94 66 240 66q141 0 241 -68l180 183q23 23 46 0l55 -56q22 -22 0 -45l-184 -184q69 -108 69 -252q0 -132 -57 -234l172 -172q22 -23 0 -45l-55 -55 q-23 -23 -46 0l-163 164q-101 -80 -258 -80q-154 0 -256 78l-164 -164q-22 -21 -45 2zM469 553q0 -30 7 -61q7 -32 26 -74q18 -42 61 -68q42 -26 103 -26q60 0 102 26q43 26 61 68q19 42 26 74q7 31 7 61t-7 61q-7 32 -26 74q-18 42 -61 68q-42 26 -102 26q-61 0 -103 -26 q-43 -26 -61 -68q-19 -42 -26 -74q-7 -31 -7 -61z" />
<glyph unicode="&#xa5;" horiz-adv-x="1288" d="M61 1423q0 11 11 11h188q30 0 47 -27l336 -555l338 555q17 27 47 27h189q10 0 10 -11q0 -12 -6 -18l-471 -756v-2h213q12 0 21 -9t9 -22v-92q0 -12 -9 -21t-21 -9h-213v-195h213q12 0 21 -9t9 -22v-92q0 -12 -9 -21q-10 -10 -21 -10h-213v-114q0 -12 -10 -22 q-9 -9 -21 -9h-150q-12 0 -21 9t-9 22v114h-215q-12 0 -22 10q-9 9 -9 21v92q0 13 9 22t22 9h215v195h-215q-13 0 -22 9t-9 21v92q0 13 9 22t22 9h213l-469 758q-7 7 -7 18z" />
<glyph unicode="&#xa6;" horiz-adv-x="387" d="M123 342q0 13 9 22t22 9h79q13 0 22 -9t9 -22v-719q0 -12 -9 -21q-10 -10 -22 -10h-79q-12 0 -22 10q-9 9 -9 21v719zM123 836v718q0 13 9 22t22 9h79q13 0 22 -9t9 -22v-718q0 -13 -9 -22t-22 -9h-79q-13 0 -22 9t-9 22z" />
<glyph unicode="&#xa7;" horiz-adv-x="1179" d="M182 -217l74 92q18 24 43 6q144 -104 270 -110q72 -5 132 36q61 41 69 111q8 78 -53 136q-63 60 -205 128q-330 145 -319 406q1 83 48 148q49 68 95 100q-131 137 -127 280q6 134 114 237q107 103 304 97q158 -7 321 -119q28 -18 6 -43l-67 -100q-16 -26 -43 -8 q-131 74 -228 80q-98 2 -146 -41q-49 -43 -54 -101q0 -123 211 -225q75 -34 150 -79q58 -34 122 -89q58 -50 88 -115q29 -63 27 -137q-5 -142 -156 -260q140 -152 135 -299q-6 -158 -130 -252t-296 -82q-208 15 -381 158q-22 18 -4 45zM391 592q-2 -23 3 -44q4 -18 21 -42 q15 -21 27 -36q12 -14 40 -35q33 -24 41 -31q11 -10 48 -29q9 -5 19.5 -10.5t16.5 -9t9 -4.5q7 -3 47 -23q10 -5 19.5 -10t13.5 -7l4 -2q91 74 95 162q1 36 -20 70q-20 32 -64 62q-47 32 -77 48q-50 26 -89 44q-25 11 -70 34q-84 -72 -84 -137z" />
<glyph unicode="&#xa8;" horiz-adv-x="1185" d="M223 1333q0 50 35 87q34 36 86 36q51 0 87 -36t36 -87t-36 -86q-37 -35 -87 -35q-52 0 -87 35q-34 34 -34 86zM713 1333q0 50 35 87q34 36 86 36q51 0 87 -36q35 -35 35 -87t-35 -86q-37 -35 -87 -35q-51 0 -86 35t-35 86z" />
<glyph unicode="&#xa9;" horiz-adv-x="1200" d="M82 930q0 203 151 358q152 156 367 156t367 -152q151 -151 151 -366q0 -216 -151 -367t-367 -151q-206 0 -361 151q-157 152 -157 371zM186 926q0 -172 121 -293t293 -121t293 121t121 293q0 173 -121 294t-293 121t-293 -121t-121 -294zM309 924q0 -104 72 -195 q72 -92 217 -92q123 0 207 84q21 21 -2 43l-41 35q-20 20 -47 2q-61 -41 -117 -41q-60 0 -104 45q-43 44 -43 119q0 74 43 118q44 45 104 45q58 0 117 -40q27 -18 47 2l41 34q23 23 2 43q-84 84 -207 84q-145 0 -217 -92t-72 -194z" />
<glyph unicode="&#xaa;" horiz-adv-x="813" d="M82 893q0 125 79 182q81 58 197 58q80 0 179 -31v41q0 115 -34 146q-35 32 -116 32q-69 0 -178 -41q-31 -8 -41 18l-23 56q-14 26 15 43q105 51 217 57q105 6 172 -18t96 -77q30 -55 37 -102q8 -53 8 -122v-428q0 -13 -9 -22t-22 -9h-30q-31 0 -39 29l-17 51 q-91 -94 -221 -94q-83 0 -140 25q-58 25 -84 66q-27 42 -36 73q-10 33 -10 67zM225 905q0 -55 39 -89q38 -34 94 -34q61 0 108 34q49 35 71 75v92q-87 29 -166 29q-59 0 -103 -29q-43 -28 -43 -78z" />
<glyph unicode="&#xab;" horiz-adv-x="968" d="M61 514q0 18 13 31l325 344q21 24 43 2l54 -47q22 -22 2 -43l-242 -287l242 -287q20 -21 -2 -43l-54 -47q-22 -22 -43 2l-325 342q-13 16 -13 33zM451 514q0 19 12 31l325 344q21 24 43 2l54 -47q23 -22 2 -43l-242 -287l242 -287q21 -21 -2 -43l-54 -47q-22 -22 -43 2 l-325 342q-12 15 -12 33z" />
<glyph unicode="&#xac;" horiz-adv-x="1284" d="M164 559v270q0 13 9 22t22 9h895q12 0 21 -9t9 -22v-571q0 -12 -9 -21q-10 -10 -21 -10h-279q-11 0 -21 10t-10 21v270h-585q-12 0 -22 10q-9 9 -9 21z" />
<glyph unicode="&#xad;" horiz-adv-x="823" d="M123 356v93q0 12 9 21t22 9h516q12 0 21 -9t9 -21v-93q0 -12 -9 -21t-21 -9h-516q-13 0 -22 9t-9 21z" />
<glyph unicode="&#xae;" horiz-adv-x="1200" d="M82 932q0 203 151 358q152 156 367 156t367 -152q151 -151 151 -366q0 -216 -151 -367t-367 -151q-206 0 -361 151q-157 152 -157 371zM186 928q0 -172 121 -293t293 -121t293 121t121 293q0 173 -121 294t-293 121t-293 -121t-121 -294zM408 684v506q0 12 9 21 q10 10 21 10h189q107 0 157 -59t50 -130q0 -58 -33 -104q-34 -48 -84 -70l90 -178q4 -10 -1 -18q-5 -9 -15 -9h-54q-33 0 -45 27l-82 162h-96v-158q0 -12 -9 -21q-10 -10 -22 -10h-45q-11 0 -21 10q-9 9 -9 21zM514 942h121q48 1 68 31q20 29 20 59q0 34 -21 62t-71 28h-117 v-180z" />
<glyph unicode="&#xaf;" horiz-adv-x="1056" d="M231 1251v82q0 12 10 22q9 9 21 9h555q13 0 22 -9t9 -22v-82q0 -12 -9 -21t-22 -9h-555q-12 0 -21 9q-10 10 -10 21z" />
<glyph unicode="&#xb0;" horiz-adv-x="675" d="M61 1178q0 114 81 195t196 81t196 -81q80 -80 80 -195q0 -116 -80 -196q-81 -81 -196 -81t-196 81t-81 196zM201 1178q0 -54 42 -96t95 -42q50 0 91 42q40 41 40 96q0 51 -40 91t-91 40q-54 0 -95 -40q-42 -41 -42 -91z" />
<glyph unicode="&#xb1;" horiz-adv-x="1132" d="M164 113v92q0 12 9 21q10 10 22 10h743q11 0 21 -10t10 -21v-92q0 -12 -10 -22q-9 -9 -21 -9h-743q-13 0 -22 9t-9 22zM164 645v92q0 13 9 22t22 9h294v295q0 11 10 21t21 10h92q12 0 22 -10q9 -9 9 -21v-295h295q12 0 21 -9q10 -10 10 -22v-92q0 -11 -10 -21t-21 -10 h-295v-211q0 -12 -9 -21t-22 -9h-92q-12 0 -21 9q-10 10 -10 21v211h-294q-12 0 -22 10q-9 9 -9 21z" />
<glyph unicode="&#xb2;" horiz-adv-x="704" d="M129 989q0 25 16 47l246 293q53 67 53 117q0 31 -19 54q-19 24 -65 24q-54 0 -127 -62q-21 -21 -45 2l-32 33q-21 24 0 45q96 90 202 90q95 0 150 -56t55 -138q0 -88 -80 -183l-149 -176h182q13 0 22 -9t9 -21v-54q0 -12 -9 -21t-22 -9h-362q-11 0 -18 7t-7 17z" />
<glyph unicode="&#xb3;" horiz-adv-x="677" d="M135 1057l25 26q19 23 43 2q61 -43 116 -43q47 0 79 26t32 73q0 46 -32 73t-79 27h-57q-12 0 -21 9q-10 10 -10 22v35q0 11 10 21q9 9 21 9h57q47 0 79 27t32 74q0 46 -33 72q-34 26 -78 26q-54 0 -114 -45q-29 -17 -45 4l-25 27q-18 23 2 43q86 69 182 69q120 0 170 -62 q52 -64 52 -134q0 -93 -66 -150q66 -56 66 -147q0 -72 -52 -135q-51 -62 -170 -62q-98 0 -182 70q-24 21 -2 43z" />
<glyph unicode="&#xb4;" horiz-adv-x="1044" d="M426 1290q-17 24 8 43l266 199q11 8 23 6t18 -12l60 -88q8 -8 5 -22q-3 -13 -13 -19l-283 -174q-27 -18 -43 8z" />
<glyph unicode="&#xb6;" horiz-adv-x="1341" d="M82 1012q0 73 20 139q21 68 65 135q44 66 128 107q85 41 197 41h655q11 0 21 -10t10 -21v-80q0 -11 -10 -21t-21 -10h-113v-1669q0 -12 -9 -21q-10 -10 -21 -10h-80q-12 0 -22 10q-9 9 -9 21v1669h-221v-1669q0 -12 -9 -21q-10 -10 -22 -10h-80q-11 0 -21 10t-10 21v967 h-38q-112 0 -197 41t-128 106q-44 67 -65 135q-20 66 -20 140z" />
<glyph unicode="&#xb7;" horiz-adv-x="514" d="M123 612q0 58 38 96q37 37 95 37q56 0 95 -38q40 -39 40 -95q0 -55 -40 -95t-95 -40t-94 40q-39 41 -39 95z" />
<glyph unicode="&#xb8;" horiz-adv-x="1134" d="M500 -360l28 49q15 24 41 12q52 -23 90 -23q32 0 59 22q25 21 30 50q6 44 -26 74t-108 29h-2q-18 0 -34 10q-15 11 -15 28v148q0 12 9 21q10 10 22 10h61q12 0 22 -10q9 -9 9 -21v-92h12q99 -4 147 -65q48 -60 42 -132q-7 -97 -74 -150t-154 -49q-87 5 -149 43 q-25 19 -10 46z" />
<glyph unicode="&#xb9;" horiz-adv-x="446" d="M18 1446q-18 27 9 45l182 129q20 14 45 14q27 0 27 -26v-607q0 -11 -10 -21q-9 -9 -21 -9h-64q-12 0 -21 9t-9 21v441l-72 -41q-27 -18 -43 10z" />
<glyph unicode="&#xba;" horiz-adv-x="774" d="M82 1128q0 73 26 142t97 122q72 54 182 54t182 -54t98 -122q25 -66 25 -142q0 -55 -15 -106q-15 -52 -48 -101q-34 -51 -95 -80q-63 -30 -147 -30q-83 0 -146 30t-96 80q-33 49 -48 101q-15 51 -15 106zM121 524v58q0 12 9 21t22 9h469q12 0 21 -9t9 -21v-58 q0 -12 -9 -21t-21 -9h-469q-13 0 -22 9t-9 21zM121 524v58q0 12 9 21t22 9h469q12 0 21 -9t9 -21v-58q0 -12 -9 -21t-21 -9h-469q-13 0 -22 9t-9 21zM221 1128q0 -25 6 -52q5 -23 22 -62q16 -36 51 -58t87 -22t87 22t51 58q17 39 22 62q6 27 6 52q0 36 -9 73q-9 38 -50 79 t-107 41q-65 0 -106 -41q-42 -42 -51 -79t-9 -73z" />
<glyph unicode="&#xbb;" horiz-adv-x="968" d="M82 227l242 287l-242 287q-20 21 2 43l53 47q22 22 43 -2l326 -344q12 -12 12 -31q0 -18 -12 -33l-326 -342q-21 -24 -43 -2l-53 47q-22 22 -2 43zM471 227l242 287l-242 287q-21 21 2 43l53 47q22 22 43 -2l326 -344q12 -12 12 -31q0 -18 -12 -33l-326 -342 q-21 -24 -43 -2l-53 47q-23 22 -2 43z" />
<glyph unicode="&#xbc;" horiz-adv-x="1130" d="M70 1245q-18 27 8 45l184 129q21 15 45 15q25 0 25 -25v-608q0 -13 -9 -22t-22 -9h-63q-13 0 -22 9t-9 22v440l-72 -41q-27 -18 -43 10zM137 27l688 1380q15 27 45 27h86q11 0 16 -9q5 -8 1 -18l-686 -1380q-12 -27 -45 -27h-88q-11 0 -16 8q-5 9 -1 19zM551 162v10 q0 29 16 57l264 408q17 27 48 27h39q11 0 21 -10q9 -9 9 -21v-387h70q12 0 21 -9q10 -10 10 -22v-53q0 -12 -10 -22q-9 -9 -21 -9h-70v-98q0 -13 -9 -22t-21 -9h-64q-12 0 -21 9q-10 10 -10 22v98h-241q-13 0 -22 9t-9 22zM713 246h110v172z" />
<glyph unicode="&#xbd;" horiz-adv-x="1210" d="M68 1245q-18 27 8 45l184 129q21 15 45 15q25 0 25 -25v-608q0 -13 -9 -22t-22 -9h-63q-13 0 -22 9t-9 22v440l-72 -41q-27 -18 -43 10zM137 27l688 1380q15 27 45 27h86q11 0 16 -9q5 -8 1 -18l-686 -1380q-12 -27 -45 -27h-88q-11 0 -16 8q-5 9 -1 19zM694 23 q0 24 17 47l245 292q54 68 54 117q0 30 -20 55q-19 23 -64 23q-56 0 -127 -61q-21 -21 -45 2l-33 32q-21 24 0 45q97 91 203 91q94 0 149 -57q55 -56 55 -138q0 -88 -79 -182l-150 -176h182q12 0 22 -10q9 -9 9 -21v-53q0 -13 -9 -22t-22 -9h-362q-11 0 -18 7t-7 18z" />
<glyph unicode="&#xbe;" horiz-adv-x="1204" d="M70 868l24 27q19 23 43 2q61 -43 117 -43q47 0 79 26t32 72q0 47 -32 74t-79 27h-57q-13 0 -22 9t-9 21v35q0 13 9 22t22 9h57q47 0 79 27t32 73q0 47 -33 73q-34 26 -78 26q-55 0 -115 -45q-29 -17 -45 4l-24 26q-18 23 2 43q90 70 182 70q119 0 170 -63t51 -134 q0 -93 -65 -149q65 -55 65 -148q0 -74 -51 -135t-170 -61q-100 0 -182 69q-24 21 -2 43zM211 27l688 1380q15 27 45 27h86q11 0 16 -9q5 -8 1 -18l-687 -1380q-12 -27 -45 -27h-88q-10 0 -15 8q-5 9 -1 19zM625 162v10q0 29 16 57l264 408q17 27 47 27h39q12 0 22 -10 q9 -9 9 -21v-387h70q12 0 21 -9t9 -22v-53q0 -13 -9 -22t-21 -9h-70v-98q0 -13 -9 -22t-22 -9h-63q-13 0 -22 9t-9 22v98h-242q-12 0 -21 9t-9 22zM786 246h111v172z" />
<glyph unicode="&#xbf;" horiz-adv-x="1124" d="M164 -63q0 89 47 180q45 87 104 149q64 67 105 123q47 64 47 107l6 88q0 12 10 21q11 9 23 9h119q12 0 21 -9t9 -21v-92q0 -63 -29 -120q-30 -58 -72 -105q-56 -62 -83 -94q-42 -49 -71 -108q-29 -58 -29 -126t42 -122t152 -50q70 2 125 34q53 31 129 103q23 22 45 0 l74 -74q23 -19 2 -43q-99 -102 -192 -148q-96 -47 -222 -47q-158 0 -261 92q-101 91 -101 253zM436 928q0 51 36 87t87 36t88 -36t37 -87q0 -52 -36 -86q-37 -35 -89 -35q-50 0 -87 35q-36 35 -36 86z" />
<glyph unicode="&#xc0;" horiz-adv-x="1413" d="M74 31l592 1390q15 27 41 27q27 0 38 -27l594 -1390q4 -10 -2 -20q-6 -9 -16 -9h-168q-31 0 -43 29l-139 348h-529l-139 -348q-12 -29 -43 -29h-168q-10 0 -16 9q-6 10 -2 20zM516 561h381l-190 473zM518 1847l60 88q19 24 43 7l266 -199q25 -19 8 -43l-41 -60 q-16 -26 -43 -8l-283 174q-27 16 -10 41z" />
<glyph unicode="&#xc1;" horiz-adv-x="1413" d="M74 31l592 1390q15 27 41 27q27 0 38 -27l594 -1390q4 -10 -2 -20q-6 -9 -16 -9h-168q-31 0 -43 29l-139 348h-529l-139 -348q-12 -29 -43 -29h-168q-10 0 -16 9q-6 10 -2 20zM516 561h381l-190 473zM518 1700q-17 24 8 43l267 199q24 17 43 -7l59 -88q17 -25 -10 -41 l-283 -174q-27 -18 -43 8z" />
<glyph unicode="&#xc2;" horiz-adv-x="1413" d="M74 31l592 1390q15 27 41 27q27 0 38 -27l594 -1390q4 -10 -2 -20q-6 -9 -16 -9h-168q-31 0 -43 29l-139 348h-529l-139 -348q-12 -29 -43 -29h-168q-10 0 -16 9q-6 10 -2 20zM408 1698q-17 24 8 43l266 198q24 18 49 0l266 -198q25 -19 9 -43l-41 -60q-16 -26 -43 -8 l-215 131l-215 -131q-27 -18 -43 8zM516 561h381l-190 473z" />
<glyph unicode="&#xc3;" horiz-adv-x="1413" d="M74 31l592 1390q15 27 41 27q27 0 38 -27l594 -1390q4 -10 -2 -20q-6 -9 -16 -9h-168q-31 0 -43 29l-139 348h-529l-139 -348q-12 -29 -43 -29h-168q-10 0 -16 9q-6 10 -2 20zM393 1688q57 155 205 155q57 0 116 -40t93 -40q50 0 90 54q18 27 43 12l64 -33q27 -15 12 -43 q-74 -141 -213 -141q-46 0 -107 40t-100 40q-56 0 -90 -60q-15 -27 -43 -12l-53 25q-27 15 -17 43zM516 561h381l-190 473z" />
<glyph unicode="&#xc4;" horiz-adv-x="1413" d="M74 31l592 1390q15 27 41 27q27 0 38 -27l594 -1390q4 -10 -2 -20q-6 -9 -16 -9h-168q-31 0 -43 29l-139 348h-529l-139 -348q-12 -29 -43 -29h-168q-10 0 -16 9q-6 10 -2 20zM340 1743q0 50 35 87q35 36 86 36t87 -36t36 -87t-36 -86q-37 -35 -87 -35q-51 0 -86 35 t-35 86zM516 561h381l-190 473zM829 1743q0 50 35 87q34 36 86 36q51 0 87 -36t36 -87t-36 -86q-37 -35 -87 -35q-52 0 -87 35q-34 34 -34 86z" />
<glyph unicode="&#xc5;" horiz-adv-x="1413" d="M74 31l592 1390q15 27 41 27q27 0 38 -27l594 -1390q4 -10 -2 -20q-6 -9 -16 -9h-168q-31 0 -43 29l-139 348h-529l-139 -348q-12 -29 -43 -29h-168q-10 0 -16 9q-6 10 -2 20zM498 1819q0 86 61 147q62 62 148 62t146 -62t60 -147q0 -87 -60 -147t-146 -60q-87 0 -148 60 t-61 147zM516 561h381l-190 473zM623 1819q0 -34 25 -58q26 -24 59 -24t57 24t24 58q0 33 -24 58q-24 26 -57 26q-36 0 -60 -26q-24 -25 -24 -58z" />
<glyph unicode="&#xc6;" horiz-adv-x="1771" d="M74 29l588 1376q12 29 43 29h913q11 0 21 -10t10 -21v-121q0 -11 -10 -21t-21 -10h-680v-452h522q13 0 22 -9t9 -22v-123q0 -12 -9 -21q-10 -10 -22 -10h-522v-430h680q12 0 21 -9q10 -10 10 -21v-123q0 -12 -10 -22q-9 -9 -21 -9h-860q-13 0 -22 9t-9 22v348h-278 l-150 -350q-12 -29 -43 -29h-164q-10 0 -16 9q-6 10 -2 20zM520 563h207v541z" />
<glyph unicode="&#xc7;" horiz-adv-x="1484" d="M123 719q0 101 20 191q22 98 73 196t129 176q75 75 203 124q126 48 283 48q307 0 510 -209q22 -22 -2 -43l-92 -92q-23 -18 -43 2q-68 66 -169 111q-102 45 -204 45q-123 0 -217 -45t-145 -108q-53 -66 -83 -144q-32 -85 -41 -142q-9 -60 -9 -110q0 -51 9 -111 q8 -56 41 -140q30 -78 83 -143q51 -63 145 -108t217 -45q198 0 383 152q23 21 41 -5l84 -104q18 -25 -4 -47q-184 -167 -444 -184v-37h12q99 -4 147 -65q48 -60 42 -132q-7 -97 -74 -150t-154 -49q-87 5 -149 43q-25 19 -10 46l28 49q15 24 41 12q52 -23 90 -23q32 0 59 22 q24 20 29 50q6 44 -25 74q-32 30 -108 29h-2q-19 0 -35 10q-14 10 -14 28v93q-144 11 -257 61q-113 51 -184 126q-72 76 -119 171q-50 99 -67 189q-18 93 -18 188z" />
<glyph unicode="&#xc8;" horiz-adv-x="1269" d="M205 31v1372q0 12 9 21q10 10 22 10h880q12 0 22 -10q9 -9 9 -21v-123q0 -13 -9 -22t-22 -9h-702v-450h542q13 0 22 -9t9 -22v-123q0 -12 -9 -21q-10 -10 -22 -10h-542v-430h702q13 0 22 -9t9 -21v-123q0 -13 -9 -22t-22 -9h-880q-13 0 -22 9t-9 22zM444 1847l60 88 q19 24 43 7l266 -199q25 -19 8 -43l-41 -60q-16 -26 -43 -8l-282 174q-28 17 -11 41z" />
<glyph unicode="&#xc9;" horiz-adv-x="1269" d="M205 31v1372q0 12 9 21q10 10 22 10h880q12 0 22 -10q9 -9 9 -21v-123q0 -13 -9 -22t-22 -9h-702v-450h542q13 0 22 -9t9 -22v-123q0 -12 -9 -21q-10 -10 -22 -10h-542v-430h702q13 0 22 -9t9 -21v-123q0 -13 -9 -22t-22 -9h-880q-13 0 -22 9t-9 22zM444 1700 q-16 24 9 43l266 199q10 7 22 6q12 -2 19 -13l59 -88q8 -8 5 -21q-3 -14 -13 -20l-283 -174q-27 -18 -43 8z" />
<glyph unicode="&#xca;" horiz-adv-x="1269" d="M205 31v1372q0 12 9 21q10 10 22 10h880q12 0 22 -10q9 -9 9 -21v-123q0 -13 -9 -22t-22 -9h-702v-450h542q13 0 22 -9t9 -22v-123q0 -12 -9 -21q-10 -10 -22 -10h-542v-430h702q13 0 22 -9t9 -21v-123q0 -13 -9 -22t-22 -9h-880q-13 0 -22 9t-9 22zM334 1698 q-17 24 8 43l266 198q24 18 49 0l267 -198q25 -19 8 -43l-41 -60q-16 -26 -43 -8l-215 131l-215 -131q-27 -18 -43 8z" />
<glyph unicode="&#xcb;" horiz-adv-x="1269" d="M205 31v1372q0 12 9 21q10 10 22 10h880q12 0 22 -10q9 -9 9 -21v-123q0 -13 -9 -22t-22 -9h-702v-450h542q13 0 22 -9t9 -22v-123q0 -12 -9 -21q-10 -10 -22 -10h-542v-430h702q13 0 22 -9t9 -21v-123q0 -13 -9 -22t-22 -9h-880q-13 0 -22 9t-9 22zM299 1743q0 50 35 87 q34 36 86 36q51 0 87 -36t36 -87t-36 -86q-37 -35 -87 -35q-51 0 -86 35t-35 86zM788 1743q0 50 35 87q35 36 86 36t87 -36t36 -87t-36 -86q-37 -35 -87 -35q-52 0 -87 35q-34 34 -34 86z" />
<glyph unicode="&#xcc;" horiz-adv-x="491" d="M57 1847l60 88q19 24 43 7l266 -199q25 -19 8 -43l-41 -60q-16 -26 -43 -8l-282 174q-28 17 -11 41zM139 31v1372q0 12 9 21q10 10 22 10h149q12 0 22 -10q9 -9 9 -21v-1372q0 -13 -9 -22t-22 -9h-149q-13 0 -22 9t-9 22z" />
<glyph unicode="&#xcd;" horiz-adv-x="491" d="M57 1700q-16 24 9 43l266 199q10 7 22 6q12 -2 19 -13l59 -88q8 -8 5 -21q-3 -14 -13 -20l-283 -174q-27 -18 -43 8zM139 31v1372q0 12 9 21q10 10 22 10h149q12 0 22 -10q9 -9 9 -21v-1372q0 -13 -9 -22t-22 -9h-149q-13 0 -22 9t-9 22z" />
<glyph unicode="&#xce;" horiz-adv-x="630" d="M16 1698q-16 24 9 43l266 198q25 18 49 0l266 -198q25 -19 8 -43l-41 -60q-16 -26 -43 -8l-215 131l-215 -131q-27 -18 -43 8zM209 31v1372q0 12 9 21q10 10 22 10h149q12 0 22 -10q9 -9 9 -21v-1372q0 -13 -9 -22t-22 -9h-149q-13 0 -22 9t-9 22z" />
<glyph unicode="&#xcf;" horiz-adv-x="733" d="M4 1712q-8 31 0 62q10 40 42 66t75 26q51 0 87 -36t36 -87t-36 -86q-37 -35 -87 -35q-45 0 -76 25q-30 24 -41 65zM260 31v1372q0 12 9 21q10 10 22 10h149q12 0 22 -10q9 -9 9 -21v-1372q0 -13 -9 -22t-22 -9h-149q-13 0 -22 9t-9 22zM489 1743q0 50 35 87q34 36 86 36 q51 0 87 -36t36 -87t-36 -86q-37 -35 -87 -35q-52 0 -87 35q-34 34 -34 86z" />
<glyph unicode="&#xd0;" horiz-adv-x="1505" d="M61 662v92q0 11 10 21q9 9 21 9h84v619q0 12 9 21q10 10 22 10h467q158 0 283 -46q126 -46 203 -119q76 -71 129 -170q51 -96 73 -191q20 -89 20 -189q0 -104 -20 -194q-21 -95 -72 -191q-52 -99 -130 -169q-80 -73 -204 -119q-123 -46 -282 -46h-467q-13 0 -22 9t-9 22 v600h-84q-12 0 -21 9q-10 10 -10 22zM387 184h287q124 0 217 43q95 43 144 105q52 65 82 140q33 82 41 137q9 58 9 110q0 51 -9 109q-9 56 -41 138q-30 76 -82 139q-49 59 -144 103q-93 43 -217 43h-287v-467h344q13 0 22 -9t9 -21v-92q0 -13 -9 -22t-22 -9h-344v-447z" />
<glyph unicode="&#xd1;" horiz-adv-x="1570" d="M205 31v1396q0 21 18 21q19 0 33 -14l899 -959v928q0 12 9 21q10 10 22 10h149q12 0 22 -10q9 -9 9 -21v-1395q0 -18 -18 -18q-20 0 -31 14l-899 965l-2 -938q0 -13 -9 -22t-22 -9h-149q-13 0 -22 9t-9 22zM471 1688q57 155 205 155q57 0 116 -40t93 -40q50 0 90 54 q18 27 43 12l63 -33q28 -15 13 -43q-74 -141 -213 -141q-46 0 -107 40t-100 40q-56 0 -90 -60q-15 -27 -43 -12l-54 25q-26 15 -16 43z" />
<glyph unicode="&#xd2;" horiz-adv-x="1662" d="M123 719q0 101 20 191q22 98 73 196t129 176q75 75 203 124q126 48 283 48q158 0 284 -48q128 -49 203 -124q78 -78 129 -176t73 -196q20 -90 20 -191q0 -103 -20 -196q-21 -98 -73 -196q-53 -99 -129 -174t-203 -123q-126 -48 -284 -48q-157 0 -283 48q-127 48 -203 123 q-77 75 -129 174q-52 98 -73 196q-20 93 -20 196zM336 719q0 -51 9 -111q8 -55 41 -141q31 -80 83 -145q53 -65 145 -109q94 -45 217 -45t218 45q93 44 144 109q52 66 82 145q33 86 41 141q9 60 9 111q0 50 -9 110q-9 57 -41 142q-29 77 -82 144q-49 63 -144 108 q-94 45 -218 45q-123 0 -217 -45t-145 -108q-53 -66 -83 -144q-32 -85 -41 -142q-9 -60 -9 -110zM643 1847l59 88q19 24 43 7l267 -199q25 -19 8 -43l-41 -60q-16 -26 -43 -8l-283 174q-27 16 -10 41z" />
<glyph unicode="&#xd3;" horiz-adv-x="1662" d="M123 719q0 101 20 191q22 98 73 196t129 176q75 75 203 124q126 48 283 48q158 0 284 -48q128 -49 203 -124q78 -78 129 -176t73 -196q20 -90 20 -191q0 -103 -20 -196q-21 -98 -73 -196q-53 -99 -129 -174t-203 -123q-126 -48 -284 -48q-157 0 -283 48q-127 48 -203 123 q-77 75 -129 174q-52 98 -73 196q-20 93 -20 196zM336 719q0 -51 9 -111q8 -55 41 -141q31 -80 83 -145q53 -65 145 -109q94 -45 217 -45t218 45q93 44 144 109q52 66 82 145q33 86 41 141q9 60 9 111q0 50 -9 110q-9 57 -41 142q-29 77 -82 144q-49 63 -144 108 q-94 45 -218 45q-123 0 -217 -45t-145 -108q-53 -66 -83 -144q-32 -85 -41 -142q-9 -60 -9 -110zM643 1700q-17 24 8 43l267 199q24 17 43 -7l59 -88q17 -25 -10 -41l-283 -174q-27 -18 -43 8z" />
<glyph unicode="&#xd4;" horiz-adv-x="1662" d="M123 719q0 101 20 191q22 98 73 196t129 176q75 75 203 124q126 48 283 48q158 0 284 -48q128 -49 203 -124q78 -78 129 -176t73 -196q20 -90 20 -191q0 -103 -20 -196q-21 -98 -73 -196q-53 -99 -129 -174t-203 -123q-126 -48 -284 -48q-157 0 -283 48q-127 48 -203 123 q-77 75 -129 174q-52 98 -73 196q-20 93 -20 196zM336 719q0 -51 9 -111q8 -55 41 -141q31 -80 83 -145q53 -65 145 -109q94 -45 217 -45t218 45q93 44 144 109q52 66 82 145q33 86 41 141q9 60 9 111q0 50 -9 110q-9 57 -41 142q-29 77 -82 144q-49 63 -144 108 q-94 45 -218 45q-123 0 -217 -45t-145 -108q-53 -66 -83 -144q-32 -85 -41 -142q-9 -60 -9 -110zM532 1698q-16 24 9 43l266 198q25 18 49 0l266 -198q25 -19 8 -43l-40 -60q-16 -26 -43 -8l-216 131l-215 -131q-27 -18 -43 8z" />
<glyph unicode="&#xd5;" horiz-adv-x="1662" d="M123 719q0 101 20 191q22 98 73 196t129 176q75 75 203 124q126 48 283 48q158 0 284 -48q128 -49 203 -124q78 -78 129 -176t73 -196q20 -90 20 -191q0 -103 -20 -196q-21 -98 -73 -196q-53 -99 -129 -174t-203 -123q-126 -48 -284 -48q-157 0 -283 48q-127 48 -203 123 q-77 75 -129 174q-52 98 -73 196q-20 93 -20 196zM336 719q0 -51 9 -111q8 -55 41 -141q31 -80 83 -145q53 -65 145 -109q94 -45 217 -45t218 45q93 44 144 109q52 66 82 145q33 86 41 141q9 60 9 111q0 50 -9 110q-9 57 -41 142q-29 77 -82 144q-49 63 -144 108 q-94 45 -218 45q-123 0 -217 -45t-145 -108q-53 -66 -83 -144q-32 -85 -41 -142q-9 -60 -9 -110zM518 1688q57 155 205 155q57 0 116 -40t93 -40q50 0 90 54q18 27 43 12l63 -33q28 -15 13 -43q-73 -141 -213 -141q-49 0 -108 40t-99 40q-55 0 -90 -60q-15 -27 -43 -12 l-53 25q-27 15 -17 43z" />
<glyph unicode="&#xd6;" horiz-adv-x="1662" d="M123 719q0 101 20 191q22 98 73 196t129 176q75 75 203 124q126 48 283 48q158 0 284 -48q128 -49 203 -124q78 -78 129 -176t73 -196q20 -90 20 -191q0 -103 -20 -196q-21 -98 -73 -196q-53 -99 -129 -174t-203 -123q-126 -48 -284 -48q-157 0 -283 48q-127 48 -203 123 q-77 75 -129 174q-52 98 -73 196q-20 93 -20 196zM336 719q0 -51 9 -111q8 -55 41 -141q31 -80 83 -145q53 -65 145 -109q94 -45 217 -45t218 45q93 44 144 109q52 66 82 145q33 86 41 141q9 60 9 111q0 50 -9 110q-9 57 -41 142q-29 77 -82 144q-49 63 -144 108 q-94 45 -218 45q-123 0 -217 -45t-145 -108q-53 -66 -83 -144q-32 -85 -41 -142q-9 -60 -9 -110zM465 1743q0 50 35 87q34 36 86 36q51 0 87 -36t36 -87t-36 -86q-37 -35 -87 -35q-52 0 -87 35q-34 34 -34 86zM954 1743q0 50 35 87q35 36 86 36t87 -36t36 -87t-36 -86 q-37 -35 -87 -35q-51 0 -86 35t-35 86z" />
<glyph unicode="&#xd7;" horiz-adv-x="1087" d="M227 150q-23 22 0 45l207 206l-207 209q-23 22 0 45l64 64q23 23 45 0l207 -207l209 207q22 23 45 0l63 -64q22 -23 0 -45l-207 -209l207 -206q22 -23 0 -45l-63 -64q-23 -22 -45 0l-209 207l-207 -207q-22 -22 -45 0z" />
<glyph unicode="&#xd8;" horiz-adv-x="1662" d="M123 719q0 101 20 191q22 98 73 196t129 176q75 75 203 124q126 48 283 48q241 0 408 -113l113 134q23 24 43 4l61 -49q25 -22 4 -46l-112 -135q98 -106 145 -249q47 -144 47 -281q0 -103 -20 -196q-21 -98 -73 -196q-53 -99 -129 -174t-203 -123q-126 -48 -284 -48 q-265 0 -440 131l-82 -101q-23 -23 -45 -2l-61 49q-23 23 -2 43l90 109q-168 205 -168 508zM336 719q0 -193 94 -342l680 811q-119 80 -279 80q-123 0 -217 -45t-145 -108q-53 -66 -83 -144q-32 -85 -41 -142q-9 -60 -9 -110zM522 268q124 -100 309 -100q123 0 218 45 q93 44 144 109q52 66 82 145q33 86 41 141q9 60 9 111q0 209 -115 368z" />
<glyph unicode="&#xd9;" horiz-adv-x="1484" d="M184 545v858q0 11 10 21t21 10h147q12 0 22 -10q9 -9 9 -21v-858q0 -35 9 -78q8 -38 34 -97q25 -56 62 -99t100 -73t143 -30q81 0 144 30q64 30 99 73q35 42 60 99q26 59 34 97q9 43 9 78v858q0 11 10 21t21 10h152q11 0 21 -10q9 -9 9 -21v-858q0 -97 -30 -190 q-30 -92 -93 -178q-63 -85 -176 -138q-114 -53 -260 -53t-260 53q-112 52 -175 138q-62 83 -92 178q-30 93 -30 190zM532 1847l60 88q19 24 43 7l266 -199q25 -19 8 -43l-41 -60q-16 -26 -43 -8l-282 174q-28 17 -11 41z" />
<glyph unicode="&#xda;" horiz-adv-x="1484" d="M184 545v858q0 11 10 21t21 10h147q12 0 22 -10q9 -9 9 -21v-858q0 -35 9 -78q8 -38 34 -97q25 -56 62 -99t100 -73t143 -30q81 0 144 30q64 30 99 73q35 42 60 99q26 59 34 97q9 43 9 78v858q0 11 10 21t21 10h152q11 0 21 -10q9 -9 9 -21v-858q0 -97 -30 -190 q-30 -92 -93 -178q-63 -85 -176 -138q-114 -53 -260 -53t-260 53q-112 52 -175 138q-62 83 -92 178q-30 93 -30 190zM553 1700q-17 24 8 43l266 199q11 8 23 6q11 -1 18 -13l60 -88q8 -8 5 -21q-3 -14 -13 -20l-283 -174q-27 -18 -43 8z" />
<glyph unicode="&#xdb;" horiz-adv-x="1484" d="M184 545v858q0 11 10 21t21 10h147q12 0 22 -10q9 -9 9 -21v-858q0 -35 9 -78q8 -38 34 -97q25 -56 62 -99t100 -73t143 -30q81 0 144 30q64 30 99 73q35 42 60 99q26 59 34 97q9 43 9 78v858q0 11 10 21t21 10h152q11 0 21 -10q9 -9 9 -21v-858q0 -97 -30 -190 q-30 -92 -93 -178q-63 -85 -176 -138q-114 -53 -260 -53t-260 53q-112 52 -175 138q-62 83 -92 178q-30 93 -30 190zM442 1698q-16 24 9 43l266 198q25 18 49 0l266 -198q25 -19 8 -43l-41 -60q-16 -26 -43 -8l-215 131l-215 -131q-27 -18 -43 8z" />
<glyph unicode="&#xdc;" horiz-adv-x="1484" d="M184 545v858q0 11 10 21t21 10h147q12 0 22 -10q9 -9 9 -21v-858q0 -35 9 -78q8 -38 34 -97q25 -56 62 -99t100 -73t143 -30q81 0 144 30q64 30 99 73q35 42 60 99q26 59 34 97q9 43 9 78v858q0 11 10 21t21 10h152q11 0 21 -10q9 -9 9 -21v-858q0 -97 -30 -190 q-30 -92 -93 -178q-63 -85 -176 -138q-114 -53 -260 -53t-260 53q-112 52 -175 138q-62 83 -92 178q-30 93 -30 190zM375 1743q0 50 35 87q34 36 86 36q51 0 87 -36q35 -35 35 -87t-35 -86q-37 -35 -87 -35q-52 0 -87 35q-34 34 -34 86zM864 1743q0 50 35 87q35 36 86 36 t87 -36t36 -87t-36 -86q-37 -35 -87 -35q-51 0 -86 35t-35 86z" />
<glyph unicode="&#xdd;" horiz-adv-x="1302" d="M77 1425q5 9 15 9h174q30 0 47 -27l336 -555l338 555q17 27 47 27h176q11 0 16 -9q5 -8 -1 -18l-469 -758v-618q0 -12 -10 -22q-9 -9 -21 -9h-150q-12 0 -21 9t-9 22v614l-467 762q-6 10 -1 18zM463 1700q-17 24 8 43l266 199q11 8 23 6q11 -1 18 -13l60 -88q8 -8 5 -21 q-3 -14 -14 -20l-282 -174q-27 -18 -43 8z" />
<glyph unicode="&#xde;" horiz-adv-x="1294" d="M205 31v1372q0 12 9 21q10 10 22 10h143q11 0 21 -10t10 -21v-164h252q138 0 243 -51q104 -50 160 -134q55 -82 81 -169q25 -84 25 -174t-25 -174q-26 -87 -81 -169q-57 -85 -160 -135q-105 -51 -243 -51h-252v-151q0 -12 -10 -22q-9 -9 -21 -9h-143q-13 0 -22 9t-9 22z M410 352h235q95 0 163 40t101 102q32 60 46 114t14 103q0 48 -14 102q-14 56 -46 115q-33 61 -101 101t-163 40l-235 2v-719z" />
<glyph unicode="&#xdf;" horiz-adv-x="1318" d="M205 -113v1135q0 97 28 172q28 74 76 118q45 40 94 69q48 28 102 37q13 2 31 5.5t29 5t18 2.5q24 3 40 3q125 0 218 -41q90 -40 135 -105q44 -63 63 -123q20 -62 20 -114q0 -85 -34 -147t-69 -100q-34 -37 -34 -63q0 -33 26 -68q30 -40 61 -67q33 -28 65 -90 q32 -61 38 -129q10 -179 -121 -294q-129 -113 -391 -113h-10q-13 0 -22 9t-9 21v111q0 12 9 21q10 10 22 10h31q156 0 220 68t56 167q-6 47 -42 98q-35 50 -74 87q-36 34 -64 83q-27 46 -19 93q6 34 35 72q30 39 58 66q29 27 51 72q22 43 20 95q0 12 -1 21q-2 17 -11 47 q-11 35 -31 61q-22 28 -66 48q-47 21 -110 21q-85 0 -156 -49q-72 -49 -73 -176v-1139q0 -11 -10 -21q-9 -9 -21 -9h-147q-13 0 -22 9t-9 21z" />
<glyph unicode="&#xe0;" horiz-adv-x="1097" d="M123 291q0 81 28 146q26 62 77 97q43 30 108 54q52 19 132 24q63 4 133 2q47 -1 128 -10v23q0 147 -45 194t-156 47q-102 0 -249 -53q-31 -12 -41 16l-35 84q-15 26 14 43q148 70 299 80q115 6 193 -16t122 -60q42 -36 67 -102q24 -62 30 -117q6 -53 6 -131v-581 q0 -13 -9 -22t-22 -9h-61q-31 0 -39 29l-25 77q-59 -59 -140 -92q-79 -32 -155 -32q-90 0 -156 23q-71 25 -106 57t-60 79q-23 43 -31 81q-7 34 -7 69zM313 307q0 -76 51 -121q49 -43 125 -43q81 0 145 45q65 45 95 101v157q-416 51 -416 -139zM360 1438l60 88q18 23 43 6 l266 -199q25 -19 8 -43l-41 -59q-16 -26 -43 -8l-282 174q-28 17 -11 41z" />
<glyph unicode="&#xe1;" horiz-adv-x="1097" d="M123 291q0 81 28 146q26 62 77 97q43 30 108 54q52 19 132 24q63 4 133 2q47 -1 128 -10v23q0 147 -45 194t-156 47q-102 0 -249 -53q-31 -12 -41 16l-35 84q-15 26 14 43q148 70 299 80q115 6 193 -16t122 -60q42 -36 67 -102q24 -62 30 -117q6 -53 6 -131v-581 q0 -13 -9 -22t-22 -9h-61q-31 0 -39 29l-25 77q-59 -59 -140 -92q-79 -32 -155 -32q-90 0 -156 23q-71 25 -106 57t-60 79q-23 43 -31 81q-7 34 -7 69zM313 307q0 -76 51 -121q49 -43 125 -43q81 0 145 45q65 45 95 101v157q-416 51 -416 -139zM360 1290q-16 24 9 43 l266 199q10 7 22 6q13 -2 19 -12l59 -88q8 -8 5 -22q-3 -13 -13 -19l-283 -174q-27 -18 -43 8z" />
<glyph unicode="&#xe2;" horiz-adv-x="1097" d="M123 291q0 81 28 146q26 62 77 97q43 30 108 54q52 19 132 24q63 4 133 2q47 -1 128 -10v23q0 147 -45 194t-156 47q-102 0 -249 -53q-31 -12 -41 16l-35 84q-15 26 14 43q148 70 299 80q115 6 193 -16t122 -60q42 -36 67 -102q24 -62 30 -117q6 -53 6 -131v-581 q0 -13 -9 -22t-22 -9h-61q-31 0 -39 29l-25 77q-59 -59 -140 -92q-79 -32 -155 -32q-90 0 -156 23q-71 25 -106 57t-60 79q-23 43 -31 81q-7 34 -7 69zM250 1288q-17 24 8 43l266 199q24 18 49 0l267 -199q25 -19 8 -43l-41 -59q-16 -26 -43 -8l-215 131l-215 -131 q-27 -18 -43 8zM313 307q0 -76 51 -121q49 -43 125 -43q81 0 145 45q65 45 95 101v157q-416 51 -416 -139z" />
<glyph unicode="&#xe3;" horiz-adv-x="1097" d="M123 291q0 81 28 146q26 62 77 97q43 30 108 54q52 19 132 24q63 4 133 2q47 -1 128 -10v23q0 147 -45 194t-156 47q-102 0 -249 -53q-31 -12 -41 16l-35 84q-15 26 14 43q148 70 299 80q115 6 193 -16t122 -60q42 -36 67 -102q24 -62 30 -117q6 -53 6 -131v-581 q0 -13 -9 -22t-22 -9h-61q-31 0 -39 29l-25 77q-59 -59 -140 -92q-79 -32 -155 -32q-90 0 -156 23q-71 25 -106 57t-60 79q-23 43 -31 81q-7 34 -7 69zM236 1278q57 156 204 156q57 0 116 -40t93 -40q51 0 90 53q18 27 43 12l64 -33q27 -15 12 -43q-74 -141 -213 -141 q-47 0 -106 40t-101 40q-56 0 -90 -59q-15 -28 -43 -13l-53 25q-26 15 -16 43zM313 307q0 -76 51 -121q49 -43 125 -43q81 0 145 45q65 45 95 101v157q-416 51 -416 -139z" />
<glyph unicode="&#xe4;" horiz-adv-x="1097" d="M123 291q0 81 28 146q26 62 77 97q43 30 108 54q52 19 132 24q63 4 133 2q47 -1 128 -10v23q0 147 -45 194t-156 47q-102 0 -249 -53q-31 -12 -41 16l-35 84q-15 26 14 43q148 70 299 80q115 6 193 -16t122 -60q42 -36 67 -102q24 -62 30 -117q6 -53 6 -131v-581 q0 -13 -9 -22t-22 -9h-61q-31 0 -39 29l-25 77q-59 -59 -140 -92q-79 -32 -155 -32q-90 0 -156 23q-71 25 -106 57t-60 79q-23 43 -31 81q-7 34 -7 69zM182 1333q0 50 35 87q35 36 86 36t87 -36t36 -87t-36 -86q-37 -35 -87 -35q-52 0 -87 35q-34 34 -34 86zM313 307 q0 -76 51 -121q49 -43 125 -43q81 0 145 45q65 45 95 101v157q-416 51 -416 -139zM672 1333q0 50 35 87q35 36 86 36t87 -36q35 -35 35 -87t-35 -86q-37 -35 -87 -35q-51 0 -86 35t-35 86z" />
<glyph unicode="&#xe5;" horiz-adv-x="1097" d="M123 291q0 81 28 146q26 62 77 97q43 30 108 54q52 19 132 24q63 4 133 2q47 -1 128 -10v23q0 147 -45 194t-156 47q-102 0 -249 -53q-31 -12 -41 16l-35 84q-15 26 14 43q148 70 299 80q115 6 193 -16t122 -60q42 -36 67 -102q24 -62 30 -117q6 -53 6 -131v-581 q0 -13 -9 -22t-22 -9h-61q-31 0 -39 29l-25 77q-59 -59 -140 -92q-79 -32 -155 -32q-90 0 -156 23q-71 25 -106 57t-60 79q-23 43 -31 81q-7 34 -7 69zM313 307q0 -76 51 -121q49 -43 125 -43q81 0 145 45q65 45 95 101v157q-416 51 -416 -139zM340 1409q0 86 61 147 q62 62 148 62t146 -62q61 -63 61 -147q0 -85 -61 -146t-146 -61t-148 61q-61 60 -61 146zM465 1409q0 -33 25 -57q27 -25 59 -25t57 25t25 57q0 31 -25 58q-24 26 -57 26t-59 -26q-25 -25 -25 -58z" />
<glyph unicode="&#xe6;" horiz-adv-x="1705" d="M123 291q0 375 571 315q6 50 27 117q-12 88 -56 117q-43 28 -137 28q-102 0 -249 -53q-31 -12 -41 16l-35 84q-15 26 14 43q148 70 299 80q244 15 340 -106q134 117 342 117q223 0 332 -151q108 -151 74 -396q-5 -31 -35 -31h-676q6 -52 22 -97q16 -44 49 -98 q31 -51 92 -81q62 -31 142 -31q161 0 281 98q23 18 43 -2l67 -82q22 -22 -2 -43q-167 -147 -389 -147q-245 0 -381 155q-10 -10 -19 -18t-20 -19q-59 -59 -140 -92q-79 -32 -155 -32q-90 0 -156 23q-71 25 -106 57t-60 79q-23 43 -31 81q-7 34 -7 69zM313 307q0 -76 51 -121 q49 -43 125 -43q81 0 145 45q65 45 95 101q-26 66 -37 162q-379 43 -379 -144zM901 623h516q15 93 -38 172q-53 78 -181 84q-236 0 -297 -256z" />
<glyph unicode="&#xe7;" horiz-adv-x="1142" d="M123 520q0 90 25 175q26 88 81 170q56 84 160 134q107 52 244 52q216 0 366 -156q22 -22 -2 -43l-92 -84q-21 -21 -45 0q-99 90 -227 90q-125 0 -215 -90t-90 -248q0 -142 80 -251q79 -107 221 -107q131 0 237 96q22 22 43 0l76 -86q22 -22 -2 -45q-134 -133 -303 -145 v-35h12q99 -4 147 -65q48 -60 42 -132q-7 -97 -74 -150t-154 -49q-87 5 -149 43q-25 19 -10 46l28 49q15 24 41 12q52 -23 90 -23q32 0 59 22q24 20 29 50q6 44 -25 74q-32 30 -108 29h-2q-19 0 -35 10q-14 10 -14 28v93q-100 10 -178 48q-77 37 -125 91q-49 55 -78 124 q-30 71 -42 136q-11 60 -11 137z" />
<glyph unicode="&#xe8;" horiz-adv-x="1110" d="M92 520q0 87 26 174t81 169q57 84 159 134q107 52 244 52q223 0 332 -151q108 -151 74 -396q-5 -31 -35 -31h-676q6 -52 22 -97q16 -44 49 -98q31 -51 92 -81q62 -31 142 -31q161 0 281 98q23 18 43 -2l67 -82q22 -22 -2 -43q-167 -147 -389 -147q-139 0 -244 51 q-102 50 -159 134q-55 82 -81 170q-26 89 -26 177zM305 623h516q15 93 -38 172q-53 78 -181 84q-236 0 -297 -256zM367 1438l59 88q18 23 43 6l266 -199q25 -19 8 -43l-41 -59q-16 -26 -43 -8l-282 174q-27 16 -10 41z" />
<glyph unicode="&#xe9;" horiz-adv-x="1110" d="M92 520q0 87 26 174t81 169q57 84 159 134q107 52 244 52q223 0 332 -151q108 -151 74 -396q-5 -31 -35 -31h-676q6 -52 22 -97q16 -44 49 -98q31 -51 92 -81q62 -31 142 -31q161 0 281 98q23 18 43 -2l67 -82q22 -22 -2 -43q-167 -147 -389 -147q-139 0 -244 51 q-102 50 -159 134q-55 82 -81 170q-26 89 -26 177zM305 623h516q15 93 -38 172q-53 78 -181 84q-236 0 -297 -256zM367 1290q-17 24 8 43l266 199q25 17 43 -6l59 -88q17 -25 -10 -41l-282 -174q-27 -18 -43 8z" />
<glyph unicode="&#xea;" horiz-adv-x="1110" d="M92 520q0 87 26 174t81 169q57 84 159 134q107 52 244 52q223 0 332 -151q108 -151 74 -396q-5 -31 -35 -31h-676q6 -52 22 -97q16 -44 49 -98q31 -51 92 -81q62 -31 142 -31q161 0 281 98q23 18 43 -2l67 -82q22 -22 -2 -43q-167 -147 -389 -147q-139 0 -244 51 q-102 50 -159 134q-55 82 -81 170q-26 89 -26 177zM289 1288q-17 24 8 43l266 199q25 18 49 0l267 -199q25 -19 8 -43l-41 -59q-16 -26 -43 -8l-215 131l-215 -131q-27 -18 -43 8zM305 623h516q15 93 -38 172q-53 78 -181 84q-236 0 -297 -256z" />
<glyph unicode="&#xeb;" horiz-adv-x="1110" d="M92 520q0 87 26 174t81 169q57 84 159 134q107 52 244 52q223 0 332 -151q108 -151 74 -396q-5 -31 -35 -31h-676q6 -52 22 -97q16 -44 49 -98q31 -51 92 -81q62 -31 142 -31q161 0 281 98q23 18 43 -2l67 -82q22 -22 -2 -43q-167 -147 -389 -147q-139 0 -244 51 q-102 50 -159 134q-55 82 -81 170q-26 89 -26 177zM223 1333q0 50 35 87q34 36 86 36q51 0 87 -36t36 -87t-36 -86q-37 -35 -87 -35q-52 0 -87 35q-34 34 -34 86zM305 623h516q15 93 -38 172q-53 78 -181 84q-236 0 -297 -256zM713 1333q0 50 35 87q34 36 86 36q51 0 87 -36 q35 -35 35 -87t-35 -86q-37 -35 -87 -35q-51 0 -86 35t-35 86z" />
<glyph unicode="&#xec;" horiz-adv-x="491" d="M57 1438l60 88q18 23 43 6l266 -199q25 -19 8 -43l-41 -59q-16 -26 -43 -8l-282 174q-28 17 -11 41zM141 29v964q0 12 10 22q9 9 21 9h143q13 0 22 -9t9 -22v-964q0 -13 -9 -22t-22 -9h-143q-12 0 -21 9q-10 10 -10 22z" />
<glyph unicode="&#xed;" horiz-adv-x="491" d="M57 1290q-16 24 9 43l266 199q10 7 22 6q13 -2 19 -12l59 -88q8 -8 5 -22q-3 -13 -13 -19l-283 -174q-27 -18 -43 8zM141 31v964q0 12 10 22q9 9 21 9h143q13 0 22 -9t9 -22v-964q0 -13 -9 -22t-22 -9h-143q-12 0 -21 9q-10 10 -10 22z" />
<glyph unicode="&#xee;" horiz-adv-x="630" d="M16 1288q-16 24 9 43l266 199q25 18 49 0l266 -199q25 -19 8 -43l-41 -59q-16 -26 -43 -8l-215 131l-215 -131q-27 -18 -43 8zM207 31v962q0 13 9 22t22 9h143q12 0 21 -9q10 -10 10 -22v-962q0 -12 -10 -22q-9 -9 -21 -9h-143q-13 0 -22 9t-9 22z" />
<glyph unicode="&#xef;" horiz-adv-x="733" d="M0 1333q0 50 35 87q34 36 86 36q51 0 87 -36t36 -87t-36 -86q-37 -35 -87 -35q-51 0 -86 35t-35 86zM262 31v962q0 13 9 22t22 9h143q13 0 22 -9t9 -22v-962q0 -13 -9 -22t-22 -9h-143q-13 0 -22 9t-9 22zM494 1303q-11 31 0 61q11 42 42 67t74 25q51 0 87 -36t36 -87 t-36 -86q-37 -35 -87 -35q-44 0 -75 25q-30 24 -41 66z" />
<glyph unicode="&#xf0;" horiz-adv-x="1196" d="M123 434q0 77 20 146q21 72 70 146q49 75 148 121q98 46 237 46q53 0 122 -24t99 -54q-57 161 -172 287l-84 -84q-22 -21 -45 2l-63 63q-22 22 0 43l82 82q-76 56 -127 90q-28 17 -11 41l60 86q15 29 43 13q73 -42 157 -107l97 96q22 23 45 0l63 -63q22 -22 0 -45 l-90 -90q304 -313 297 -795q0 -50 -12 -102q-13 -55 -45 -117q-33 -63 -83 -113q-48 -48 -136 -82q-83 -32 -197 -32q-113 0 -197 34q-88 36 -137 83q-49 48 -84 114q-33 63 -45 116t-12 99zM322 446q0 -115 73 -198q73 -84 203 -84t202 84t72 198q-5 118 -74 198 q-70 81 -200 81q-132 0 -204 -83q-72 -82 -72 -196z" />
<glyph unicode="&#xf1;" horiz-adv-x="1185" d="M164 31v962q0 13 9 22t22 9h61q30 0 41 -29l25 -75q126 120 309 120q133 0 226 -44q90 -43 133 -125q44 -85 58 -159q15 -80 15 -184v-497q0 -13 -9 -22t-22 -9h-145q-13 0 -22 9t-9 22v497q0 1 -0.5 7t-1 19t-0.5 26q-1 39 -5 73q-3 26 -18 73q-16 49 -36 73 q-22 27 -68 48q-45 21 -106 21q-85 0 -152 -40q-68 -41 -100 -95v-702q0 -12 -10 -22q-9 -9 -21 -9h-143q-13 0 -22 9t-9 22zM279 1278q57 156 204 156q57 0 116 -40t93 -40q51 0 90 53q18 27 43 12l64 -33q27 -15 12 -43q-73 -141 -213 -141q-45 0 -106 40t-101 40 q-56 0 -90 -59q-15 -28 -43 -13l-53 25q-26 15 -16 43z" />
<glyph unicode="&#xf2;" horiz-adv-x="1265" d="M123 512q0 90 25 174q26 87 81 169q56 84 160 134q105 51 244 51t244 -51q102 -50 159 -134q55 -82 81 -169t26 -174q0 -88 -26 -177q-25 -86 -81 -169q-56 -84 -159 -132q-106 -50 -244 -50t-244 50q-104 49 -160 132t-81 169q-25 85 -25 177zM326 512q0 -49 11 -96 q13 -55 40 -115q28 -63 95 -105q66 -42 161 -42t161 42q67 42 95 105q27 60 40 115q11 47 11 96t-11 96q-13 55 -40 115q-28 63 -95 105q-66 42 -161 42t-161 -42q-67 -42 -95 -105q-27 -60 -40 -115q-11 -47 -11 -96zM410 1438l59 88q18 23 43 6l266 -199q25 -19 8 -43 l-41 -59q-16 -26 -43 -8l-282 174q-27 16 -10 41z" />
<glyph unicode="&#xf3;" horiz-adv-x="1265" d="M123 512q0 90 25 174q26 87 81 169q56 84 160 134q105 51 244 51t244 -51q102 -50 159 -134q55 -82 81 -169t26 -174q0 -88 -26 -177q-25 -86 -81 -169q-56 -84 -159 -132q-106 -50 -244 -50t-244 50q-104 49 -160 132t-81 169q-25 85 -25 177zM326 512q0 -49 11 -96 q13 -55 40 -115q28 -63 95 -105q66 -42 161 -42t161 42q67 42 95 105q27 60 40 115q11 47 11 96t-11 96q-13 55 -40 115q-28 63 -95 105q-66 42 -161 42t-161 -42q-67 -42 -95 -105q-27 -60 -40 -115q-11 -47 -11 -96zM410 1290q-17 24 8 43l266 199q25 17 43 -6l59 -88 q17 -25 -10 -41l-282 -174q-27 -18 -43 8z" />
<glyph unicode="&#xf4;" horiz-adv-x="1265" d="M123 512q0 90 25 174q26 87 81 169q56 84 160 134q105 51 244 51t244 -51q102 -50 159 -134q55 -82 81 -169t26 -174q0 -88 -26 -177q-25 -86 -81 -169q-56 -84 -159 -132q-106 -50 -244 -50t-244 50q-104 49 -160 132t-81 169q-25 85 -25 177zM326 512q0 -49 11 -96 q13 -55 40 -115q28 -63 95 -105q66 -42 161 -42t161 42q67 42 95 105q27 60 40 115q11 47 11 96t-11 96q-13 55 -40 115q-28 63 -95 105q-66 42 -161 42t-161 -42q-67 -42 -95 -105q-27 -60 -40 -115q-11 -47 -11 -96zM334 1288q-17 24 8 43l266 199q24 18 49 0l267 -199 q25 -19 8 -43l-41 -59q-16 -26 -43 -8l-215 131l-215 -131q-27 -18 -43 8z" />
<glyph unicode="&#xf5;" horiz-adv-x="1265" d="M123 512q0 90 25 174q26 87 81 169q56 84 160 134q105 51 244 51t244 -51q102 -50 159 -134q55 -82 81 -169t26 -174q0 -88 -26 -177q-25 -86 -81 -169q-56 -84 -159 -132q-106 -50 -244 -50t-244 50q-104 49 -160 132t-81 169q-25 85 -25 177zM319 1278q57 156 205 156 q57 0 116 -40t93 -40q51 0 90 53q18 27 43 12l64 -33q27 -15 12 -43q-74 -141 -213 -141q-45 0 -106 40t-101 40q-56 0 -90 -59q-15 -28 -43 -13l-53 25q-27 15 -17 43zM326 512q0 -49 11 -96q13 -55 40 -115q28 -63 95 -105q66 -42 161 -42t161 42q67 42 95 105 q27 60 40 115q11 47 11 96t-11 96q-13 55 -40 115q-28 63 -95 105q-66 42 -161 42t-161 -42q-67 -42 -95 -105q-27 -60 -40 -115q-11 -47 -11 -96z" />
<glyph unicode="&#xf6;" horiz-adv-x="1265" d="M123 512q0 90 25 174q26 87 81 169q56 84 160 134q105 51 244 51t244 -51q102 -50 159 -134q55 -82 81 -169t26 -174q0 -88 -26 -177q-25 -86 -81 -169q-56 -84 -159 -132q-106 -50 -244 -50t-244 50q-104 49 -160 132t-81 169q-25 85 -25 177zM266 1333q0 50 35 87 q34 36 86 36q51 0 87 -36t36 -87t-36 -86q-37 -35 -87 -35q-51 0 -86 35t-35 86zM326 512q0 -49 11 -96q13 -55 40 -115q28 -63 95 -105q66 -42 161 -42t161 42q67 42 95 105q27 60 40 115q11 47 11 96t-11 96q-13 55 -40 115q-28 63 -95 105q-66 42 -161 42t-161 -42 q-67 -42 -95 -105q-27 -60 -40 -115q-11 -47 -11 -96zM756 1333q0 50 35 87q35 36 86 36t87 -36q35 -35 35 -87t-35 -86q-37 -35 -87 -35q-52 0 -87 35q-34 34 -34 86z" />
<glyph unicode="&#xf7;" horiz-adv-x="944" d="M123 356v93q0 12 9 21t22 9h637q12 0 21 -9t9 -21v-93q0 -12 -9 -21t-21 -9h-637q-13 0 -22 9t-9 21zM365 709q0 47 30 77q31 31 76 31t77 -32t32 -76t-32 -78q-32 -33 -77 -33q-46 0 -76 33t-30 78zM369 94q-8 31 0 62q21 75 102 75q45 0 77 -30t32 -76q0 -44 -32 -78 q-32 -33 -77 -33q-79 0 -102 80z" />
<glyph unicode="&#xf8;" horiz-adv-x="1265" d="M123 512q0 90 25 174q26 87 81 169q56 84 160 134q105 51 244 51q158 0 270 -65l92 110q23 25 43 5l62 -50q25 -21 4 -45l-92 -110q131 -148 131 -373q0 -88 -26 -177q-25 -86 -81 -169q-56 -84 -159 -132q-106 -50 -244 -50q-181 0 -305 86l-64 -78q-23 -23 -45 -2 l-61 49q-22 23 -2 43l71 86q-104 143 -104 344zM326 512q0 -96 36 -182l422 501q-66 39 -151 39q-95 0 -161 -42q-67 -42 -95 -105q-27 -60 -40 -115q-11 -47 -11 -96zM449 213q71 -59 184 -59q95 0 161 42q67 42 95 105q27 60 40 115q11 47 11 96q0 123 -57 219z" />
<glyph unicode="&#xf9;" horiz-adv-x="1185" d="M123 496v497q0 13 9 22t22 9h145q13 0 22 -9t9 -22v-497q0 -1 0.5 -7t1 -19t0.5 -26q1 -39 5 -73q3 -31 17 -73q15 -47 37 -73q22 -27 68 -48q45 -21 106 -21q85 0 152 40q68 41 100 95v702q0 13 9 22t22 9h143q13 0 22 -9t9 -22v-962q0 -13 -9 -22t-22 -9h-61 q-30 0 -41 29l-25 75q-126 -120 -309 -120q-133 0 -226 44q-90 43 -133 125q-44 85 -58 159q-15 80 -15 184zM371 1438l59 88q18 23 43 6l266 -199q25 -19 9 -43l-41 -59q-16 -26 -43 -8l-283 174q-27 16 -10 41z" />
<glyph unicode="&#xfa;" horiz-adv-x="1185" d="M123 496v497q0 13 9 22t22 9h145q13 0 22 -9t9 -22v-497q0 -1 0.5 -7t1 -19t0.5 -26q1 -39 5 -73q3 -31 17 -73q15 -47 37 -73q22 -27 68 -48q45 -21 106 -21q85 0 152 40q68 41 100 95v702q0 13 9 22t22 9h143q13 0 22 -9t9 -22v-962q0 -13 -9 -22t-22 -9h-61 q-30 0 -41 29l-25 75q-126 -120 -309 -120q-133 0 -226 44q-90 43 -133 125q-44 85 -58 159q-15 80 -15 184zM395 1290q-17 24 8 43l267 199q25 17 43 -6l59 -88q17 -25 -10 -41l-283 -174q-27 -18 -43 8z" />
<glyph unicode="&#xfb;" horiz-adv-x="1185" d="M123 496v497q0 13 9 22t22 9h145q13 0 22 -9t9 -22v-497q0 -1 0.5 -7t1 -19t0.5 -26q1 -39 5 -73q3 -31 17 -73q15 -47 37 -73q22 -27 68 -48q45 -21 106 -21q85 0 152 40q68 41 100 95v702q0 13 9 22t22 9h143q13 0 22 -9t9 -22v-962q0 -13 -9 -22t-22 -9h-61 q-30 0 -41 29l-25 75q-126 -120 -309 -120q-133 0 -226 44q-90 43 -133 125q-44 85 -58 159q-15 80 -15 184zM293 1288q-17 24 8 43l266 199q25 18 49 0l267 -199q25 -19 8 -43l-41 -59q-16 -26 -43 -8l-215 131l-215 -131q-27 -18 -43 8z" />
<glyph unicode="&#xfc;" horiz-adv-x="1185" d="M123 496v528h207v-528q0 -1 0.5 -7t1 -19t0.5 -26q1 -39 5 -73q3 -31 17 -73q15 -47 37 -73q22 -27 68 -48q45 -21 106 -21q85 0 152 40q68 41 100 95v733h205v-1024h-123l-35 104q-126 -120 -309 -120q-133 0 -226 44q-90 43 -133 125q-44 85 -58 159q-15 80 -15 184z M207 1333q0 50 35 87q34 36 86 36q51 0 87 -36t36 -87t-36 -86q-37 -35 -87 -35q-52 0 -87 35q-34 34 -34 86zM696 1333q0 50 35 87q35 36 86 36t87 -36t36 -87t-36 -86q-37 -35 -87 -35q-51 0 -86 35t-35 86z" />
<glyph unicode="&#xfd;" horiz-adv-x="1177" d="M74 995q-4 10 2 20q6 9 16 9h162q28 0 43 -29l293 -710l284 710q15 29 44 29h167q11 0 17 -9q6 -10 2 -20l-582 -1374q-12 -29 -43 -29h-155q-10 0 -17 10q-6 9 -2 19l176 420zM401 1290q-16 24 9 43l266 199q10 7 22 6q13 -2 19 -12l59 -88q8 -8 5 -22q-3 -13 -13 -19 l-283 -174q-27 -18 -43 8z" />
<glyph unicode="&#xfe;" horiz-adv-x="1253" d="M164 -379v1782q0 12 9 21q10 10 22 10h143q11 0 21 -10t10 -21v-418q106 55 252 55q138 0 243 -51q104 -50 160 -134q55 -82 81 -169q25 -84 25 -174q0 -86 -24 -170q-23 -81 -76 -165q-52 -83 -149 -134q-100 -53 -230 -59h-61q-123 6 -221 55v-418q0 -11 -10 -21 t-21 -10h-143q-12 0 -22 10q-9 9 -9 21zM369 225q93 -71 235 -71q95 0 163 40t101 101q32 59 46 115q14 54 14 102t-14 102q-14 56 -46 115q-33 61 -101 101t-163 40q-142 0 -235 -71v-574z" />
<glyph unicode="&#xff;" horiz-adv-x="1159" d="M61 1012q0 12 11 12h172q28 0 43 -29l293 -710l284 710q15 29 43 29h178q13 0 13 -12q0 -10 -4 -21l-582 -1370q-12 -29 -43 -29h-168q-10 0 -10 11t4 22l176 416l-405 950q-5 13 -5 21zM231 1303q-11 31 0 61q11 42 42 67t75 25q51 0 87 -36t36 -87t-36 -86 q-37 -35 -87 -35q-45 0 -76 25q-30 24 -41 66zM717 1333q0 50 35 87q34 36 86 36q51 0 87 -36t36 -87t-36 -86q-37 -35 -87 -35q-51 0 -86 35t-35 86z" />
<glyph unicode="&#x152;" horiz-adv-x="2037" d="M123 719q0 101 20 191q22 99 73 195q52 98 129 175q75 75 203 124q126 48 283 48q99 0 183 -18h870q12 0 22 -10q9 -9 9 -21v-123q0 -13 -9 -22t-22 -9h-682v-450h520q13 0 22 -9t9 -22v-123q0 -12 -9 -21q-10 -10 -22 -10h-520v-430h682q13 0 22 -9t9 -21v-123 q0 -13 -9 -22t-22 -9h-868q-86 -18 -185 -18q-157 0 -283 48q-127 48 -203 123q-77 75 -129 174q-52 98 -73 196q-20 93 -20 196zM336 719q0 -51 9 -111q8 -55 41 -141q31 -80 83 -145q53 -65 145 -109q94 -45 217 -45q96 0 160 20v1055q-75 23 -160 23q-123 0 -217 -45 t-145 -108q-53 -65 -83 -143q-32 -83 -41 -141q-9 -60 -9 -110z" />
<glyph unicode="&#x153;" horiz-adv-x="1953" d="M123 512q0 90 25 174q26 87 81 169q56 84 160 134q105 51 244 51q268 0 403 -186q136 195 410 195q223 0 332 -151q108 -149 73 -396q-5 -31 -34 -31h-676q6 -52 22 -97q17 -48 48 -98t93 -81t142 -31q160 0 280 98q23 18 43 -2l68 -82q22 -22 -2 -43 q-167 -147 -389 -147q-271 0 -406 184q-134 -188 -407 -188q-138 0 -244 50q-104 49 -160 132t-81 169q-25 85 -25 177zM326 512q0 -49 11 -96q13 -55 40 -115q28 -63 95 -105q66 -42 161 -42t161 42q67 42 95 105q27 60 40 115q11 47 11 96t-11 96q-13 55 -40 115 q-28 63 -95 105q-66 42 -161 42t-161 -42q-67 -42 -95 -105q-27 -60 -40 -115q-11 -47 -11 -96zM1143 623h516q15 93 -38 172q-53 78 -181 84q-236 0 -297 -256z" />
<glyph unicode="&#x178;" horiz-adv-x="1302" d="M77 1425q5 9 15 9h174q30 0 47 -27l336 -555l338 555q17 27 47 27h176q11 0 16 -9q5 -8 -1 -18l-469 -758v-618q0 -12 -10 -22q-9 -9 -21 -9h-150q-12 0 -21 9t-9 22v614l-467 762q-6 10 -1 18zM289 1712q-11 31 0 62q11 40 42 66q32 26 75 26q51 0 87 -36q35 -35 35 -87 t-35 -86q-37 -35 -87 -35q-45 0 -76 25q-30 24 -41 65zM774 1743q0 50 35 87q35 36 86 36t87 -36t36 -87t-36 -86q-37 -35 -87 -35q-51 0 -86 35t-35 86z" />
<glyph unicode="&#x2c6;" horiz-adv-x="1060" d="M242 1288q-17 24 8 43l266 199q24 18 49 0l266 -199q25 -19 9 -43l-41 -59q-16 -26 -43 -8l-215 131l-215 -131q-27 -18 -43 8z" />
<glyph unicode="&#x2dc;" horiz-adv-x="1056" d="M215 1278q57 156 205 156q57 0 116 -40t93 -40q51 0 90 53q18 27 43 12l63 -33q28 -15 13 -43q-74 -141 -213 -141q-48 0 -107 40t-100 40q-56 0 -90 -59q-15 -28 -43 -13l-54 25q-26 15 -16 43z" />
<glyph unicode="&#x2000;" horiz-adv-x="1014" />
<glyph unicode="&#x2001;" horiz-adv-x="2028" />
<glyph unicode="&#x2002;" horiz-adv-x="1014" />
<glyph unicode="&#x2003;" horiz-adv-x="2028" />
<glyph unicode="&#x2004;" horiz-adv-x="676" />
<glyph unicode="&#x2005;" horiz-adv-x="507" />
<glyph unicode="&#x2006;" horiz-adv-x="338" />
<glyph unicode="&#x2007;" horiz-adv-x="338" />
<glyph unicode="&#x2008;" horiz-adv-x="253" />
<glyph unicode="&#x2009;" horiz-adv-x="405" />
<glyph unicode="&#x200a;" horiz-adv-x="112" />
<glyph unicode="&#x2010;" horiz-adv-x="884" d="M164 537v108q0 13 9 22t22 9h495q13 0 22 -9t9 -22v-108q0 -13 -9 -22t-22 -9h-495q-13 0 -22 9t-9 22z" />
<glyph unicode="&#x2011;" horiz-adv-x="884" d="M164 537v108q0 13 9 22t22 9h495q13 0 22 -9t9 -22v-108q0 -13 -9 -22t-22 -9h-495q-13 0 -22 9t-9 22z" />
<glyph unicode="&#x2012;" horiz-adv-x="884" d="M164 537v108q0 13 9 22t22 9h495q13 0 22 -9t9 -22v-108q0 -13 -9 -22t-22 -9h-495q-13 0 -22 9t-9 22z" />
<glyph unicode="&#x2013;" horiz-adv-x="1165" d="M164 537v108q0 13 9 22t22 9h776q12 0 21 -9t9 -22v-108q0 -13 -9 -22t-21 -9h-776q-13 0 -22 9t-9 22z" />
<glyph unicode="&#x2014;" horiz-adv-x="1998" d="M164 537v108q0 13 9 22t22 9h1609q13 0 22 -9t9 -22v-108q0 -13 -9 -22t-22 -9h-1609q-13 0 -22 9t-9 22z" />
<glyph unicode="&#x2018;" horiz-adv-x="528" d="M123 1030q0 146 153 410q18 27 43 12l48 -22q30 -12 14 -39q-85 -168 -96 -242q52 -5 86 -43q35 -40 35 -92q0 -57 -38 -95t-96 -38q-77 0 -113 43q-36 44 -36 106z" />
<glyph unicode="&#x2019;" horiz-adv-x="528" d="M123 1333q0 57 38 95t95 38q78 0 114 -43t36 -106q0 -144 -154 -410q-18 -24 -45 -14l-47 22q-28 17 -13 41q81 156 97 242q-52 5 -86 43q-35 40 -35 92z" />
<glyph unicode="&#x201a;" horiz-adv-x="610" d="M164 123q0 57 38 95t95 38q78 0 114 -43q35 -42 35 -107q0 -145 -153 -409q-18 -24 -45 -14l-47 22q-28 17 -13 41q81 156 97 242q-52 5 -86 43q-35 40 -35 92z" />
<glyph unicode="&#x201c;" horiz-adv-x="890" d="M123 1030q0 146 153 410q18 27 43 12l48 -22q30 -12 14 -39q-85 -168 -96 -242q52 -5 86 -43q35 -40 35 -92q0 -57 -38 -95t-96 -38q-77 0 -113 43q-36 44 -36 106zM485 1030q0 144 154 410q18 27 43 12l47 -22q30 -12 14 -39q-85 -168 -96 -242q52 -5 86 -43 q35 -40 35 -92q0 -57 -38 -95t-95 -38q-78 0 -114 43q-36 44 -36 106z" />
<glyph unicode="&#x201d;" horiz-adv-x="890" d="M123 1333q0 57 38 95t95 38q78 0 114 -43t36 -106q0 -144 -154 -410q-18 -24 -45 -14l-47 22q-28 17 -13 41q81 156 97 242q-52 5 -86 43q-35 40 -35 92zM485 1333q0 57 38 95t95 38q78 0 114 -43t36 -106q0 -144 -154 -410q-18 -24 -45 -14l-47 22q-27 17 -12 41 q79 153 96 242q-52 5 -86 43q-35 40 -35 92z" />
<glyph unicode="&#x201e;" horiz-adv-x="923" d="M164 123q0 57 38 95t95 38q78 0 114 -43q35 -42 35 -107q0 -145 -153 -409q-18 -24 -45 -14l-47 22q-28 17 -13 41q81 156 97 242q-52 5 -86 43q-35 40 -35 92zM559 123q0 57 38 95t95 38q78 0 114 -43t36 -107q0 -143 -154 -409q-18 -24 -45 -14l-47 22q-27 17 -12 41 q79 153 96 242q-52 5 -86 43q-35 40 -35 92z" />
<glyph unicode="&#x2022;" horiz-adv-x="815" d="M164 592q0 100 72 174t167 74q101 0 175 -74q73 -73 73 -174q0 -96 -73 -168q-74 -72 -175 -72q-95 0 -167 72t-72 168z" />
<glyph unicode="&#x2026;" horiz-adv-x="1333" d="M164 121q0 57 38 95t95 38q55 0 95 -39t40 -94t-40 -95t-95 -40t-94 40t-39 95zM573 121q0 57 38 95t96 38q55 0 95 -39t40 -94t-40 -95t-95 -40q-56 0 -95 40q-39 41 -39 95zM983 121q0 57 38 95t95 38q54 0 95 -39q40 -39 40 -94t-40 -95t-95 -40t-94 40t-39 95z" />
<glyph unicode="&#x202f;" horiz-adv-x="405" />
<glyph unicode="&#x2039;" horiz-adv-x="579" d="M61 514q0 18 13 31l325 344q21 24 43 2l54 -47q22 -22 2 -43l-242 -287l242 -287q20 -21 -2 -43l-54 -47q-22 -22 -43 2l-325 342q-13 16 -13 33z" />
<glyph unicode="&#x203a;" horiz-adv-x="579" d="M82 227l242 287l-242 287q-20 21 2 43l53 47q22 22 43 -2l326 -344q12 -12 12 -31q0 -18 -12 -33l-326 -342q-21 -24 -43 -2l-53 47q-22 22 -2 43z" />
<glyph unicode="&#x205f;" horiz-adv-x="507" />
<glyph unicode="&#x20ac;" horiz-adv-x="1138" d="M29 549l26 82q6 28 39 28h66v113h-109q-11 0 -19 9t-3 20l26 82q6 28 39 28h82q18 105 54 195q35 88 97 170q61 80 153 125q93 45 210 45q201 0 342 -152q23 -23 -4 -41l-86 -71q-22 -16 -47 2q-92 86 -205 86q-239 0 -311 -359h430q9 0 17 -9q7 -8 5 -19l-26 -82 q-6 -29 -39 -29h-406v-55q0 -30 2 -58h328q10 0 18 -9q7 -8 5 -19l-25 -82q-8 -29 -39 -29h-270q69 -358 311 -358q117 0 209 80q25 18 47 2l86 -68q25 -17 4 -41q-143 -149 -346 -149q-117 0 -210 45q-94 45 -153 124q-63 83 -97 169q-36 90 -54 196h-125q-11 0 -19 9 t-3 20z" />
<glyph unicode="&#x2122;" horiz-adv-x="1431" d="M92 1464v47q0 13 9 22t22 9h379q12 0 21 -9t9 -22v-47q0 -12 -9 -21t-21 -9h-131v-451q0 -11 -10 -21t-21 -10h-57q-12 0 -22 10q-9 9 -9 21v451h-129q-13 0 -22 9t-9 21zM555 981l193 553q4 10 14 10q12 0 16 -10l164 -360l164 360q4 10 14 10q11 0 15 -10l194 -553 q2 -11 -4 -19q-7 -10 -16 -10h-68q-33 0 -39 29l-92 297l-154 -320q-5 -8 -14 -8t-14 8l-154 320l-92 -297q-6 -29 -39 -29h-68q-9 0 -17 10q-7 9 -3 19z" />
<glyph unicode="&#x25fc;" horiz-adv-x="1024" d="M0 0v1024h1024v-1024h-1024z" />
</font>
</defs>
</svg>
