<?xml version="1.0" standalone="no"?>
<!DOCTYPE svg PUBLIC "-//W3C//DTD SVG 1.1//EN" "http://www.w3.org/Graphics/SVG/1.1/DTD/svg11.dtd" >
<svg xmlns="http://www.w3.org/2000/svg">
<metadata></metadata>
<defs>
<font id="worksafebc_halis_rmedium" horiz-adv-x="1298" >
<font-face units-per-em="2048" ascent="1638" descent="-410" />
<missing-glyph horiz-adv-x="614" />
<glyph unicode="&#xfb01;" horiz-adv-x="1163" d="M20 850v141q0 33 33 33h78v88q0 168 102 255t261 87q124 0 247 -51q34 -15 19 -45l-45 -125q-17 -31 -43 -21q-95 31 -162 31q-58 0 -96 -34q-39 -35 -39 -105v-80h592q32 0 32 -33v-958q0 -33 -32 -33h-179q-32 0 -32 33v784h-381v-784q0 -33 -33 -33h-178q-33 0 -33 33 v784h-78q-33 0 -33 33z" />
<glyph unicode="&#xfb02;" horiz-adv-x="1167" d="M20 850v141q0 33 33 33h78v88q0 174 98 256t248 82q83 0 175 -33t149 -90l41 78q15 29 47 29h82q33 0 33 -33v-1368q0 -33 -33 -33h-176q-33 0 -33 33v1116q-30 43 -94 69q-66 27 -131 27q-69 0 -116 -35q-46 -34 -46 -106v-80h176q33 0 33 -33v-141q0 -33 -33 -33h-176 v-784q0 -33 -33 -33h-178q-33 0 -33 33v784h-78q-33 0 -33 33z" />
<glyph unicode="&#xfb03;" horiz-adv-x="1716" d="M20 850v141q0 33 33 33h78v88q0 177 101 256q103 80 264 80q160 0 323 -68q95 74 244 74q125 0 248 -51q33 -15 18 -45l-45 -125q-17 -31 -43 -21q-95 31 -162 31q-58 0 -96 -34q-39 -35 -39 -105v-80h576q32 0 32 -33v-958q0 -33 -32 -33h-179q-32 0 -32 33v784h-365 v-784q0 -33 -33 -33h-178q-33 0 -33 33v784h-325v-784q0 -33 -33 -33h-178q-33 0 -33 33v784h-78q-33 0 -33 33zM375 1024h325v88q0 54 15 107q-75 28 -172 28q-168 0 -168 -143v-80z" />
<glyph unicode="&#xfb04;" horiz-adv-x="1738" d="M20 850v141q0 33 33 33h78v88q0 177 101 256q103 80 264 80q158 0 321 -68q91 70 232 70q83 0 175 -33q91 -33 148 -90l41 78q15 29 47 29h82q33 0 33 -33v-1368q0 -33 -33 -33h-176q-33 0 -33 33v1116q-30 43 -94 69q-66 27 -131 27q-69 0 -116 -35q-46 -34 -46 -106 v-80h176q33 0 33 -33v-141q0 -33 -33 -33h-176v-784q0 -33 -33 -33h-178q-33 0 -33 33v784h-327v-784q0 -33 -33 -33h-178q-33 0 -33 33v784h-78q-33 0 -33 33zM375 1024h327v88q0 53 13 107q-75 28 -172 28q-168 0 -168 -143v-80z" />
<glyph horiz-adv-x="0" />
<glyph unicode="&#xd;" horiz-adv-x="681" />
<glyph unicode=" "  horiz-adv-x="614" />
<glyph unicode="&#x09;" horiz-adv-x="614" />
<glyph unicode="&#xa0;" horiz-adv-x="614" />
<glyph unicode="!" horiz-adv-x="688" d="M205 133q0 59 40 99t99 40t99 -40t40 -99t-41 -100t-98 -41q-58 0 -99 41q-40 40 -40 100zM223 858v543q0 33 33 33h176q33 0 33 -33v-543l-37 -399q0 -15 -10 -24t-25 -9h-100q-15 0 -25 9t-10 24z" />
<glyph unicode="&#x22;" horiz-adv-x="774" d="M84 1401q0 33 31 33h182q33 0 29 -33l-41 -430q0 -15 -11 -24q-10 -9 -24 -9h-88q-32 0 -37 33zM446 1401q0 33 31 33h182q33 0 29 -33l-41 -430q0 -15 -10 -24q-11 -9 -25 -9h-88q-32 0 -37 33z" />
<glyph unicode="#" horiz-adv-x="1177" d="M123 254v127q0 33 33 33h139v198h-139q-33 0 -33 33v127q0 33 33 33h139v186q0 33 33 33h129q32 0 32 -33v-186h197v186q0 33 33 33h129q33 0 33 -33v-186h141q33 0 33 -33v-127q0 -33 -33 -33h-141v-198h141q33 0 33 -33v-127q0 -33 -33 -33h-141v-188q0 -33 -33 -33 h-129q-33 0 -33 33v188h-197v-188q0 -33 -32 -33h-129q-33 0 -33 33v188h-139q-33 0 -33 33zM489 414h197v198h-197v-198z" />
<glyph unicode="$" horiz-adv-x="1294" d="M137 147l68 146q15 31 43 16q167 -77 303 -94v432q-83 26 -122 40q-51 19 -107 50q-60 33 -96 72t-60 100q-25 64 -25 140q0 176 113 284q114 109 297 121v150q0 32 33 32h116q33 0 33 -32v-158q175 -27 340 -100q31 -12 19 -43l-68 -150q-10 -30 -43 -18 q-139 48 -248 71v-364q66 -21 127 -44q47 -18 116 -58q64 -37 102 -83q40 -48 66 -114q27 -69 27 -158q0 -156 -122 -266t-316 -131v-125q0 -33 -33 -33h-116q-33 0 -33 33v125q-205 17 -399 116q-29 16 -15 43zM393 1063q0 -101 158 -164v313q-74 -12 -114 -46 q-39 -34 -44 -103zM733 221q150 33 174 133q6 22 2 66q-18 105 -176 168v-367z" />
<glyph unicode="%" horiz-adv-x="1673" d="M61 1118q0 126 76 227t240 101q113 0 187 -56q76 -58 101 -126t25 -146q0 -77 -25 -145q-26 -69 -101 -125q-74 -55 -187 -55t-189 55q-75 54 -101 125q-26 70 -26 145zM256 1118q0 -31 7 -56q7 -27 36 -57t78 -30q67 0 93 48q26 49 26 95t-26 95t-93 49q-49 0 -78 -30 t-36 -57q-7 -25 -7 -57zM510 31l451 1372q11 31 43 31h139q11 0 19 -11q7 -10 3 -20l-448 -1372q-11 -31 -43 -31h-142q-12 0 -19 10t-3 21zM983 315q0 126 76 227t239 101q114 0 188 -56t100 -126t26 -146q0 -75 -26 -145t-100 -125t-188 -55q-112 0 -188 55 q-75 54 -101 125q-26 70 -26 145zM1178 315q0 -31 7 -56q7 -27 36 -57t77 -30q68 0 94 48q25 47 25 95q0 49 -25 96q-26 48 -94 48q-48 0 -77 -30t-36 -57q-7 -25 -7 -57z" />
<glyph unicode="&#x26;" horiz-adv-x="1458" d="M164 399q0 133 63 222q59 83 179 159l-12 12q-9 9 -13 12t-10 11q-117 129 -117 293q0 137 95 241q94 103 274 103q166 0 256 -100t90 -238q0 -207 -224 -375l248 -264q45 91 72 217q8 33 39 27l135 -25q33 -6 29 -39q-39 -220 -113 -356l158 -166q22 -26 -2 -47 l-109 -100q-24 -23 -47 0l-137 141q-163 -153 -404 -145q-197 5 -323 128q-127 124 -127 289zM399 410q-1 -94 68 -154q68 -59 162 -59q138 0 235 92l-303 321q-161 -106 -162 -200zM479 1133q-4 -36 2 -66q15 -65 119 -170q143 98 143 215q0 58 -34 98q-35 41 -97 41 q-112 0 -133 -118z" />
<glyph unicode="'" horiz-adv-x="411" d="M84 1401q0 33 31 33h182q33 0 29 -33l-41 -430q0 -15 -11 -24q-10 -9 -24 -9h-88q-32 0 -37 33z" />
<glyph unicode="(" horiz-adv-x="614" d="M61 590q0 498 314 962q18 27 45 9l104 -66q31 -19 13 -47q-232 -440 -232 -856q0 -425 232 -868q18 -29 -13 -48l-104 -65q-27 -18 -45 8q-314 460 -314 971z" />
<glyph unicode=")" horiz-adv-x="614" d="M76 -276q233 436 233 868q0 421 -233 856q-15 29 12 47l105 66q29 18 47 -9q313 -463 313 -962q0 -513 -313 -971q-18 -27 -47 -8l-105 65q-28 18 -12 48z" />
<glyph unicode="*" horiz-adv-x="970" d="M139 907q-16 26 11 47l161 103l-161 104q-27 21 -11 47l43 74q15 29 45 14l172 -88l9 193q4 33 34 33h86q30 0 35 -33l10 -193l170 88q27 15 45 -14l43 -74q15 -28 -10 -47l-162 -104l160 -103q27 -17 12 -47l-43 -73q-19 -30 -45 -15l-170 86l-10 -190q-5 -33 -35 -33 h-86q-30 0 -34 33l-9 190l-172 -86q-29 -15 -45 15z" />
<glyph unicode="+" horiz-adv-x="1132" d="M164 627v129q0 32 33 32h272v273q0 33 33 33h129q33 0 33 -33v-273h272q33 0 33 -32v-129q0 -33 -33 -33h-272v-272q0 -33 -33 -33h-129q-33 0 -33 33v272h-272q-33 0 -33 33z" />
<glyph unicode="," horiz-adv-x="643" d="M164 106q0 63 43 107q43 45 106 45q86 0 126 -49t40 -119q0 -88 -51 -205q-49 -113 -115 -207q-21 -27 -49 -12l-59 31q-27 17 -12 45q67 128 90 213q-119 27 -119 151z" />
<glyph unicode="-" horiz-adv-x="897" d="M164 520v144q0 32 33 32h503q33 0 33 -32v-144q0 -33 -33 -33h-503q-33 0 -33 33z" />
<glyph unicode="." horiz-adv-x="636" d="M164 141q0 64 46 110t109 46q64 0 109 -46q45 -47 45 -110t-45 -108t-109 -45q-63 0 -109 45t-46 108z" />
<glyph unicode="/" horiz-adv-x="798" d="M72 31l450 1372q11 31 43 31h140q11 0 19 -11q7 -10 3 -20l-448 -1372q-11 -31 -43 -31h-142q-12 0 -19 10t-3 21z" />
<glyph unicode="0" d="M131 694q0 116 25 235q24 112 78 224q53 110 161 178q107 68 254 68q146 0 255 -68q108 -68 162 -178q56 -115 79 -224q24 -114 24 -235q0 -123 -24 -237q-24 -112 -79 -226q-54 -111 -162 -177t-255 -66t-254 66t-161 177q-54 110 -78 226q-25 119 -25 237zM373 694 q0 -50 3 -100q3 -53 19 -126q16 -75 44 -132q26 -54 82 -96q55 -41 128 -41t128 41q56 42 82 96q28 57 44 132q17 80 20 126q3 50 3 100q0 63 -8 132q-7 63 -32 157q-24 93 -85 149q-60 56 -152 56q-91 0 -151 -56q-61 -56 -85 -149q-25 -94 -32 -157q-8 -69 -8 -132z" />
<glyph unicode="1" d="M383 1022q-15 28 8 49l363 297q27 21 57 21h82q33 0 33 -33v-1323q0 -33 -33 -33h-178q-33 0 -33 33v981l-188 -103q-27 -16 -48 11z" />
<glyph unicode="2" d="M221 33v28q0 33 21 60l495 635q115 153 115 254q0 74 -45 126t-148 52q-127 0 -290 -146q-26 -22 -47 2l-97 101q-21 25 0 49q201 203 432 203q191 0 310 -102q118 -102 118 -294q0 -171 -172 -385l-307 -393h408q33 0 33 -33v-157q0 -33 -33 -33h-760q-33 0 -33 33z" />
<glyph unicode="3" d="M229 190l93 109q21 24 45 2q140 -113 266 -113q92 0 157 53q64 52 64 146q0 99 -64 151t-157 52h-154q-33 0 -33 33v139q0 33 33 33h154q93 0 157 52t64 150q0 95 -64 147t-157 52q-128 0 -266 -115q-27 -18 -45 4l-93 109q-18 27 4 47q181 158 400 158q129 0 225 -41 q93 -40 140 -107q46 -66 67 -128q20 -60 20 -126q0 -91 -43 -180q-44 -91 -120 -125q69 -27 116 -122q47 -96 47 -183q0 -66 -20 -126q-21 -62 -67 -128t-140 -106q-96 -41 -225 -41q-221 0 -400 157q-22 20 -4 47z" />
<glyph unicode="4" d="M131 305v72q0 34 19 59l591 922q18 28 52 28h129q32 0 32 -32v-865h183q32 0 32 -32v-152q0 -33 -32 -33h-183v-241q0 -33 -32 -33h-183q-32 0 -32 33v241h-543q-33 0 -33 33zM442 489h265l-2 429z" />
<glyph unicode="5" d="M215 178q-23 23 4 47l111 99q22 21 45 -2q108 -121 237 -121q116 0 182 73q66 74 66 175q0 97 -66 169t-184 72h-288q-33 0 -33 33v627q0 32 33 32h639q32 0 32 -32v-150q0 -33 -32 -33h-431v-272h80q138 0 240 -44q100 -43 150 -118q51 -76 73 -146q23 -74 23 -151 q0 -44 -13 -103q-12 -52 -47 -117q-35 -64 -87 -113q-54 -51 -140 -83t-199 -32q-233 0 -395 190z" />
<glyph unicode="6" d="M176 455q-1 607 572 931q27 16 47 -10l75 -116q17 -25 -10 -43q-132 -76 -228 -176q-97 -101 -145 -189q68 43 164 43q110 0 198 -32q87 -31 138 -81q52 -50 84 -113q31 -62 44 -121q11 -52 11 -114q0 -52 -11 -100q-14 -59 -45 -118q-36 -67 -84 -115q-49 -49 -137 -84 q-83 -33 -198 -33q-135 0 -235 52q-101 53 -149 132q-48 80 -69 151q-22 75 -22 136zM412 444q0 -101 63 -173t176 -72t176 72q64 73 64 173t-63 172t-177 72q-112 0 -174 -71q-60 -69 -65 -173z" />
<glyph unicode="7" d="M231 1200v150q0 32 33 32h770q33 0 33 -32v-31q0 -34 -12 -64l-500 -1224q-15 -31 -45 -31h-184q-13 0 -19 10q-6 11 -2 21l461 1136h-502q-33 0 -33 33z" />
<glyph unicode="8" d="M197 385q0 95 44 183q44 87 113 122q-71 37 -114 119t-43 186q0 66 20 126q21 62 67 128q47 67 140 107q96 41 225 41q131 0 227 -41q94 -40 141 -107q44 -63 66 -128q21 -63 21 -126q0 -204 -158 -305q72 -45 114 -124q44 -82 44 -181q0 -63 -21 -126q-22 -65 -66 -128 q-46 -65 -141 -106q-96 -41 -227 -41q-129 0 -225 41q-94 40 -140 106t-67 128q-20 60 -20 126zM428 385q0 -93 65 -146t156 -53q94 0 158 53q63 53 63 146q0 98 -63 151q-62 52 -158 52q-92 0 -156 -52q-65 -53 -65 -151zM428 995q0 -97 65 -150q64 -52 156 -52 q96 0 158 52q63 53 63 150q0 95 -63 147q-62 52 -158 52q-92 0 -156 -52q-65 -53 -65 -147z" />
<glyph unicode="9" d="M174 952q0 53 11 101q13 57 45 117q36 67 84 115q49 49 138 84q86 34 197 34q136 0 236 -52t148 -132q50 -82 70 -152q21 -72 21 -135q1 -608 -571 -932q-27 -16 -47 10l-76 117q-8 11 -5 24t15 19q265 160 373 365q-68 -43 -164 -43q-111 0 -197 31q-89 32 -139 81 q-51 50 -84 114q-31 62 -44 121q-11 52 -11 113zM410 942q0 -101 62 -172q63 -72 177 -72q112 0 174 71q61 70 66 173q0 100 -64 173t-176 73t-176 -73q-63 -72 -63 -173z" />
<glyph unicode=":" horiz-adv-x="636" d="M164 143q0 64 46 110t109 46q64 0 109 -46t45 -110q0 -63 -45 -108t-109 -45q-63 0 -109 45t-46 108zM164 872q0 64 46 110t109 46q64 0 109 -46t45 -110q0 -63 -45 -108t-109 -45q-63 0 -109 45t-46 108z" />
<glyph unicode=";" horiz-adv-x="643" d="M164 106q0 63 43 107q43 45 106 45q86 0 126 -49t40 -119q0 -88 -51 -205q-49 -113 -115 -207q-21 -27 -49 -12l-59 31q-27 17 -12 45q67 128 90 213q-119 27 -119 151zM164 872q0 64 46 110t109 46q64 0 109 -46t45 -110q0 -63 -45 -108t-109 -45q-63 0 -109 45t-46 108 z" />
<glyph unicode="&#x3c;" horiz-adv-x="882" d="M61 600v12q0 33 29 50l604 366q30 16 45 -12l66 -115q15 -30 -12 -47l-390 -248l390 -248q27 -17 12 -47l-66 -114q-15 -29 -45 -13l-604 367q-29 17 -29 49z" />
<glyph unicode="=" horiz-adv-x="1042" d="M164 403v127q0 33 33 33h649q33 0 33 -33v-127q0 -32 -33 -32h-649q-33 0 -33 32zM164 862v129q0 33 33 33h649q33 0 33 -33v-129q0 -33 -33 -33h-649q-33 0 -33 33z" />
<glyph unicode="&#x3e;" horiz-adv-x="882" d="M78 311q-16 27 10 47l391 248l-391 248q-26 20 -10 47l65 115q15 28 45 12l605 -366q28 -16 28 -50v-12q0 -33 -28 -49l-605 -367q-30 -16 -45 13z" />
<glyph unicode="?" horiz-adv-x="1150" d="M186 1198q-23 23 0 47q105 111 203 160t225 49q166 0 270 -93q103 -93 103 -261q0 -73 -34 -148q-34 -76 -66 -118q-33 -44 -90 -111q-103 -120 -103 -166v-94q0 -33 -32 -33h-158q-33 0 -33 33v100q0 81 34 140q38 67 101 135q54 60 67 77q20 28 45 80q23 49 23 103 q0 23 -6 44q-7 24 -22 46q-17 24 -51 39q-31 14 -87 12q-101 -5 -241 -139q-23 -23 -47 0zM438 125q0 59 42 100q43 41 102 41q58 0 101 -41q42 -41 42 -100q0 -57 -43 -99q-44 -42 -100 -42q-62 0 -103 39t-41 102z" />
<glyph unicode="@" horiz-adv-x="2342" d="M125 369q-4 486 287 802q292 316 774 316q311 0 548 -129q236 -129 361 -351q125 -223 125 -501q0 -118 -28 -241q-26 -114 -85 -223q-58 -107 -161 -170q-106 -65 -242 -65q-178 0 -250 150q-129 -109 -299 -109q-139 0 -245 53q-104 52 -161 136q-55 81 -83 174 q-27 90 -27 180q0 93 27 181q28 92 83 173q58 86 161 137q104 52 245 52q167 0 295 -105l18 56q10 30 43 30h93q32 0 32 -32v-750q5 -113 101 -113q106 0 175 137q68 135 68 339q0 337 -214 552q-214 216 -586 216q-382 0 -603 -243q-221 -244 -217 -652q1 -167 68 -323 q67 -157 221 -299q155 -143 387 -226q32 -13 17 -41l-66 -139q-15 -31 -45 -19q-400 140 -608 418q-208 277 -209 629zM881 389q0 -45 11 -90q13 -54 38 -108q27 -58 88 -97q62 -39 147 -39q151 0 230 123v424q-83 123 -230 123q-85 0 -147 -39t-89 -99q-28 -61 -38 -109 q-10 -46 -10 -89z" />
<glyph unicode="A" horiz-adv-x="1452" d="M74 31l602 1390q11 31 45 31h10q29 0 45 -31l602 -1390q2 -4 2 -8q0 -6 -4 -13q-6 -10 -18 -10h-213q-29 0 -45 31l-135 334h-480l-133 -334q-16 -31 -45 -31h-213q-12 0 -18 10q-4 7 -4 13q0 4 2 8zM571 575h310l-154 386z" />
<glyph unicode="B" horiz-adv-x="1370" d="M205 33v1368q0 33 33 33h503q141 0 243 -40q104 -41 158 -105q55 -66 80 -133q25 -68 25 -140q0 -93 -46 -178q-47 -86 -130 -119q83 -35 129 -123q47 -89 47 -180q0 -74 -25 -140t-80 -132q-53 -63 -158 -104q-102 -40 -243 -40h-503q-33 0 -33 33zM453 225h309 q68 0 119 23q50 23 70 56q23 38 31 62q9 27 9 50q0 65 -47 121q-46 55 -174 57h-317v-369zM453 821h317q65 1 115 24q48 22 68 55q24 39 30 62q8 29 8 54q0 22 -9 51q-8 25 -31 63q-22 36 -70 58t-119 22h-309v-389z" />
<glyph unicode="C" horiz-adv-x="1501" d="M123 719q0 101 20 191q22 98 73 196q52 99 130 176q77 76 204 124q126 48 284 48q308 0 522 -225q11 -12 11 -24t-13 -23l-119 -115q-24 -21 -47 2q-66 66 -162 111t-192 45q-112 0 -200 -41q-87 -40 -134 -100q-48 -60 -77 -133q-31 -77 -38 -130q-8 -59 -8 -102 q0 -44 8 -103q7 -53 38 -130q29 -73 77 -133q46 -58 134 -99t200 -41q181 0 370 156q27 23 45 -4l105 -132q11 -12 11 -22q0 -13 -15 -25q-213 -204 -516 -204q-196 0 -340 70q-145 70 -223 186q-76 113 -112 235q-36 121 -36 246z" />
<glyph unicode="D" horiz-adv-x="1538" d="M205 33v1368q0 33 33 33h469q158 0 283 -46q126 -46 203 -119q76 -71 129 -170q51 -96 73 -191q20 -89 20 -189q0 -104 -20 -194q-21 -95 -72 -191q-52 -99 -130 -169q-80 -73 -204 -119q-123 -46 -282 -46h-469q-33 0 -33 33zM453 225h254q114 0 198 40q89 42 133 96 q48 58 77 129q31 73 38 127q8 58 8 102t-8 100q-8 53 -38 126q-29 71 -77 129q-44 54 -133 96q-84 40 -198 40h-254v-985z" />
<glyph unicode="E" horiz-adv-x="1286" d="M205 33v1368q0 33 33 33h892q33 0 33 -33v-160q0 -33 -33 -33h-675v-389h522q33 0 33 -33v-159q0 -33 -33 -33h-522v-369h675q33 0 33 -32v-160q0 -33 -33 -33h-892q-33 0 -33 33z" />
<glyph unicode="F" horiz-adv-x="1286" d="M205 33v1368q0 33 33 33h892q33 0 33 -33v-160q0 -33 -33 -33h-675v-389h522q33 0 33 -33v-159q0 -33 -33 -33h-522v-561q0 -33 -33 -33h-184q-33 0 -33 33z" />
<glyph unicode="G" horiz-adv-x="1476" d="M123 719q0 101 20 191q22 98 73 196q52 99 130 176q77 76 204 124q126 48 284 48q297 0 489 -197q21 -25 0 -49l-111 -114q-23 -24 -45 -2q-64 58 -153 95q-91 38 -180 38q-112 0 -200 -41q-87 -40 -134 -100q-48 -60 -77 -133q-31 -77 -38 -130q-8 -59 -8 -102 q0 -44 8 -103q7 -53 38 -130q29 -73 77 -133q46 -58 134 -99t200 -41q189 0 268 76v211h-258q-33 0 -33 32v156q0 33 33 33h477q33 0 33 -33v-463q0 -32 -25 -55q-200 -188 -495 -188q-196 0 -340 70q-145 70 -223 186q-76 113 -112 235q-36 121 -36 246z" />
<glyph unicode="H" horiz-adv-x="1579" d="M205 33v1368q0 33 33 33h186q33 0 33 -33v-582h667v582q0 33 33 33h184q33 0 33 -33v-1368q0 -33 -33 -33h-184q-33 0 -33 33v561h-667v-561q0 -33 -33 -33h-186q-33 0 -33 33z" />
<glyph unicode="I" horiz-adv-x="661" d="M205 33v1368q0 33 33 33h186q33 0 33 -33v-1368q0 -33 -33 -33h-186q-33 0 -33 33z" />
<glyph unicode="J" horiz-adv-x="1273" d="M51 367q-2 6 -2 12q0 18 23 31l159 57q30 11 41 -18q84 -228 271 -228h8q86 1 146 40q58 37 81 98q22 60 30 104q7 41 7 90v848q0 33 33 33h188q33 0 33 -33v-848q0 -80 -13 -149q-14 -74 -49 -150q-36 -77 -92 -135q-55 -57 -149 -94q-93 -37 -215 -37q-213 0 -327 101 q-116 102 -173 278z" />
<glyph unicode="K" horiz-adv-x="1454" d="M205 33v1368q0 33 33 33h186q33 0 33 -33v-559l540 567q23 25 56 25h250q16 0 16 -17q0 -16 -12 -28l-633 -650l676 -690q12 -12 12 -31q0 -18 -19 -18h-249q-33 0 -56 25l-581 612v-604q0 -33 -33 -33h-186q-33 0 -33 33z" />
<glyph unicode="L" horiz-adv-x="1107" d="M205 33v1368q0 33 33 33h186q33 0 33 -33v-1176h495q33 0 33 -32v-160q0 -33 -33 -33h-714q-33 0 -33 33z" />
<glyph unicode="M" horiz-adv-x="2064" d="M72 31l467 1392q11 31 41 31t45 -29l403 -911l404 911q11 29 43 29t43 -31l467 -1392q1 -3 1 -7q0 -7 -5 -14q-7 -10 -19 -10h-203q-32 0 -43 31l-268 866l-391 -901q-8 -19 -29 -19t-29 19l-391 901l-268 -866q-11 -31 -43 -31h-203q-12 0 -19 10q-4 6 -4 13q0 4 1 8z " />
<glyph unicode="N" horiz-adv-x="1581" d="M205 33v1390q0 12 7 19q8 8 17 8q27 0 45 -18l850 -865v834q0 33 33 33h186q33 0 33 -33v-1393q0 -26 -28 -26t-45 20l-846 881v-850q0 -33 -33 -33h-186q-33 0 -33 33z" />
<glyph unicode="O" horiz-adv-x="1665" d="M123 719q0 101 20 191q22 98 73 196q52 99 130 176q77 76 204 124q126 48 284 48q155 0 281 -48q127 -48 204 -124q78 -77 130 -176q51 -98 73 -196q20 -90 20 -191q0 -125 -36 -246q-36 -122 -112 -235q-77 -115 -222 -186q-143 -70 -338 -70q-196 0 -340 70 q-145 70 -223 186q-76 113 -112 235q-36 121 -36 246zM377 719q0 -44 8 -103q7 -52 38 -131q29 -73 77 -134q46 -57 134 -100q87 -42 200 -42q112 0 198 42t132 100t76 134q31 79 38 131q8 59 8 103q0 43 -8 102q-7 53 -38 130q-30 75 -76 133q-48 60 -132 100 q-87 41 -198 41q-112 0 -200 -41q-87 -40 -134 -100q-48 -60 -77 -133q-31 -77 -38 -130q-8 -59 -8 -102z" />
<glyph unicode="P" horiz-adv-x="1374" d="M205 33v1368q0 33 33 33h507q138 0 243 -44q104 -44 158 -116q55 -73 80 -147t25 -150q0 -202 -146 -332q-148 -131 -331 -131h-317v-481q0 -33 -33 -33h-186q-33 0 -33 33zM457 743h307q86 1 145 48q57 45 74 92q16 45 16 94q0 37 -10 71q-9 33 -35 74q-25 40 -75 64 q-51 24 -123 24h-299v-467z" />
<glyph unicode="Q" horiz-adv-x="1681" d="M123 719q0 101 20 191q22 98 73 196q52 99 130 176q77 76 204 124q126 48 284 48q155 0 281 -48q127 -48 204 -124q78 -77 130 -176q51 -98 73 -196q20 -90 20 -191q0 -177 -71 -346q-71 -168 -222 -273l289 -344q14 -17 14 -39t-22 -22h-211q-33 0 -55 24l-242 281 q-80 -18 -188 -18q-196 0 -340 70q-145 70 -223 186q-76 113 -112 235q-36 121 -36 246zM377 719q0 -44 8 -103q7 -52 38 -131q29 -73 77 -134q46 -57 134 -100q87 -42 200 -42q112 0 198 42t132 100t76 134q31 79 38 131q8 59 8 103q0 43 -8 102q-7 53 -38 130 q-30 75 -76 133q-48 60 -132 100q-87 41 -198 41q-112 0 -200 -41q-87 -40 -134 -100q-48 -60 -77 -133q-31 -77 -38 -130q-8 -59 -8 -102z" />
<glyph unicode="R" horiz-adv-x="1370" d="M205 33v1368q0 33 33 33h503q138 0 243 -44q104 -44 158 -116q55 -73 80 -147t25 -150q0 -150 -85 -263q-86 -114 -216 -165l244 -520q4 -10 -2 -20q-6 -9 -17 -9h-204q-32 0 -47 29l-228 485h-239v-481q0 -33 -33 -33h-182q-33 0 -33 33zM453 743h307q86 1 145 48 q57 45 74 92q16 45 16 94q0 37 -10 71q-9 33 -35 74q-24 40 -76 64q-51 24 -122 24h-299v-467z" />
<glyph unicode="S" horiz-adv-x="1294" d="M137 147l68 146q15 31 43 16q218 -98 393 -98q111 0 190 49q80 50 80 127q0 64 -32 106q-33 43 -87 69q-55 26 -124 50q-77 27 -142 43q-68 17 -141 52q-77 37 -124 72q-54 40 -87 110q-33 69 -33 160q0 189 127 298t330 109q229 0 475 -108q31 -15 19 -45l-68 -150 q-10 -30 -43 -18q-220 84 -338 84q-115 0 -179 -33q-65 -33 -71 -123q0 -57 44 -98q46 -43 113 -66q77 -27 151 -47q92 -25 166 -56q87 -36 151 -82q66 -47 110 -132q43 -83 43 -197q0 -174 -146 -287q-147 -114 -368 -114q-271 0 -505 120q-20 11 -20 27q0 7 5 16z" />
<glyph unicode="T" horiz-adv-x="1243" d="M92 1241v160q0 33 33 33h993q33 0 33 -33v-160q0 -33 -33 -33h-373v-1175q0 -33 -32 -33h-187q-32 0 -32 33v1175h-369q-33 0 -33 33z" />
<glyph unicode="U" horiz-adv-x="1497" d="M184 551v850q0 33 33 33h184q33 0 33 -33v-850q0 -37 16 -93q14 -49 47 -112q31 -59 97 -98t154 -39q71 0 128 27t90 66q34 40 55 89q24 57 30 89q8 43 8 71v850q0 33 33 33h188q33 0 33 -33v-850q0 -93 -31 -191q-29 -91 -94 -181q-64 -88 -177 -140q-115 -53 -263 -53 q-149 0 -264 53q-112 52 -176 140q-63 87 -93 181q-31 98 -31 191z" />
<glyph unicode="V" horiz-adv-x="1452" d="M74 1403q-2 4 -2 8q0 6 4 12q6 11 18 11h213q29 0 45 -31l375 -930l373 930q16 31 45 31h213q12 0 18 -11q4 -7 4 -12q0 -4 -2 -8l-602 -1391q-15 -30 -45 -30h-10q-35 0 -45 30z" />
<glyph unicode="W" horiz-adv-x="2263" d="M74 1403q-2 4 -2 8q0 6 4 12q6 11 18 11h213q29 0 45 -31l375 -895l371 930q6 22 32 22q27 0 33 -22l371 -930l375 895q15 31 45 31h213q12 0 18 -11q4 -7 4 -12q0 -4 -2 -8l-606 -1391q-15 -30 -45 -30t-45 30l-361 875l-360 -875q-15 -30 -45 -30q-35 0 -45 30z" />
<glyph unicode="X" horiz-adv-x="1300" d="M71 1423q5 11 15 11h229q33 0 50 -29l286 -475l285 475q17 29 49 29h229q11 0 16 -11q2 -5 2 -9q0 -5 -3 -9l-443 -688l445 -690q3 -4 3 -9q0 -4 -2 -9q-4 -9 -15 -9h-232q-32 0 -49 29l-285 475l-286 -475q-17 -29 -50 -29h-227q-10 0 -15 9q-2 5 -2 9q0 5 3 9l442 690 l-444 688q-3 4 -3 9q0 4 2 9z" />
<glyph unicode="Y" horiz-adv-x="1357" d="M78 1405q-2 4 -2 8q0 5 3 11q5 10 15 10h223q33 0 50 -29l313 -533l313 533q17 29 49 29h222q10 0 15 -11q2 -5 2 -9q0 -5 -3 -9l-473 -760v-612q0 -33 -33 -33h-184q-33 0 -33 33v608z" />
<glyph unicode="Z" horiz-adv-x="1343" d="M164 33v18q0 34 16 62l645 1097h-606q-33 0 -33 33v158q0 33 33 33h940q33 0 33 -33q0 -34 -16 -62l-658 -1114h658q32 0 32 -32v-160q0 -33 -32 -33h-979q-33 0 -33 33z" />
<glyph unicode="[" horiz-adv-x="530" d="M61 -387v1952q0 32 33 32h342q33 0 33 -32v-121q0 -33 -33 -33h-139v-1644h139q33 0 33 -33v-121q0 -33 -33 -33h-342q-33 0 -33 33z" />
<glyph unicode="\" horiz-adv-x="798" d="M72 1403q-4 10 3 20q8 11 19 11h139q32 0 43 -31l451 -1372q5 -11 -3 -21q-7 -10 -19 -10h-142q-32 0 -43 31z" />
<glyph unicode="]" horiz-adv-x="530" d="M61 -266q0 33 33 33h139v1644h-139q-33 0 -33 33v121q0 32 33 32h342q33 0 33 -32v-1952q0 -33 -33 -33h-342q-33 0 -33 33v121z" />
<glyph unicode="^" horiz-adv-x="1267" d="M205 954l387 486q16 20 41 20q27 0 43 -20l387 -486q23 -25 -4 -47l-84 -73q-26 -22 -47 2l-293 333l-295 -333q-21 -24 -47 -2l-84 73q-27 22 -4 47z" />
<glyph unicode="_" horiz-adv-x="843" d="M10 -39q0 33 33 33h758q33 0 33 -33v-84q0 -33 -33 -33h-758q-33 0 -33 33v84z" />
<glyph unicode="`" horiz-adv-x="1044" d="M234 1412q-3 12 6 24l77 110q18 28 43 6l254 -211q24 -21 7 -47l-41 -59q-19 -25 -48 -10l-282 168q-13 7 -16 19z" />
<glyph unicode="a" horiz-adv-x="1107" d="M123 297q0 334 428 334q47 0 149 -13v17q-2 118 -40 157q-37 37 -128 37q-96 0 -245 -59q-31 -12 -43 18l-51 117q-12 30 16 45q169 81 311 88q24 1 47 1q84 0 148 -17q81 -22 125 -60q42 -36 67 -103q25 -68 31 -119q6 -54 6 -132v-575q0 -33 -33 -33h-96q-32 0 -43 31 l-14 51q-124 -100 -269 -100q-92 0 -158 23q-71 25 -107 58q-38 35 -62 81q-25 48 -32 82t-7 71zM350 313q0 -63 42 -96t104 -33q67 0 121 36t83 83v121q-79 10 -129 10q-221 0 -221 -121z" />
<glyph unicode="b" horiz-adv-x="1255" d="M164 33v1368q0 33 33 33h176q33 0 33 -33v-400q106 39 217 39q138 0 243 -51q104 -50 160 -134q55 -82 81 -169t26 -174q0 -65 -16 -139q-16 -72 -52 -142q-38 -73 -91 -126q-52 -52 -144 -88q-85 -33 -197 -33q-159 0 -283 96l-18 -49q-11 -31 -43 -31h-92q-33 0 -33 33 zM406 305q72 -112 217 -112q68 0 118 25q53 26 79 63q27 38 45 85q19 51 23 81q5 38 5 65q0 43 -12 91t-41 103q-28 54 -89 90q-58 35 -145 35q-118 0 -200 -57v-469z" />
<glyph unicode="c" horiz-adv-x="1167" d="M123 508q0 98 23 180q24 87 78 169q55 83 160 133q106 50 251 50q210 0 373 -163q23 -23 0 -48l-95 -106q-23 -24 -45 -2q-107 98 -233 98t-198 -92q-72 -91 -72 -219q0 -137 79 -215q80 -78 193 -78q117 0 219 90q24 21 49 0l115 -102q13 -11 13 -23q0 -11 -11 -24 q-164 -170 -383 -170q-139 0 -245 50q-104 49 -162 131q-53 75 -82 167q-27 86 -27 174z" />
<glyph unicode="d" horiz-adv-x="1255" d="M123 512q0 90 25 174q26 87 81 169q56 84 160 134q105 51 244 51q111 0 217 -39v400q0 33 33 33h176q33 0 33 -33v-1368q0 -33 -33 -33h-92q-32 0 -43 31l-19 49q-125 -96 -282 -96q-113 0 -198 33q-90 35 -143 88q-55 55 -92 126q-36 70 -52 142q-15 69 -15 139z M362 512q0 -19 6 -65q4 -34 22 -81t45 -85q26 -37 79 -63q50 -25 119 -25q145 0 217 112v469q-82 57 -201 57q-86 0 -144 -35q-61 -36 -89 -90q-29 -55 -41 -103q-13 -52 -13 -91z" />
<glyph unicode="e" horiz-adv-x="1114" d="M92 514q0 64 16 138q16 71 52 140q38 72 93 124q59 56 147 89t204 33q200 0 308 -117q110 -119 110 -319q0 -68 -10 -127q-4 -33 -37 -33h-635q16 -95 77 -168q59 -71 187 -71q132 0 236 67q28 16 45 -8l78 -104q21 -28 -7 -47q-159 -123 -352 -123q-114 0 -204 34 q-89 34 -147 87q-55 50 -93 124q-37 70 -52 141q-16 74 -16 140zM350 635h441v12q0 68 -41 121q-45 56 -148 61q-201 -1 -252 -194z" />
<glyph unicode="f" horiz-adv-x="751" d="M20 850v141q0 33 33 33h78v88q0 168 102 255t261 87q124 0 247 -51q24 -10 24 -28q0 -8 -5 -17l-45 -125q-17 -31 -43 -21q-95 31 -162 31q-58 0 -96 -34q-39 -35 -39 -105v-80h166q32 0 32 -33v-141q0 -33 -32 -33h-166v-784q0 -33 -33 -33h-178q-33 0 -33 33v784h-78 q-33 0 -33 33z" />
<glyph unicode="g" horiz-adv-x="1167" d="M123 -115q1 59 31 121q28 59 90 86q-97 47 -97 170q0 59 32 111q31 51 87 63q-80 72 -80 221q0 69 21 133q22 66 62 124q43 61 123 97q81 36 190 36q116 0 200 -46l123 113q12 12 23.5 12t23.5 -12l90 -92q12 -12 12 -23.5t-12 -23.5l-110 -123q47 -67 47 -195 q0 -65 -21 -130q-22 -67 -64 -125q-43 -59 -125 -97q-80 -37 -187 -37q-92 0 -154 25q-28 0 -49 -18t-21 -39q0 -35 38 -53q31 -15 81 -15h12h40q184 0 300 -34q125 -38 167 -99q42 -62 42 -158q0 -35 -13 -75q-14 -43 -53 -101t-137 -99q-96 -40 -239 -40q-132 0 -228 31 q-97 31 -149 82q-50 49 -74 104q-22 51 -22 106zM348 -123q0 -6 5 -18q3 -7 21 -25q10 -10 40 -25q25 -13 68 -20q50 -9 100 -10q63 0 107 10q47 11 69 24q24 14 36 29q13 16 15 25q2 10 2 12q0 31 -21 50q-22 20 -71 26q-37 5 -67 7q-12 1 -70 1q-139 0 -186 -22 q-48 -23 -48 -64zM432 657q0 -19 5 -46q4 -19 19 -55q13 -31 46 -52t80 -21q61 0 98 37q38 38 45 71q8 37 8 66q0 31 -8 68q-7 35 -45 72q-37 37 -98 37q-60 0 -97 -36t-45 -71q-8 -37 -8 -70z" />
<glyph unicode="h" horiz-adv-x="1191" d="M164 33v1368q0 33 33 33h176q32 0 32 -33v-438q89 77 230 77q111 0 194 -30q79 -29 127 -78q44 -46 72 -120q26 -70 34 -136q7 -59 7 -148v-495q0 -33 -33 -33h-176q-33 0 -33 33v495q0 55 -4 88q-5 43 -17 81q-14 45 -37 71q-24 27 -68 45q-38 16 -91 16h-12 q-59 -1 -114 -32q-54 -30 -78 -68v-696q0 -33 -33 -33h-176q-33 0 -33 33z" />
<glyph unicode="i" horiz-adv-x="571" d="M147 1346q0 59 40 99t100 40q58 0 98 -40q41 -41 41 -99q0 -62 -40 -101t-99 -39t-100 39q-40 39 -40 101zM164 33v958q0 33 33 33h178q33 0 33 -33v-958q0 -33 -33 -33h-178q-33 0 -33 33z" />
<glyph unicode="j" horiz-adv-x="563" d="M-250 -270l72 116q15 29 45 13q86 -47 145 -47q125 0 125 186v993q0 33 33 33h178q33 0 33 -33v-993v-4q0 -34 -1 -50q-2 -37 -8 -77q-8 -54 -31 -95q-27 -46 -59 -87q-37 -46 -103 -70q-69 -25 -152 -25q-146 0 -269 91q-16 11 -16 26q0 10 8 23zM121 1348q0 59 40 99 t99 40q58 0 99 -41q40 -40 40 -98q0 -62 -40 -101q-41 -39 -99 -39t-99 39q-40 39 -40 101z" />
<glyph unicode="k" horiz-adv-x="1179" d="M164 33v1368q0 33 33 33h176q33 0 33 -33v-813l370 411q23 25 55 25h222q10 0 13 -8q4 -9 -3 -17l-424 -462l457 -512q4 -5 4 -11q0 -3 -1 -6q-3 -8 -14 -8h-225q-32 0 -55 25l-399 440v-432q0 -33 -33 -33h-176q-33 0 -33 33z" />
<glyph unicode="l" horiz-adv-x="571" d="M164 33v1368q0 33 33 33h178q33 0 33 -33v-1368q0 -33 -33 -33h-178q-33 0 -33 33z" />
<glyph unicode="m" horiz-adv-x="1771" d="M164 33v958q0 33 33 33h92q32 0 43 -31l18 -49q124 96 283 96q212 0 311 -114l23 18q125 96 282 96q83 0 144 -16q64 -17 104 -42q41 -26 71 -69q30 -44 45 -82q16 -41 23 -97q10 -63 11 -100q2 -56 2 -106v-495q0 -33 -33 -33h-180q-33 0 -33 33v495v38v42q0 20 -1 40 q-2 32 -4 42l-9 36q-5 18 -15 35q-3 5 -10 14t-10 13q-12 17 -29 23q-15 5 -38 12q-21 6 -48 6q-71 0 -128 -32q-59 -33 -87 -78q8 -66 8 -191v-495q0 -33 -33 -33h-180q-33 0 -33 33v495v38v42q0 20 -1 40q-2 33 -4 42l-9 36q-5 21 -14 35q-3 4 -10 13t-11 14 q-13 17 -28 23q-15 5 -38 12q-21 6 -48 6q-73 0 -130 -32q-59 -33 -87 -78v-686q0 -33 -33 -33h-176q-33 0 -33 33z" />
<glyph unicode="n" horiz-adv-x="1191" d="M164 33v958q0 33 33 33h92q32 0 43 -31l18 -49q124 96 283 96q111 0 192 -31q79 -30 128 -79q45 -45 73 -119t35 -136q8 -69 8 -147v-495q0 -33 -33 -33h-180q-33 0 -33 33v495q0 301 -200 301q-73 0 -130 -32q-59 -33 -87 -78v-686q0 -33 -33 -33h-176q-33 0 -33 33z " />
<glyph unicode="o" horiz-adv-x="1265" d="M123 514q0 90 25 174q26 87 81 169q56 84 160 134q105 51 244 51t244 -51q102 -50 159 -134q55 -82 81 -169t26 -174q0 -88 -26 -177q-25 -86 -81 -169q-56 -84 -159 -132q-106 -50 -244 -50t-244 50q-104 49 -160 132t-81 169q-25 85 -25 177zM362 514q0 -18 6 -64 q5 -36 22 -82q18 -47 45 -85q26 -37 79 -63q50 -25 119 -25q84 0 140 36q58 37 84 95t36 103q10 44 10 85t-10 85q-10 45 -36 103t-84 95t-140 37q-67 0 -119 -26q-53 -26 -79 -63q-27 -38 -45 -85t-22 -81q-6 -46 -6 -65z" />
<glyph unicode="p" horiz-adv-x="1255" d="M164 -377v1368q0 33 33 33h92q32 0 43 -31l18 -49q124 96 283 96q112 0 197 -33q92 -36 144 -88q53 -53 91 -126q36 -70 52 -142q16 -74 16 -139q0 -82 -25 -170q-23 -81 -76 -165q-52 -82 -148 -134q-98 -53 -229 -59h-65q-98 6 -184 39v-400q0 -33 -33 -33h-176 q-33 0 -33 33zM406 250q82 -57 200 -57q87 0 145 35q61 36 89 90q29 55 41 103t12 91q0 27 -5 65q-4 30 -23 81q-18 47 -45 85q-26 37 -79 63q-50 25 -118 25q-145 0 -217 -112v-469z" />
<glyph unicode="q" horiz-adv-x="1255" d="M123 512q0 70 15 139q16 72 52 142q37 71 92 126q53 53 143 88q85 33 198 33q157 0 282 -96l19 49q11 31 43 31h92q33 0 33 -33v-1368q0 -33 -33 -33h-176q-33 0 -33 33v400q-86 -33 -184 -39h-66q-129 6 -228 59q-98 53 -149 134q-53 84 -76 165q-24 84 -24 170z M362 512q0 -39 13 -91q12 -48 41 -103q28 -54 89 -90q58 -35 144 -35q119 0 201 57v469q-72 112 -217 112q-69 0 -119 -25q-53 -26 -79 -63q-27 -38 -45 -85t-22 -81q-6 -46 -6 -65z" />
<glyph unicode="r" horiz-adv-x="794" d="M164 33v958q0 33 33 33h92q32 0 43 -31l18 -49q124 96 283 96q27 0 88 -8q28 -7 28 -30q0 -4 -1 -9l-27 -153q-6 -31 -39 -27q-37 8 -64 8q-75 0 -133 -29q-57 -29 -79 -81v-678q0 -33 -33 -33h-176q-33 0 -33 33z" />
<glyph unicode="s" horiz-adv-x="1026" d="M137 125l60 127q15 31 43 16q149 -75 272 -75q60 0 101 25q42 26 42 67q0 43 -38 73q-40 32 -94 46q-47 12 -123 40q-57 21 -122 55q-58 30 -95 90q-38 61 -38 144q0 142 94 225q92 82 246 82q167 0 353 -86q31 -15 16 -45l-59 -133q-15 -27 -45 -16q-147 63 -230 63 q-137 0 -143 -80q2 -41 56 -68q53 -27 131 -51q83 -26 154 -58q78 -35 131 -104q54 -70 54 -175q0 -133 -107 -218t-272 -85q-194 0 -372 96q-20 11 -20 27q0 8 5 18z" />
<glyph unicode="t" horiz-adv-x="653" d="M20 848v143q0 33 33 33h78l16 170q5 33 37 33h158q33 0 33 -33v-170h168q32 0 32 -33v-143q0 -33 -32 -33h-168v-528q0 -33 4 -49q5 -19 20 -33t50 -12q20 2 112 22q33 6 39 -25l27 -124q1 -6 1 -11q0 -23 -28 -30q-129 -37 -238 -37q-75 0 -123 29q-52 31 -72 79 q-22 53 -29 86q-7 35 -7 72v561h-78q-33 0 -33 33z" />
<glyph unicode="u" horiz-adv-x="1191" d="M123 498v495q0 33 33 33h180q33 0 33 -33v-495q0 -301 200 -301q73 0 130 32q59 33 87 78v686q0 33 33 33h176q33 0 33 -33v-958q0 -33 -33 -33h-92q-32 0 -43 31l-18 49q-124 -96 -283 -96q-111 0 -192 31q-79 30 -128 79q-45 45 -73 119t-35 136q-8 69 -8 147z" />
<glyph unicode="v" horiz-adv-x="1093" d="M70 993q-2 4 -2 8q0 6 4 13q6 10 18 10h201q29 0 45 -31l213 -520l211 520q16 31 45 31h201q10 0 16 -10q4 -7 4 -13q0 -4 -2 -8l-442 -985q-10 -24 -39 -24q-27 0 -37 24z" />
<glyph unicode="w" horiz-adv-x="1687" d="M74 993q-2 4 -2 8q0 6 4 13q6 10 18 10h201q29 0 45 -31l219 -522l248 547q11 24 37 24t37 -24l247 -547l220 522q16 31 45 31h200q11 0 17 -10q4 -7 4 -13q0 -4 -2 -8l-443 -991q-6 -20 -30 -20q-23 0 -33 20l-262 551l-262 -551q-10 -20 -33 -20t-33 20z" />
<glyph unicode="x" horiz-adv-x="997" d="M78 29l289 481l-287 485q-3 4 -3 8.5t3 10.5q6 10 16 10h213q32 0 49 -29l142 -258l139 258q17 29 49 29h215q11 0 16 -9q3 -6 3 -11q0 -4 -2 -9l-287 -485l287 -481q2 -4 2 -9q0 -6 -3 -11q-5 -9 -16 -9h-217q-32 0 -49 29l-137 254l-140 -254q-17 -29 -49 -29h-217 q-10 0 -15 9q-3 6 -3 11t2 9z" />
<glyph unicode="y" horiz-adv-x="1185" d="M70 993q-2 4 -2 8q0 6 4 13q6 10 18 10h201q29 0 45 -31l258 -649l256 649q16 31 45 31h205q12 0 18 -10q4 -7 4 -13q0 -4 -2 -8l-579 -1370q-15 -31 -45 -31h-195q-12 0 -18 11t-2 20l184 440z" />
<glyph unicode="z" horiz-adv-x="1032" d="M121 33q0 33 16 61l402 703h-357q-32 0 -32 32v162q0 33 32 33h692q33 0 33 -33v-6q0 -33 -16 -61l-399 -697h393q33 0 33 -32v-162q0 -33 -33 -33h-731q-33 0 -33 33z" />
<glyph unicode="{" horiz-adv-x="638" d="M61 543v98q0 33 33 33h4q36 6 63 38t27 85v434q0 100 34 171q35 74 76 107q43 35 95 56q49 19 79 23q25 3 40 3h33q33 0 33 -32v-121q0 -33 -33 -33h-25q-5 0 -17 -2q-11 -2 -25 -13q-13 -10 -26 -30q-12 -18 -21 -56t-9 -90v-436q0 -58 -34 -107q-36 -52 -79 -75v-8 q42 -22 78 -73q35 -50 35 -107v-439q0 -51 9 -89t21 -56q13 -20 26 -30q14 -11 25 -13q12 -2 17 -2h25q33 0 33 -33v-121q0 -33 -33 -33h-33q-6 0 -40 4q-30 4 -79 23q-55 22 -95 55t-76 108q-34 71 -34 171v436q0 54 -27 84q-28 31 -63 37h-4q-33 0 -33 33z" />
<glyph unicode="|" horiz-adv-x="428" d="M123 -379v1925q0 33 33 33h116q33 0 33 -33v-1925q0 -33 -33 -33h-116q-33 0 -33 33z" />
<glyph unicode="}" horiz-adv-x="638" d="M61 -254q0 33 33 33h25q5 0 17 2q11 2 25 13q13 10 26 30q12 18 21 56q9 37 9 89v439q0 57 35 107q36 51 78 73v8q-43 23 -79 75q-34 49 -34 107v436q0 52 -9 90t-21 56q-13 20 -26 30q-14 11 -25 13q-12 2 -17 2h-25q-33 0 -33 33v121q0 32 33 32h33q15 0 40 -3 q30 -4 79 -23q52 -21 95 -56q41 -33 76 -107q34 -71 34 -171v-434q0 -53 27 -85t63 -38h4q33 0 33 -33v-98q0 -33 -33 -33h-4q-35 -6 -63 -37q-27 -30 -27 -84v-436q0 -100 -34 -171q-36 -75 -76 -108t-95 -55q-49 -19 -79 -23q-34 -4 -40 -4h-33q-33 0 -33 33v121z" />
<glyph unicode="~" horiz-adv-x="1273" d="M139 571q135 209 332 209q74 0 179 -60q107 -61 161 -61q82 0 172 107q22 22 45 4l96 -78q29 -21 11 -49q-128 -209 -326 -209q-85 0 -194 63q-108 62 -152 62q-89 0 -172 -98q-23 -23 -47 -6l-94 69q-27 21 -11 47z" />
<glyph unicode="&#xa1;" horiz-adv-x="688" d="M205 893q0 60 40 100q41 41 99 41q57 0 98 -41t41 -100t-40 -99t-99 -40t-99 40t-40 99zM223 168l35 399q0 15 10 24t25 9h100q15 0 25 -9t10 -24l37 -399v-543q0 -33 -33 -33h-176q-33 0 -33 33v543z" />
<glyph unicode="&#xa2;" horiz-adv-x="1167" d="M123 508q0 86 19 163t63 156t127 132q86 55 198 73v113q0 33 33 33h117q33 0 33 -33v-111q162 -24 295 -157q23 -23 0 -48l-95 -106q-21 -24 -47 -2q-68 62 -153 86v-582q73 18 143 80q24 21 49 0l115 -102q24 -21 2 -47q-133 -143 -309 -166v-121q0 -33 -33 -33h-117 q-33 0 -33 33v127q-141 22 -239 112q-96 89 -132 190q-36 102 -36 210zM365 508q0 -103 46 -173q47 -71 119 -99v561q-78 -34 -122 -114q-43 -79 -43 -175z" />
<glyph unicode="&#xa3;" horiz-adv-x="1277" d="M109 119q78 123 178 172v522h-78q-33 0 -33 33v141q0 33 33 33h78v88q0 168 102 255t260 87q125 0 248 -51q33 -15 18 -45l-45 -125q-17 -31 -43 -21q-95 31 -161 31q-59 0 -97 -34q-39 -35 -39 -105v-80h166q33 0 33 -33v-141q0 -33 -33 -33h-166v-502q158 -86 220 -98 q20 -4 43 -4q99 0 194 104q20 22 47 4l96 -77q25 -24 9 -50q-67 -106 -166 -157t-195 -51q-85 0 -193 62t-153 62q-89 0 -172 -98q-23 -23 -47 -6l-94 70q-26 20 -10 47z" />
<glyph unicode="&#xa4;" horiz-adv-x="1345" d="M145 121q-23 23 0 45l168 164q-53 100 -53 221q0 137 59 240l-174 176q-23 23 0 45l82 82q23 22 45 0l172 -174q99 57 228 57q135 0 229 -59l172 176q23 22 45 0l82 -82q22 -22 0 -45l-176 -179q59 -103 59 -237q0 -128 -49 -219l166 -166q22 -22 0 -45l-82 -82 q-22 -23 -45 0l-158 156q-102 -70 -243 -70q-153 0 -244 68l-156 -154q-22 -23 -45 0zM508 551q0 -35 9 -74q9 -40 49 -80q41 -41 106 -41q64 0 105 41q40 40 49 80q10 43 10 74t-10 74q-9 40 -49 81q-40 42 -105 42q-66 0 -106 -42q-40 -41 -49 -81q-9 -39 -9 -74z" />
<glyph unicode="&#xa5;" horiz-adv-x="1341" d="M70 1405q-4 9 1 19t15 10h221q32 0 49 -29l314 -533l313 533q17 29 49 29h225q11 0 16 -11t-1 -18l-473 -754h196q33 0 33 -33v-129q0 -32 -33 -32h-200v-144h200q33 0 33 -32v-127q0 -33 -33 -33h-200v-88q0 -33 -33 -33h-184q-33 0 -33 33v88h-199q-33 0 -33 33v127 q0 32 33 32h199v144h-199q-33 0 -33 32v129q0 33 33 33h193z" />
<glyph unicode="&#xa6;" horiz-adv-x="425" d="M123 340q0 33 33 33h114q33 0 33 -33v-715q0 -33 -33 -33h-114q-33 0 -33 33v715zM123 838v714q0 33 33 33h114q33 0 33 -33v-714q0 -33 -33 -33h-114q-33 0 -33 33z" />
<glyph unicode="&#xa7;" horiz-adv-x="1210" d="M184 -203l95 119q22 27 47 8q159 -114 274 -114q65 0 113 35q49 36 49 98q0 104 -238 223q-323 147 -323 401q0 148 127 260q-113 128 -113 258q0 135 107 247t301 112q175 0 368 -131q26 -18 8 -45l-90 -131q-19 -26 -47 -11q-134 80 -229 86q-83 0 -124 -34t-46 -82 q0 -104 192 -195q181 -85 285 -182q107 -99 107 -236q0 -149 -140 -268q119 -140 119 -278q0 -160 -116 -261q-115 -100 -283 -100q-231 0 -439 172q-24 21 -4 49zM440 584q0 -47 32 -88q34 -43 69 -63q45 -25 94 -51q66 -35 80 -44q66 60 71 131q0 38 -35 74q-33 34 -74 59 q-30 18 -98 52l-49 24.5t-26 13.5q-64 -61 -64 -108z" />
<glyph unicode="&#xa8;" horiz-adv-x="1191" d="M217 1348q0 59 40 99t99 40q58 0 99 -41t41 -98q0 -62 -40 -101t-100 -39q-58 0 -99 39q-40 39 -40 101zM696 1348q0 59 40 99t100 40q57 0 98 -41t41 -98q0 -62 -40 -101q-41 -39 -99 -39q-60 0 -100 39t-40 101z" />
<glyph unicode="&#xa9;" horiz-adv-x="1200" d="M82 930q0 203 151 358q152 156 367 156t367 -152q151 -151 151 -366q0 -216 -151 -367t-367 -151q-206 0 -361 151q-157 152 -157 371zM211 926q0 -164 114 -277q113 -112 275 -112q163 0 276 112t113 277q0 164 -113 277q-114 114 -276 114q-161 0 -275 -114t-114 -277z M313 924q0 -104 72 -195q72 -92 217 -92q120 0 205 82q25 25 -2 47l-37 31q-24 23 -51 2q-60 -39 -115 -39q-60 0 -104 45q-43 44 -43 119q0 74 43 118q44 45 104 45q56 0 115 -40q29 -18 51 4l37 30q24 21 2 47q-85 82 -205 82q-145 0 -217 -92t-72 -194z" />
<glyph unicode="&#xaa;" horiz-adv-x="821" d="M82 897q0 252 321 252q26 0 113 -10v12q-2 90 -31 118q-29 27 -96 27q-62 0 -176 -41q-31 -12 -43 19l-33 72q-12 30 17 45q122 57 227 63q87 5 146 -13q62 -18 94 -45q33 -27 51 -77q17 -48 22 -89q4 -36 4 -100v-421q0 -33 -32 -33h-56q-32 0 -43 31l-8 30 q-93 -75 -203 -75q-82 0 -141 25t-86 66q-27 40 -37 74q-10 33 -10 70zM252 909q0 -47 32 -71q33 -25 78 -25q102 0 154 90v90l-98 8q-166 0 -166 -92z" />
<glyph unicode="&#xab;" horiz-adv-x="1060" d="M61 514q0 26 19 45l319 338q21 24 47 2l72 -61q27 -22 4 -50l-221 -274l221 -276q24 -25 -4 -48l-72 -61q-26 -22 -47 2l-319 338q-19 19 -19 45zM518 514q0 26 19 45l319 338q21 24 47 2l72 -61q27 -22 4 -50l-221 -274l221 -276q24 -25 -4 -48l-72 -61q-26 -22 -47 2 l-319 338q-19 19 -19 45z" />
<glyph unicode="&#xac;" horiz-adv-x="1284" d="M164 494v333q0 33 33 33h890q33 0 33 -33v-618q0 -33 -33 -33h-352q-33 0 -33 33v252h-505q-33 0 -33 33z" />
<glyph unicode="&#xad;" horiz-adv-x="819" d="M125 334v135q0 33 33 33h512q32 0 32 -33v-135q0 -33 -32 -33h-512q-33 0 -33 33z" />
<glyph unicode="&#xae;" horiz-adv-x="1200" d="M82 930q0 203 151 358q152 156 367 156t367 -152q151 -151 151 -366q0 -216 -151 -367t-367 -151q-206 0 -361 151q-157 152 -157 371zM211 926q0 -164 114 -277q113 -112 275 -112q163 0 276 112t113 277q0 164 -113 277q-114 114 -276 114q-161 0 -275 -114t-114 -277z M422 700v455q0 33 33 33h172q101 0 147 -54q47 -55 47 -122q0 -47 -28 -90q-29 -44 -72 -68l90 -158q6 -8 0 -18t-16 -10h-72q-35 0 -47 28l-72 135h-65v-131q0 -32 -33 -32h-51q-33 0 -33 32zM539 944h96q65 1 65 68q0 25 -15 46t-54 21h-92v-135z" />
<glyph unicode="&#xaf;" horiz-adv-x="1056" d="M231 1253v113q0 33 33 33h551q33 0 33 -33v-113q0 -32 -33 -32h-551q-33 0 -33 32z" />
<glyph unicode="&#xb0;" horiz-adv-x="675" d="M61 1178q0 114 81 195t196 81q116 0 196 -79t80 -197q0 -116 -80 -196q-81 -81 -196 -81t-196 81t-81 196zM215 1178q0 -52 36 -87q35 -34 87 -34q48 0 82 34q35 35 35 87q0 48 -35 83q-33 33 -82 33t-86 -34t-37 -82z" />
<glyph unicode="&#xb1;" horiz-adv-x="1132" d="M164 80v123q0 33 33 33h739q33 0 33 -33v-123q0 -33 -33 -33h-739q-33 0 -33 33zM164 627v129q0 32 33 32h272v273q0 33 33 33h129q33 0 33 -33v-273h272q33 0 33 -32v-129q0 -33 -33 -33h-272v-186q0 -33 -33 -33h-129q-33 0 -33 33v186h-272q-33 0 -33 33z" />
<glyph unicode="&#xb2;" horiz-adv-x="722" d="M137 1544q96 107 228 107q98 0 156 -60q59 -61 59 -145q0 -72 -80 -191l-105 -147h137q33 0 33 -33v-74q0 -32 -33 -32h-366q-23 0 -23 22q0 21 13 41l223 320q43 61 43 100q0 22 -15 39q-15 16 -42 16q-59 0 -127 -57q-25 -22 -50 0l-47 47q-27 22 -4 47z" />
<glyph unicode="&#xb3;" horiz-adv-x="704" d="M131 1077l41 43q20 22 47 4q48 -32 115 -32q35 0 61 20q27 21 27 53q0 38 -26 59t-62 21h-72q-33 0 -33 33v51q0 33 33 33h72q36 0 62 21t26 59q0 34 -26 54t-62 20q-51 0 -111 -39q-27 -18 -47 4l-41 47q-18 27 2 47q88 76 197 76q124 0 179 -67q54 -66 54 -142 q0 -37 -20 -78q-21 -44 -53 -61q73 -49 73 -138q0 -73 -54 -141t-179 -68q-110 0 -201 76q-24 18 -2 45z" />
<glyph unicode="&#xb4;" horiz-adv-x="1044" d="M334 1294q-18 26 6 47l254 211q25 22 43 -6l78 -110q8 -11 5 -24t-15 -19l-283 -168q-28 -15 -47 10z" />
<glyph unicode="&#xb6;" horiz-adv-x="1355" d="M82 1012q0 75 20 141q22 71 66 136q47 69 130 108q87 41 198 41h663q33 0 33 -33v-117q0 -33 -33 -33h-104v-1630q0 -33 -33 -33h-115q-32 0 -32 33v1630h-185v-1630q0 -33 -33 -33h-114q-33 0 -33 33v961h-14q-111 0 -198 41q-84 40 -130 107q-44 65 -66 136 q-20 66 -20 142z" />
<glyph unicode="&#xb7;" horiz-adv-x="548" d="M123 608q0 64 43 107t106 43q65 0 109 -43q45 -44 45 -107t-45 -108t-109 -45q-62 0 -106 45q-43 44 -43 108z" />
<glyph unicode="&#xb8;" horiz-adv-x="1134" d="M471 -365l39 68q15 29 45 14q53 -22 94 -22q33 0 51 19q19 21 19 44q0 62 -107 62h-12q-18 0 -33 12q-12 15 -12 33v178q0 33 33 33h82q32 0 32 -33v-98q97 0 145 -57t48 -130q0 -104 -68 -161q-69 -58 -159 -58q-105 0 -187 49q-28 18 -10 47z" />
<glyph unicode="&#xb9;" horiz-adv-x="491" d="M25 1440q-15 28 10 47l184 133q24 18 60 18h10q33 0 33 -32v-605q0 -32 -33 -32h-94q-33 0 -33 32v410l-64 -29q-29 -15 -45 15z" />
<glyph unicode="&#xba;" horiz-adv-x="774" d="M82 1128q0 73 26 142t97 122q72 54 182 54t182 -54t98 -122q25 -66 25 -142q0 -55 -15 -106q-15 -52 -48 -101q-34 -51 -95 -80q-63 -30 -147 -30q-83 0 -146 30t-96 80q-33 49 -48 101q-15 51 -15 106zM121 496v122q0 33 33 33h464q33 0 33 -33v-122q0 -33 -33 -33h-464 q-33 0 -33 33zM266 1128q0 -29 7 -54q7 -27 36 -57t78 -30t78 30t36 57q7 25 7 54q0 28 -7 53q-7 27 -36 57t-78 30t-78 -30t-36 -57q-7 -25 -7 -53z" />
<glyph unicode="&#xbb;" horiz-adv-x="1060" d="M82 238l221 276l-221 274q-23 28 4 50l72 61q26 22 47 -2l319 -338q19 -19 19 -45t-19 -45l-319 -338q-21 -24 -47 -2l-72 61q-28 23 -4 48zM539 238l221 276l-221 274q-23 28 4 50l71 61q27 22 48 -2l319 -338q18 -18 18 -45t-18 -45l-319 -338q-21 -24 -48 -2l-71 61 q-28 23 -4 48z" />
<glyph unicode="&#xbc;" horiz-adv-x="1212" d="M68 1241q-15 28 10 47l184 133q25 19 60 19h10q33 0 33 -33v-604q0 -33 -33 -33h-94q-33 0 -33 33v409l-64 -28q-30 -15 -45 14zM158 29l688 1376q15 29 47 29h113q9 0 16 -10q6 -9 2 -19l-686 -1376q-15 -29 -47 -29h-115q-10 0 -16 9q-6 10 -2 20zM614 139v58 q0 34 19 59l266 389q21 27 51 27h60q32 0 32 -33v-381h64q33 0 33 -33v-86q0 -33 -33 -33h-64v-73q0 -33 -32 -33h-86q-33 0 -33 33v73h-244q-33 0 -33 33zM793 258h98v148z" />
<glyph unicode="&#xbd;" horiz-adv-x="1308" d="M68 1241q-15 28 10 47l184 133q25 19 60 19h10q33 0 33 -33v-604q0 -33 -33 -33h-94q-33 0 -33 33v409l-64 -28q-30 -15 -45 14zM158 29l688 1376q15 29 47 29h113q9 0 16 -10q6 -9 2 -19l-686 -1376q-15 -29 -47 -29h-115q-10 0 -16 9q-6 10 -2 20zM756 25q0 22 14 43 l242 315q43 52 43 100q0 21 -16 39q-15 17 -42 17q-58 0 -127 -58q-24 -21 -49 0l-47 47q-27 22 -4 47q96 107 227 107q99 0 157 -59t58 -146q0 -95 -79 -190l-117 -148h149q33 0 33 -32v-74q0 -33 -33 -33h-385q-24 0 -24 25z" />
<glyph unicode="&#xbe;" horiz-adv-x="1296" d="M76 870l41 43q21 22 47 5q49 -33 115 -33q35 0 61 20q27 21 27 53q0 38 -26 59t-62 21h-72q-33 0 -33 33v51q0 33 33 33h72q35 0 62 22q26 21 26 58q0 34 -26 54t-62 20q-51 0 -111 -39q-27 -18 -47 4l-41 47q-18 27 2 47q88 76 197 76q124 0 179 -67q54 -66 54 -142 q0 -37 -20 -78q-21 -43 -54 -61q74 -50 74 -138q0 -74 -54 -141t-179 -67q-111 0 -201 75q-24 18 -2 45zM246 29l688 1376q15 29 47 29h113q9 0 16 -10q6 -9 2 -19l-686 -1376q-15 -29 -47 -29h-115q-10 0 -16 9q-6 10 -2 20zM702 139v58q0 34 19 59l266 389q21 27 51 27h60 q32 0 32 -33v-381h64q33 0 33 -33v-86q0 -33 -33 -33h-64v-73q0 -33 -32 -33h-86q-33 0 -33 33v73h-244q-33 0 -33 33zM881 258h98v148z" />
<glyph unicode="&#xbf;" horiz-adv-x="1150" d="M164 -84q0 72 34 147q36 79 66 119q33 44 90 111q103 120 103 166l14 94q5 33 37 33h139q33 0 33 -33v-100q0 -82 -34 -141q-37 -64 -101 -134q-50 -55 -67 -78q-20 -28 -45 -80q-23 -49 -23 -102q0 -23 6 -44q7 -24 22 -46q16 -24 51 -39q31 -14 86 -12q102 5 242 139 q23 22 45 0l101 -98q24 -21 2 -47q-105 -111 -203 -160t-225 -49q-167 0 -270 93t-103 261zM430 891q0 57 43 99t100 42q63 0 103 -39q41 -39 41 -102q0 -59 -42 -100q-43 -41 -102 -41q-58 0 -101 41q-42 41 -42 100z" />
<glyph unicode="&#xc0;" horiz-adv-x="1452" d="M74 31l602 1390q11 31 45 31h10q29 0 45 -31l602 -1390q4 -10 -2 -21q-6 -10 -18 -10h-213q-29 0 -45 31l-135 334h-480l-133 -334q-16 -31 -45 -31h-213q-12 0 -18 10q-6 11 -2 21zM529 1822q-2 11 6 23l77 111q18 28 43 6l254 -211q24 -21 6 -47l-41 -59 q-19 -26 -47 -11l-282 168q-13 7 -16 20zM571 575h310l-154 386z" />
<glyph unicode="&#xc1;" horiz-adv-x="1452" d="M74 31l602 1390q11 31 45 31h10q29 0 45 -31l602 -1390q4 -10 -2 -21q-6 -10 -18 -10h-213q-29 0 -45 31l-135 334h-480l-133 -334q-16 -31 -45 -31h-213q-12 0 -18 10q-6 11 -2 21zM535 1704q-18 26 6 47l254 211q25 22 43 -6l77 -111q8 -12 6 -23q-3 -13 -16 -20 l-282 -168q-29 -15 -48 11zM571 575h310l-154 386z" />
<glyph unicode="&#xc2;" horiz-adv-x="1452" d="M74 31l602 1390q11 31 45 31h10q29 0 45 -31l602 -1390q4 -10 -2 -21q-6 -10 -18 -10h-213q-29 0 -45 31l-135 334h-480l-133 -334q-16 -31 -45 -31h-213q-12 0 -18 10q-6 11 -2 21zM440 1700q-18 26 6 47l254 211q25 22 50 0l254 -211q24 -21 6 -47l-41 -60 q-19 -25 -47 -10l-197 117l-197 -117q-28 -15 -47 10zM571 575h310l-154 386z" />
<glyph unicode="&#xc3;" horiz-adv-x="1452" d="M74 31l602 1390q11 31 45 31h10q29 0 45 -31l602 -1390q4 -10 -2 -21q-6 -10 -18 -10h-213q-29 0 -45 31l-135 334h-480l-133 -334q-16 -31 -45 -31h-213q-12 0 -18 10q-6 11 -2 21zM397 1690q67 172 224 172q55 0 116 -36t84 -36q43 0 82 55q19 30 45 15l88 -48 q29 -16 15 -43q-85 -165 -234 -165q-50 0 -106 38q-57 39 -93 39q-45 0 -79 -59q-17 -29 -43 -14l-80 37q-31 15 -19 45zM571 575h310l-154 386z" />
<glyph unicode="&#xc4;" horiz-adv-x="1452" d="M74 31l602 1390q11 31 45 31h10q29 0 45 -31l602 -1390q4 -10 -2 -21q-6 -10 -18 -10h-213q-29 0 -45 31l-135 334h-480l-133 -334q-16 -31 -45 -31h-213q-12 0 -18 10q-6 11 -2 21zM352 1757q0 60 40 100q39 39 100 39q57 0 98 -41t41 -98q0 -61 -40 -100 q-41 -39 -99 -39q-60 0 -100 39t-40 100zM571 575h310l-154 386zM831 1757q0 60 40 100q39 39 100 39q57 0 98 -41t41 -98q0 -61 -40 -100t-99 -39t-100 39q-40 39 -40 100z" />
<glyph unicode="&#xc5;" horiz-adv-x="1452" d="M74 31l602 1390q11 31 45 31h10q29 0 45 -31l602 -1390q4 -10 -2 -21q-6 -10 -18 -10h-213q-29 0 -45 31l-135 334h-480l-133 -334q-16 -31 -45 -31h-213q-12 0 -18 10q-6 11 -2 21zM518 1819q0 85 62 147t147 62q86 0 146 -62q61 -63 61 -147q0 -86 -61 -147 q-60 -60 -146 -60q-85 0 -147 60t-62 147zM571 575h310l-154 386zM643 1819q0 -34 26 -58q25 -24 58 -24t57 24q25 25 25 58q0 31 -25 58q-24 26 -57 26q-35 0 -59 -26q-25 -27 -25 -58z" />
<glyph unicode="&#xc6;" horiz-adv-x="1808" d="M74 31l616 1372q16 31 47 31h916q33 0 33 -33v-160q0 -33 -33 -33h-676v-389h522q33 0 33 -33v-159q0 -33 -33 -33h-522v-369h676q33 0 33 -32v-160q0 -33 -33 -33h-893q-33 0 -33 33v334h-235l-140 -336q-16 -31 -45 -31h-213q-12 0 -18 10q-6 11 -2 21zM578 575h149 v359z" />
<glyph unicode="&#xc7;" horiz-adv-x="1501" d="M123 719q0 101 20 191q22 98 73 196q52 99 130 176q77 76 204 124q126 48 284 48q308 0 522 -225q22 -26 -2 -47l-119 -115q-24 -21 -47 2q-66 66 -162 111t-192 45q-112 0 -200 -41q-87 -40 -134 -100q-48 -60 -77 -133q-31 -77 -38 -130q-8 -59 -8 -102q0 -44 8 -103 q7 -53 38 -130q29 -73 77 -133q46 -58 134 -99t200 -41q181 0 370 156q27 23 45 -4l105 -132q23 -25 -4 -47q-194 -185 -461 -202v-39q96 0 144 -57t48 -130q0 -104 -67 -161q-69 -58 -160 -58q-104 0 -186 49q-29 18 -11 47l39 68q15 29 45 14q53 -22 95 -22q33 0 51 19 q18 20 18 44q0 62 -106 62h-13q-16 0 -32 12q-13 16 -13 33v121q-136 12 -245 65t-178 128q-66 72 -113 170q-46 97 -64 187q-18 92 -18 183z" />
<glyph unicode="&#xc8;" horiz-adv-x="1286" d="M205 33v1368q0 33 33 33h892q33 0 33 -33v-160q0 -33 -33 -33h-675v-389h522q33 0 33 -33v-159q0 -33 -33 -33h-522v-369h675q33 0 33 -32v-160q0 -33 -33 -33h-892q-33 0 -33 33zM447 1822q-2 11 6 23l77 111q18 28 43 6l254 -211q24 -21 7 -47l-41 -59q-19 -26 -48 -11 l-282 168q-13 7 -16 20z" />
<glyph unicode="&#xc9;" horiz-adv-x="1286" d="M205 33v1368q0 33 33 33h892q33 0 33 -33v-160q0 -33 -33 -33h-675v-389h522q33 0 33 -33v-159q0 -33 -33 -33h-522v-369h675q33 0 33 -32v-160q0 -33 -33 -33h-892q-33 0 -33 33zM453 1704q-18 26 6 47l254 211q25 22 43 -6l78 -111q8 -11 5 -23q-3 -13 -16 -20 l-282 -168q-28 -15 -47 11z" />
<glyph unicode="&#xca;" horiz-adv-x="1286" d="M205 33v1368q0 33 33 33h892q33 0 33 -33v-160q0 -33 -33 -33h-675v-389h522q33 0 33 -33v-159q0 -33 -33 -33h-522v-369h675q33 0 33 -32v-160q0 -33 -33 -33h-892q-33 0 -33 33zM358 1700q-17 26 7 47l253 211q25 22 50 0l254 -211q24 -21 6 -47l-41 -60 q-19 -25 -47 -10l-197 117l-197 -117q-28 -15 -47 10z" />
<glyph unicode="&#xcb;" horiz-adv-x="1286" d="M205 33v1368q0 33 33 33h892q33 0 33 -33v-160q0 -33 -33 -33h-675v-389h522q33 0 33 -33v-159q0 -33 -33 -33h-522v-369h675q33 0 33 -32v-160q0 -33 -33 -33h-892q-33 0 -33 33zM293 1757q0 60 40 100q39 39 99 39q58 0 99 -41q40 -40 40 -98q0 -61 -40 -100 q-41 -39 -99 -39t-99 39q-40 39 -40 100zM772 1757q0 60 40 100q39 39 99 39q59 0 100 -41q40 -40 40 -98q0 -61 -40 -100q-41 -39 -100 -39t-99 39t-40 100z" />
<glyph unicode="&#xcc;" horiz-adv-x="417" d="M13 1822q-3 12 5 23l78 111q18 28 43 6l254 -211q24 -21 6 -47l-41 -59q-19 -26 -47 -11l-282 168q-13 7 -16 20zM82 33v1368q0 33 33 33h186q33 0 33 -33v-1368q0 -33 -33 -33h-186q-33 0 -33 33z" />
<glyph unicode="&#xcd;" horiz-adv-x="417" d="M18 1704q-17 26 7 47l254 211q25 22 43 -6l77 -111q8 -11 5 -23q-3 -14 -15 -20l-283 -168q-28 -15 -47 11zM82 33v1368q0 33 33 33h186q33 0 33 -33v-1368q0 -33 -33 -33h-186q-33 0 -33 33z" />
<glyph unicode="&#xce;" horiz-adv-x="606" d="M18 1700q-17 26 7 47l254 211q25 21 49 0l254 -211q24 -21 6 -47l-41 -60q-19 -25 -47 -10l-197 117l-197 -117q-28 -15 -47 10zM176 33v1368q0 33 33 33h186q33 0 33 -33v-1368q0 -33 -33 -33h-186q-33 0 -33 33z" />
<glyph unicode="&#xcf;" horiz-adv-x="757" d="M4 1724q-8 33 0 66q11 47 48 77q36 29 87 29q58 0 99 -41t41 -98q0 -61 -40 -100q-41 -39 -100 -39q-50 0 -88 30q-36 29 -47 76zM252 33v1368q0 33 33 33h186q33 0 33 -33v-1368q0 -33 -33 -33h-186q-33 0 -33 33zM479 1757q0 60 40 100q39 39 99 39q58 0 99 -41t41 -98 q0 -61 -40 -100t-100 -39q-58 0 -99 39q-40 39 -40 100z" />
<glyph unicode="&#xd0;" horiz-adv-x="1538" d="M72 647v144q0 32 32 32h101v578q0 33 33 33h469q158 0 283 -46q126 -46 203 -119q76 -71 129 -170q51 -96 73 -191q20 -89 20 -189q0 -104 -20 -194q-21 -95 -72 -191q-52 -99 -130 -169q-80 -73 -204 -119q-123 -46 -282 -46h-469q-33 0 -33 33v581h-101q-32 0 -32 33z M453 225h254q114 0 198 40q89 42 133 96q48 58 77 129q31 73 38 127q8 58 8 102t-8 100q-8 53 -38 126q-29 71 -77 129q-44 54 -133 96q-84 40 -198 40h-254v-387h272q33 0 33 -32v-144q0 -33 -33 -33h-272v-389z" />
<glyph unicode="&#xd1;" horiz-adv-x="1581" d="M205 33v1390q0 12 7 19q8 8 17 8q27 0 45 -18l850 -865v834q0 33 33 33h186q33 0 33 -33v-1393q0 -26 -28 -26t-45 20l-846 881v-850q0 -33 -33 -33h-186q-33 0 -33 33zM461 1710q67 172 223 172q56 0 117 -36t84 -36q43 0 82 56q18 29 45 14l88 -47q29 -15 14 -43 q-85 -166 -233 -166q-50 0 -107 39t-92 39q-46 0 -80 -60q-17 -29 -43 -14l-80 37q-30 15 -18 45z" />
<glyph unicode="&#xd2;" horiz-adv-x="1665" d="M123 719q0 101 20 191q22 98 73 196q52 99 130 176q77 76 204 124q126 48 284 48q155 0 281 -48q127 -48 204 -124q78 -77 130 -176q51 -98 73 -196q20 -90 20 -191q0 -125 -36 -246q-36 -122 -112 -235q-77 -115 -222 -186q-143 -70 -338 -70q-196 0 -340 70 q-145 70 -223 186q-76 113 -112 235q-36 121 -36 246zM377 719q0 -44 8 -103q7 -52 38 -131q29 -73 77 -134q46 -57 134 -100q87 -42 200 -42q112 0 198 42t132 100t76 134q31 79 38 131q8 59 8 103q0 43 -8 102q-7 53 -38 130q-30 75 -76 133q-48 60 -132 100 q-87 41 -198 41q-112 0 -200 -41q-87 -40 -134 -100q-48 -60 -77 -133q-31 -77 -38 -130q-8 -59 -8 -102zM636 1822q-3 12 5 23l78 111q18 28 43 6l254 -211q24 -21 6 -47l-41 -59q-19 -26 -47 -11l-283 168q-12 6 -15 20z" />
<glyph unicode="&#xd3;" horiz-adv-x="1665" d="M123 719q0 101 20 191q22 98 73 196q52 99 130 176q77 76 204 124q126 48 284 48q155 0 281 -48q127 -48 204 -124q78 -77 130 -176q51 -98 73 -196q20 -90 20 -191q0 -125 -36 -246q-36 -122 -112 -235q-77 -115 -222 -186q-143 -70 -338 -70q-196 0 -340 70 q-145 70 -223 186q-76 113 -112 235q-36 121 -36 246zM377 719q0 -44 8 -103q7 -52 38 -131q29 -73 77 -134q46 -57 134 -100q87 -42 200 -42q112 0 198 42t132 100t76 134q31 79 38 131q8 59 8 103q0 43 -8 102q-7 53 -38 130q-30 75 -76 133q-48 60 -132 100 q-87 41 -198 41q-112 0 -200 -41q-87 -40 -134 -100q-48 -60 -77 -133q-31 -77 -38 -130q-8 -59 -8 -102zM641 1704q-18 26 6 47l254 211q25 22 43 -6l78 -111q8 -11 5 -23q-3 -14 -15 -20l-283 -168q-28 -15 -47 11z" />
<glyph unicode="&#xd4;" horiz-adv-x="1665" d="M123 719q0 101 20 191q22 98 73 196q52 99 130 176q77 76 204 124q126 48 284 48q155 0 281 -48q127 -48 204 -124q78 -77 130 -176q51 -98 73 -196q20 -90 20 -191q0 -125 -36 -246q-36 -122 -112 -235q-77 -115 -222 -186q-143 -70 -338 -70q-196 0 -340 70 q-145 70 -223 186q-76 113 -112 235q-36 121 -36 246zM377 719q0 -44 8 -103q7 -52 38 -131q29 -73 77 -134q46 -57 134 -100q87 -42 200 -42q112 0 198 42t132 100t76 134q31 79 38 131q8 59 8 103q0 43 -8 102q-7 53 -38 130q-30 75 -76 133q-48 60 -132 100 q-87 41 -198 41q-112 0 -200 -41q-87 -40 -134 -100q-48 -60 -77 -133q-31 -77 -38 -130q-8 -59 -8 -102zM547 1700q-18 26 6 47l254 211q25 21 49 0l254 -211q24 -21 6 -47l-41 -60q-19 -25 -47 -10l-197 117l-196 -117q-28 -15 -47 10z" />
<glyph unicode="&#xd5;" horiz-adv-x="1665" d="M123 719q0 101 20 191q22 98 73 196q52 99 130 176q77 76 204 124q126 48 284 48q155 0 281 -48q127 -48 204 -124q78 -77 130 -176q51 -98 73 -196q20 -90 20 -191q0 -125 -36 -246q-36 -122 -112 -235q-77 -115 -222 -186q-143 -70 -338 -70q-196 0 -340 70 q-145 70 -223 186q-76 113 -112 235q-36 121 -36 246zM377 719q0 -44 8 -103q7 -52 38 -131q29 -73 77 -134q46 -57 134 -100q87 -42 200 -42q112 0 198 42t132 100t76 134q31 79 38 131q8 59 8 103q0 43 -8 102q-7 53 -38 130q-30 75 -76 133q-48 60 -132 100 q-87 41 -198 41q-112 0 -200 -41q-87 -40 -134 -100q-48 -60 -77 -133q-31 -77 -38 -130q-8 -59 -8 -102zM504 1690q67 172 223 172q55 0 117 -36t84 -36q43 0 82 55q19 30 45 15l88 -48q29 -15 14 -43q-85 -165 -233 -165q-51 0 -107 38q-57 39 -92 39q-46 0 -80 -59 q-17 -29 -43 -14l-80 37q-30 15 -18 45z" />
<glyph unicode="&#xd6;" horiz-adv-x="1665" d="M123 719q0 101 20 191q22 98 73 196q52 99 130 176q77 76 204 124q126 48 284 48q155 0 281 -48q127 -48 204 -124q78 -77 130 -176q51 -98 73 -196q20 -90 20 -191q0 -125 -36 -246q-36 -122 -112 -235q-77 -115 -222 -186q-143 -70 -338 -70q-196 0 -340 70 q-145 70 -223 186q-76 113 -112 235q-36 121 -36 246zM377 719q0 -44 8 -103q7 -52 38 -131q29 -73 77 -134q46 -57 134 -100q87 -42 200 -42q112 0 198 42t132 100t76 134q31 79 38 131q8 59 8 103q0 43 -8 102q-7 53 -38 130q-30 75 -76 133q-48 60 -132 100 q-87 41 -198 41q-112 0 -200 -41q-87 -40 -134 -100q-48 -60 -77 -133q-31 -77 -38 -130q-8 -59 -8 -102zM453 1757q0 60 40 100q39 39 99 39q58 0 99 -41q40 -40 40 -98q0 -61 -40 -100q-41 -39 -99 -39q-59 0 -99 39t-40 100zM932 1757q0 60 40 100q39 39 99 39 q58 0 99 -41q40 -40 40 -98q0 -61 -40 -100t-99 -39t-99 39t-40 100z" />
<glyph unicode="&#xd7;" horiz-adv-x="1116" d="M227 174q-23 22 0 45l193 193l-193 194q-23 22 0 45l92 92q23 23 46 0l192 -192l195 192q22 23 45 0l92 -92q23 -23 0 -45l-193 -194l193 -193q23 -23 0 -45l-92 -92q-23 -22 -45 0l-195 192l-192 -192q-23 -23 -46 0z" />
<glyph unicode="&#xd8;" horiz-adv-x="1665" d="M123 719q0 101 20 191q22 98 73 196q52 99 130 176q77 76 204 124q126 48 284 48q222 0 387 -98l69 82q18 22 45 4l90 -76q25 -22 5 -45l-70 -82q182 -206 182 -520q0 -125 -36 -246q-36 -122 -112 -235q-77 -115 -222 -186q-143 -70 -338 -70q-260 0 -428 122l-76 -88 q-7 -9 -23 -11q-14 -1 -22 7l-90 76q-25 17 -5 45l84 100q-151 197 -151 486zM377 719q0 -153 67 -283l619 731q-101 58 -229 58q-112 0 -200 -41q-87 -40 -134 -100q-48 -60 -77 -133q-31 -77 -38 -130q-8 -59 -8 -102zM563 291q107 -82 271 -82q112 0 198 42t132 100 t76 134q31 79 38 131q8 59 8 103q0 181 -92 321z" />
<glyph unicode="&#xd9;" horiz-adv-x="1497" d="M184 551v850q0 33 33 33h184q33 0 33 -33v-850q0 -37 16 -93q14 -49 47 -112q31 -59 97 -98t154 -39q71 0 128 27t90 66q34 40 55 89q24 57 30 89q8 43 8 71v850q0 33 33 33h188q33 0 33 -33v-850q0 -93 -31 -191q-29 -91 -94 -181q-64 -88 -177 -140q-115 -53 -263 -53 q-149 0 -264 53q-112 52 -176 140q-63 87 -93 181q-31 98 -31 191zM552 1822q-3 12 5 23l78 111q18 28 43 6l254 -211q24 -21 6 -47l-41 -59q-19 -26 -47 -11l-283 168q-12 6 -15 20z" />
<glyph unicode="&#xda;" horiz-adv-x="1497" d="M184 551v850q0 33 33 33h184q33 0 33 -33v-850q0 -37 16 -93q14 -49 47 -112q31 -59 97 -98t154 -39q71 0 128 27t90 66q34 40 55 89q24 57 30 89q8 43 8 71v850q0 33 33 33h188q33 0 33 -33v-850q0 -93 -31 -191q-29 -91 -94 -181q-64 -88 -177 -140q-115 -53 -263 -53 q-149 0 -264 53q-112 52 -176 140q-63 87 -93 181q-31 98 -31 191zM557 1704q-18 26 6 47l254 211q25 22 43 -6l78 -111q8 -11 5 -23q-3 -14 -15 -20l-283 -168q-28 -15 -47 11z" />
<glyph unicode="&#xdb;" horiz-adv-x="1497" d="M184 551v850q0 33 33 33h184q33 0 33 -33v-850q0 -37 16 -93q14 -49 47 -112q31 -59 97 -98t154 -39q71 0 128 27t90 66q34 40 55 89q24 57 30 89q8 43 8 71v850q0 33 33 33h188q33 0 33 -33v-850q0 -93 -31 -191q-29 -91 -94 -181q-64 -88 -177 -140q-115 -53 -263 -53 q-149 0 -264 53q-112 52 -176 140q-63 87 -93 181q-31 98 -31 191zM463 1700q-18 26 6 47l254 211q25 21 49 0l254 -211q24 -21 6 -47l-41 -60q-19 -25 -47 -10l-196 117l-197 -117q-28 -15 -47 10z" />
<glyph unicode="&#xdc;" horiz-adv-x="1497" d="M184 551v850q0 33 33 33h184q33 0 33 -33v-850q0 -37 16 -93q14 -49 47 -112q31 -59 97 -98t154 -39q71 0 128 27t90 66q34 40 55 89q24 57 30 89q8 43 8 71v850q0 33 33 33h188q33 0 33 -33v-850q0 -93 -31 -191q-29 -91 -94 -181q-64 -88 -177 -140q-115 -53 -263 -53 q-149 0 -264 53q-112 52 -176 140q-63 87 -93 181q-31 98 -31 191zM369 1757q0 60 40 100q39 39 99 39q57 0 98 -41t41 -98q0 -61 -40 -100q-41 -39 -99 -39t-99 39q-40 39 -40 100zM848 1757q0 60 40 100q39 39 99 39q57 0 98 -41t41 -98q0 -61 -40 -100t-99 -39t-99 39 t-40 100z" />
<glyph unicode="&#xdd;" horiz-adv-x="1357" d="M78 1405q-4 9 1 19t15 10h223q33 0 50 -29l313 -533l313 533q17 29 49 29h222q10 0 15 -11t-1 -18l-473 -760v-612q0 -33 -33 -33h-184q-33 0 -33 33v608zM479 1704q-18 26 6 47l254 211q25 22 43 -6l78 -111q8 -11 5 -23q-3 -14 -15 -20l-283 -168q-28 -15 -47 11z" />
<glyph unicode="&#xde;" horiz-adv-x="1308" d="M205 33v1368q0 33 33 33h180q33 0 33 -33v-156h219q142 0 246 -52q105 -53 162 -135q56 -81 82 -171t26 -176t-26 -176t-82 -171q-58 -84 -162 -136t-246 -52h-219v-143q0 -33 -33 -33h-180q-33 0 -33 33zM451 389h202q85 0 146 36q62 36 90 91q29 57 41 104q12 48 12 91 t-12 92q-11 46 -41 104q-28 55 -90 91q-61 36 -146 36h-202v-645z" />
<glyph unicode="&#xdf;" horiz-adv-x="1339" d="M205 -111v1129q0 118 44 206t99 128t128 63q74 23 105 26t56 3q129 0 223 -42q92 -41 140 -109q46 -66 66 -128q19 -60 19 -118q0 -67 -20 -118q-21 -54 -45 -84q-32 -40 -46 -58q-23 -29 -24 -44q0 -28 29 -63q29 -34 63 -69q37 -37 64 -97q29 -64 29 -139 q0 -177 -134 -285q-133 -108 -387 -108h-30q-33 0 -33 32v150q0 33 33 33h51q129 0 187 53q57 52 57 133v16q-4 49 -53 105q-64 74 -95 112q-47 58 -47 115t81 151t81 162q0 16 -1 23q-2 14 -10 42q-9 31 -27 52q-19 22 -56 39q-41 19 -95 19q-74 0 -136 -43 q-63 -43 -64 -154v-1133q0 -32 -33 -32h-186q-33 0 -33 32z" />
<glyph unicode="&#xe0;" horiz-adv-x="1107" d="M123 297q0 334 428 334q47 0 149 -13v17q-2 118 -40 157q-37 37 -128 37q-96 0 -245 -59q-31 -12 -43 18l-51 117q-12 30 16 45q169 81 311 88q114 6 195 -16t125 -60q42 -36 67 -103q25 -68 31 -119q6 -54 6 -132v-575q0 -33 -33 -33h-96q-32 0 -43 31l-14 51 q-124 -100 -269 -100q-92 0 -158 23q-71 25 -107 58q-38 35 -62 81q-25 48 -32 82t-7 71zM350 313q0 -63 42 -96t104 -33q67 0 121 36t83 83v121q-79 10 -129 10q-221 0 -221 -121zM357 1412q-3 13 5 24l78 110q18 28 43 6l254 -211q24 -21 6 -47l-41 -59q-19 -25 -47 -10 l-282 168q-13 7 -16 19z" />
<glyph unicode="&#xe1;" horiz-adv-x="1107" d="M123 297q0 334 428 334q47 0 149 -13v17q-2 118 -40 157q-37 37 -128 37q-96 0 -245 -59q-31 -12 -43 18l-51 117q-12 30 16 45q169 81 311 88q114 6 195 -16t125 -60q42 -36 67 -103q25 -68 31 -119q6 -54 6 -132v-575q0 -33 -33 -33h-96q-32 0 -43 31l-14 51 q-124 -100 -269 -100q-92 0 -158 23q-71 25 -107 58q-38 35 -62 81q-25 48 -32 82t-7 71zM350 313q0 -63 42 -96t104 -33q67 0 121 36t83 83v121q-79 10 -129 10q-221 0 -221 -121zM362 1294q-17 26 7 47l254 211q25 22 43 -6l77 -110q9 -12 6 -24t-16 -19l-282 -168 q-29 -15 -48 10z" />
<glyph unicode="&#xe2;" horiz-adv-x="1107" d="M123 297q0 334 428 334q47 0 149 -13v17q-2 118 -40 157q-37 37 -128 37q-96 0 -245 -59q-31 -12 -43 18l-51 117q-12 30 16 45q169 81 311 88q114 6 195 -16t125 -60q42 -36 67 -103q25 -68 31 -119q6 -54 6 -132v-575q0 -33 -33 -33h-96q-32 0 -43 31l-14 51 q-124 -100 -269 -100q-92 0 -158 23q-71 25 -107 58q-38 35 -62 81q-25 48 -32 82t-7 71zM268 1290q-18 26 6 47l254 211q25 22 50 0l253 -211q24 -21 7 -47l-41 -59q-19 -25 -47 -10l-197 116l-197 -116q-28 -15 -47 10zM350 313q0 -63 42 -96t104 -33q67 0 121 36t83 83 v121q-79 10 -129 10q-221 0 -221 -121z" />
<glyph unicode="&#xe3;" horiz-adv-x="1107" d="M123 297q0 334 428 334q47 0 149 -13v17q-2 118 -40 157q-37 37 -128 37q-96 0 -245 -59q-31 -12 -43 18l-51 117q-12 30 16 45q169 81 311 88q114 6 195 -16t125 -60q42 -36 67 -103q25 -68 31 -119q6 -54 6 -132v-575q0 -33 -33 -33h-96q-32 0 -43 31l-14 51 q-124 -100 -269 -100q-92 0 -158 23q-71 25 -107 58q-38 35 -62 81q-25 48 -32 82t-7 71zM225 1280q67 172 224 172q54 0 116 -36q61 -36 84 -36q43 0 82 56q18 29 45 14l88 -47q29 -16 15 -43q-85 -166 -234 -166q-49 0 -106 39t-93 39q-44 0 -79 -60q-17 -29 -43 -14 l-80 37q-31 15 -19 45zM350 313q0 -63 42 -96t104 -33q67 0 121 36t83 83v121q-79 10 -129 10q-221 0 -221 -121z" />
<glyph unicode="&#xe4;" horiz-adv-x="1107" d="M123 297q0 334 428 334q47 0 149 -13v17q-2 118 -40 157q-37 37 -128 37q-96 0 -245 -59q-31 -12 -43 18l-51 117q-12 30 16 45q169 81 311 88q114 6 195 -16t125 -60q42 -36 67 -103q25 -68 31 -119q6 -54 6 -132v-575q0 -33 -33 -33h-96q-32 0 -43 31l-14 51 q-124 -100 -269 -100q-92 0 -158 23q-71 25 -107 58q-38 35 -62 81q-25 48 -32 82t-7 71zM176 1348q0 59 40 99t99 40q58 0 99 -41t41 -98q0 -62 -40 -101q-41 -39 -100 -39t-99 39t-40 101zM350 313q0 -63 42 -96t104 -33q67 0 121 36t83 83v121q-79 10 -129 10 q-221 0 -221 -121zM655 1348q0 59 40 99t100 40q57 0 98 -41t41 -98q0 -62 -40 -101t-99 -39t-100 39q-40 39 -40 101z" />
<glyph unicode="&#xe5;" horiz-adv-x="1107" d="M123 297q0 334 428 334q47 0 149 -13v17q-2 118 -40 157q-37 37 -128 37q-96 0 -245 -59q-31 -12 -43 18l-51 117q-12 30 16 45q169 81 311 88q114 6 195 -16t125 -60q42 -36 67 -103q25 -68 31 -119q6 -54 6 -132v-575q0 -33 -33 -33h-96q-32 0 -43 31l-14 51 q-124 -100 -269 -100q-92 0 -158 23q-71 25 -107 58q-38 35 -62 81q-25 48 -32 82t-7 71zM346 1409q0 85 62 147t147 62q86 0 146 -62q61 -63 61 -147q0 -85 -61 -146t-146 -61q-84 0 -147 61q-62 60 -62 146zM350 313q0 -63 42 -96t104 -33q67 0 121 36t83 83v121 q-79 10 -129 10q-221 0 -221 -121zM487 1409q0 -27 21 -46q22 -20 47 -20q26 0 46 20t20 46q0 25 -20 47q-20 21 -46 21q-25 0 -47 -20q-21 -19 -21 -48z" />
<glyph unicode="&#xe6;" horiz-adv-x="1681" d="M123 297q0 334 428 334q39 0 117 -8q8 46 24 92q-12 67 -49 91q-36 23 -111 23q-96 0 -245 -59q-31 -12 -43 18l-51 117q-12 30 16 45q169 81 311 88q232 15 334 -96q123 96 317 96q201 0 309 -117q109 -118 109 -319q0 -68 -10 -127q-5 -33 -37 -33h-635q16 -95 77 -168 q59 -71 187 -71q132 0 236 67q28 16 45 -8l78 -104q21 -29 -6 -47q-159 -123 -353 -123q-221 0 -354 123q-151 -129 -328 -129q-92 0 -158 23q-71 25 -107 58q-38 35 -62 81q-25 48 -32 82t-7 71zM350 313q0 -63 42 -96t104 -33q106 0 180 86q21 24 10 58q-13 47 -20 100 q-44 6 -95 6q-221 0 -221 -121zM918 635h440q4 75 -41 133q-45 56 -148 61q-200 -1 -251 -194z" />
<glyph unicode="&#xe7;" horiz-adv-x="1167" d="M123 508q0 98 23 180q24 87 78 169q55 83 160 133q106 50 251 50q210 0 373 -163q23 -23 0 -48l-95 -106q-23 -24 -45 -2q-107 98 -233 98t-198 -92q-72 -91 -72 -219q0 -137 79 -215q80 -78 193 -78q117 0 219 90q24 21 49 0l115 -102q24 -21 2 -47q-147 -153 -344 -168 v-43q96 0 144 -57t48 -130q0 -104 -67 -161q-69 -58 -160 -58q-104 0 -186 49q-29 18 -11 47l39 68q15 29 45 14q53 -22 95 -22q33 0 51 19q18 20 18 44q0 62 -106 62h-13q-17 0 -32 12q-13 16 -13 33v131q-141 22 -239 112q-96 89 -132 190q-36 102 -36 210z" />
<glyph unicode="&#xe8;" horiz-adv-x="1114" d="M92 514q0 64 16 138q16 71 52 140q38 72 93 124q59 56 147 89t204 33q200 0 308 -117q110 -119 110 -319q0 -68 -10 -127q-4 -33 -37 -33h-635q16 -95 77 -168q59 -71 187 -71q132 0 236 67q28 16 45 -8l78 -104q21 -28 -7 -47q-159 -123 -352 -123q-114 0 -204 34 q-89 34 -147 87q-55 50 -93 124q-37 70 -52 141q-16 74 -16 140zM350 635h441q4 75 -41 133q-45 56 -148 61q-201 -1 -252 -194zM361 1412q-3 12 6 24l77 110q18 28 43 6l254 -211q24 -21 7 -47l-41 -59q-19 -25 -48 -10l-282 168q-13 7 -16 19z" />
<glyph unicode="&#xe9;" horiz-adv-x="1114" d="M92 514q0 64 16 138q16 71 52 140q38 72 93 124q59 56 147 89t204 33q200 0 308 -117q110 -119 110 -319q0 -68 -10 -127q-4 -33 -37 -33h-635q16 -95 77 -168q59 -71 187 -71q132 0 236 67q28 16 45 -8l78 -104q21 -28 -7 -47q-159 -123 -352 -123q-114 0 -204 34 q-89 34 -147 87q-55 50 -93 124q-37 70 -52 141q-16 74 -16 140zM350 635h441q4 75 -41 133q-45 56 -148 61q-201 -1 -252 -194zM367 1294q-18 26 6 47l254 211q25 22 43 -6l78 -110q8 -11 5 -24q-3 -12 -16 -19l-282 -168q-28 -15 -47 10z" />
<glyph unicode="&#xea;" horiz-adv-x="1114" d="M92 514q0 64 16 138q16 71 52 140q38 72 93 124q59 56 147 89t204 33q200 0 308 -117q110 -119 110 -319q0 -68 -10 -127q-4 -33 -37 -33h-635q16 -95 77 -168q59 -71 187 -71q132 0 236 67q28 16 45 -8l78 -104q21 -28 -7 -47q-159 -123 -352 -123q-114 0 -204 34 q-89 34 -147 87q-55 50 -93 124q-37 70 -52 141q-16 74 -16 140zM301 1290q-18 26 6 47l254 211q25 21 49 0l254 -211q24 -21 6 -47l-41 -59q-19 -25 -47 -10l-196 116l-197 -116q-28 -15 -47 10zM350 635h441q4 75 -41 133q-45 56 -148 61q-201 -1 -252 -194z" />
<glyph unicode="&#xeb;" horiz-adv-x="1114" d="M92 514q0 64 16 138q16 71 52 140q38 72 93 124q59 56 147 89t204 33q200 0 308 -117q110 -119 110 -319q0 -68 -10 -127q-4 -33 -37 -33h-635q16 -95 77 -168q59 -71 187 -71q132 0 236 67q28 16 45 -8l78 -104q21 -28 -7 -47q-159 -123 -352 -123q-114 0 -204 34 q-89 34 -147 87q-55 50 -93 124q-37 70 -52 141q-16 74 -16 140zM199 1348q0 59 40 99t99 40q58 0 99 -41q40 -40 40 -98q0 -62 -40 -101q-41 -39 -99 -39t-99 39q-40 39 -40 101zM350 635h441q4 75 -41 133q-45 56 -148 61q-201 -1 -252 -194zM678 1348q0 59 40 99t99 40 q58 0 99 -41q40 -40 40 -98q0 -62 -40 -101t-99 -39t-99 39t-40 101z" />
<glyph unicode="&#xec;" horiz-adv-x="499" d="M54 1412q-3 13 5 24l78 110q18 28 43 6l254 -211q24 -21 6 -47l-41 -59q-19 -25 -47 -10l-282 168q-13 7 -16 19zM127 33v958q0 33 33 33h178q33 0 33 -33v-958q0 -33 -33 -33h-178q-33 0 -33 33z" />
<glyph unicode="&#xed;" horiz-adv-x="499" d="M59 1294q-17 26 7 47l253 211q25 22 43 -6l78 -110q8 -11 5 -24t-15 -19l-283 -168q-28 -15 -47 10zM127 33v958q0 33 33 33h178q33 0 33 -33v-958q0 -33 -33 -33h-178q-33 0 -33 33z" />
<glyph unicode="&#xee;" horiz-adv-x="606" d="M18 1290q-17 26 7 47l254 211q25 21 49 0l254 -211q24 -21 6 -47l-41 -59q-19 -25 -47 -10l-197 116l-197 -116q-28 -15 -47 10zM180 33v958q0 33 33 33h178q33 0 33 -33v-958q0 -33 -33 -33h-178q-33 0 -33 33z" />
<glyph unicode="&#xef;" horiz-adv-x="757" d="M4 1315q-7 33 0 65q11 47 48 77q38 30 87 30q58 0 99 -41t41 -98q0 -62 -40 -101t-100 -39q-50 0 -88 30q-36 29 -47 77zM256 33v958q0 33 33 33h178q33 0 33 -33v-958q0 -33 -33 -33h-178q-33 0 -33 33zM479 1348q0 59 40 99t99 40q58 0 99 -41t41 -98q0 -62 -40 -101 t-100 -39q-58 0 -99 39q-40 39 -40 101z" />
<glyph unicode="&#xf0;" horiz-adv-x="1196" d="M123 434q0 62 11 114q13 59 44 121q32 63 84 113q51 50 138 81q88 32 198 32q96 0 164 -43q-52 121 -160 240l-92 -93q-22 -23 -45 0l-80 78q-23 23 0 45l90 90q-38 30 -96 66q-12 6 -15 19t5 24l75 117q21 27 48 10q58 -33 131 -88l108 108q23 22 45 0l80 -77 q22 -23 0 -45l-102 -103q319 -329 319 -788q0 -64 -21 -136q-20 -68 -70 -151q-48 -80 -148 -132t-236 -52q-115 0 -198 33q-88 35 -137 84q-48 48 -84 115q-31 59 -45 118q-11 48 -11 100zM358 444q0 -100 64 -173q63 -72 176 -72t176 72q64 73 64 173q-5 103 -66 173 q-62 71 -174 71q-114 0 -177 -72t-63 -172z" />
<glyph unicode="&#xf1;" horiz-adv-x="1191" d="M164 33v958q0 33 33 33h92q32 0 43 -31l18 -49q124 96 283 96q111 0 192 -31q79 -30 128 -79q45 -45 73 -119t35 -136q8 -69 8 -147v-495q0 -33 -33 -33h-180q-33 0 -33 33v495q0 301 -200 301q-73 0 -130 -32q-59 -33 -87 -78v-686q0 -33 -33 -33h-176q-33 0 -33 33z M266 1280q67 172 223 172q55 0 117 -36t84 -36q43 0 82 56q18 29 45 14l88 -47q29 -16 15 -43q-85 -166 -234 -166q-49 0 -106 39t-93 39q-45 0 -79 -60q-17 -29 -43 -14l-80 37q-31 15 -19 45z" />
<glyph unicode="&#xf2;" horiz-adv-x="1265" d="M123 514q0 90 25 174q26 87 81 169q56 84 160 134q105 51 244 51t244 -51q102 -50 159 -134q55 -82 81 -169t26 -174q0 -88 -26 -177q-25 -86 -81 -169q-56 -84 -159 -132q-106 -50 -244 -50t-244 50q-104 49 -160 132t-81 169q-25 85 -25 177zM362 514q0 -18 6 -64 q5 -36 22 -82q18 -47 45 -85q26 -37 79 -63q50 -25 119 -25q84 0 140 36q58 37 84 95t36 103q10 44 10 85t-10 85q-10 45 -36 103t-84 95t-140 37q-67 0 -119 -26q-53 -26 -79 -63q-27 -38 -45 -85t-22 -81q-6 -46 -6 -65zM437 1412q-3 13 5 24l78 110q18 28 43 6l254 -211 q24 -21 6 -47l-41 -59q-19 -25 -47 -10l-282 168q-13 7 -16 19z" />
<glyph unicode="&#xf3;" horiz-adv-x="1265" d="M123 514q0 90 25 174q26 87 81 169q56 84 160 134q105 51 244 51t244 -51q102 -50 159 -134q55 -82 81 -169t26 -174q0 -88 -26 -177q-25 -86 -81 -169q-56 -84 -159 -132q-106 -50 -244 -50t-244 50q-104 49 -160 132t-81 169q-25 85 -25 177zM362 514q0 -18 6 -64 q5 -36 22 -82q18 -47 45 -85q26 -37 79 -63q50 -25 119 -25q84 0 140 36q58 37 84 95t36 103q10 44 10 85t-10 85q-10 45 -36 103t-84 95t-140 37q-67 0 -119 -26q-53 -26 -79 -63q-27 -38 -45 -85t-22 -81q-6 -46 -6 -65zM442 1294q-17 26 7 47l253 211q25 22 43 -6 l78 -110q8 -11 5 -24t-15 -19l-283 -168q-28 -15 -47 10z" />
<glyph unicode="&#xf4;" horiz-adv-x="1265" d="M123 514q0 90 25 174q26 87 81 169q56 84 160 134q105 51 244 51t244 -51q102 -50 159 -134q55 -82 81 -169t26 -174q0 -88 -26 -177q-25 -86 -81 -169q-56 -84 -159 -132q-106 -50 -244 -50t-244 50q-104 49 -160 132t-81 169q-25 85 -25 177zM348 1290q-18 26 6 47 l254 211q24 21 49 0l254 -211q24 -21 7 -47l-41 -59q-19 -25 -48 -10l-196 116l-197 -116q-28 -15 -47 10zM362 514q0 -18 6 -64q5 -36 22 -82q18 -47 45 -85q26 -37 79 -63q50 -25 119 -25q84 0 140 36q58 37 84 95t36 103q10 44 10 85t-10 85q-10 45 -36 103t-84 95 t-140 37q-67 0 -119 -26q-53 -26 -79 -63q-27 -38 -45 -85t-22 -81q-6 -46 -6 -65z" />
<glyph unicode="&#xf5;" horiz-adv-x="1265" d="M123 514q0 90 25 174q26 87 81 169q56 84 160 134q105 51 244 51t244 -51q102 -50 159 -134q55 -82 81 -169t26 -174q0 -88 -26 -177q-25 -86 -81 -169q-56 -84 -159 -132q-106 -50 -244 -50t-244 50q-104 49 -160 132t-81 169q-25 85 -25 177zM303 1280q67 172 223 172 q56 0 117 -36t84 -36q43 0 82 56q18 29 45 14l88 -47q29 -15 14 -43q-85 -166 -233 -166q-50 0 -107 39t-92 39q-46 0 -80 -60q-17 -29 -43 -14l-79 37q-31 15 -19 45zM362 514q0 -18 6 -64q5 -36 22 -82q18 -47 45 -85q26 -37 79 -63q50 -25 119 -25q84 0 140 36 q58 37 84 95t36 103q10 44 10 85t-10 85q-10 45 -36 103t-84 95t-140 37q-67 0 -119 -26q-53 -26 -79 -63q-27 -38 -45 -85t-22 -81q-6 -46 -6 -65z" />
<glyph unicode="&#xf6;" horiz-adv-x="1265" d="M123 514q0 90 25 174q26 87 81 169q56 84 160 134q105 51 244 51t244 -51q102 -50 159 -134q55 -82 81 -169t26 -174q0 -88 -26 -177q-25 -86 -81 -169q-56 -84 -159 -132q-106 -50 -244 -50t-244 50q-104 49 -160 132t-81 169q-25 85 -25 177zM250 1348q0 59 40 99 t99 40q57 0 98 -41t41 -98q0 -62 -40 -101q-41 -39 -99 -39q-59 0 -99 39t-40 101zM362 514q0 -18 6 -64q5 -36 22 -82q18 -47 45 -85q26 -37 79 -63q50 -25 119 -25q84 0 140 36q58 37 84 95t36 103q10 44 10 85t-10 85q-10 45 -36 103t-84 95t-140 37q-67 0 -119 -26 q-53 -26 -79 -63q-27 -38 -45 -85t-22 -81q-6 -46 -6 -65zM729 1348q0 59 40 99t99 40q58 0 99 -41t41 -98q0 -62 -40 -101t-100 -39q-58 0 -99 39q-40 39 -40 101z" />
<glyph unicode="&#xf7;" horiz-adv-x="944" d="M123 442v138q0 32 33 32h632q33 0 33 -32v-138q0 -32 -33 -32h-632q-33 0 -33 32zM332 139q0 60 40 100t99 40q57 0 98 -41t41 -99q0 -61 -40 -100t-99 -39q-58 0 -99 39q-40 39 -40 100zM336 856q-8 33 0 66q10 46 48 76t87 30q57 0 98 -41t41 -98q0 -62 -40 -101 q-39 -38 -99 -38q-52 0 -88 29t-47 77z" />
<glyph unicode="&#xf8;" horiz-adv-x="1265" d="M123 514q0 90 25 174q26 87 81 169q56 84 160 134q105 51 244 51q141 0 252 -57l55 66q18 27 45 4l90 -72q24 -23 6 -45l-55 -68q117 -147 117 -356q0 -88 -26 -177q-25 -86 -81 -169q-56 -84 -159 -132q-106 -50 -244 -50q-173 0 -285 71l-45 -53q-7 -9 -22 -11 q-15 -1 -23 7l-90 76q-25 17 -4 45l53 63q-94 139 -94 330zM362 514q0 -68 21 -131l358 430q-51 21 -108 21q-67 0 -119 -26q-53 -26 -79 -63q-27 -38 -45 -85t-22 -81q-6 -46 -6 -65zM492 231q58 -36 141 -36q84 0 140 36q58 37 84 95t36 103q10 44 10 85q0 87 -37 168z " />
<glyph unicode="&#xf9;" horiz-adv-x="1191" d="M123 498v495q0 33 33 33h180q33 0 33 -33v-495q0 -301 200 -301q73 0 130 32q59 33 87 78v686q0 33 33 33h176q33 0 33 -33v-958q0 -33 -33 -33h-92q-32 0 -43 31l-18 49q-124 -96 -283 -96q-111 0 -192 31q-79 30 -128 79q-45 45 -73 119t-35 136q-8 69 -8 147z M400 1412q-3 12 6 24l77 110q18 28 43 6l254 -211q24 -21 6 -47l-41 -59q-19 -25 -47 -10l-282 168q-13 7 -16 19z" />
<glyph unicode="&#xfa;" horiz-adv-x="1191" d="M123 498v495q0 33 33 33h180q33 0 33 -33v-495q0 -301 200 -301q73 0 130 32q59 33 87 78v686q0 33 33 33h176q33 0 33 -33v-958q0 -33 -33 -33h-92q-32 0 -43 31l-18 49q-124 -96 -283 -96q-111 0 -192 31q-79 30 -128 79q-45 45 -73 119t-35 136q-8 69 -8 147z M406 1294q-18 26 6 47l254 211q25 22 43 -6l77 -110q9 -12 6 -24t-16 -19l-282 -168q-29 -15 -48 10z" />
<glyph unicode="&#xfb;" horiz-adv-x="1191" d="M123 498v495q0 33 33 33h180q33 0 33 -33v-495q0 -301 200 -301q73 0 130 32q59 33 87 78v686q0 33 33 33h176q33 0 33 -33v-958q0 -33 -33 -33h-92q-32 0 -43 31l-18 49q-124 -96 -283 -96q-111 0 -192 31q-79 30 -128 79q-45 45 -73 119t-35 136q-8 69 -8 147z M311 1290q-18 26 6 47l254 211q25 22 50 0l253 -211q24 -21 7 -47l-41 -59q-19 -25 -47 -10l-197 116l-197 -116q-28 -15 -47 10z" />
<glyph unicode="&#xfc;" horiz-adv-x="1191" d="M123 498v495q0 33 33 33h180q33 0 33 -33v-495q0 -301 200 -301q73 0 130 32q59 33 87 78v686q0 33 33 33h176q33 0 33 -33v-958q0 -33 -33 -33h-92q-32 0 -43 31l-18 49q-124 -96 -283 -96q-111 0 -192 31q-79 30 -128 79q-45 45 -73 119t-35 136q-8 69 -8 147z M217 1348q0 59 40 99t99 40q58 0 99 -41t41 -98q0 -62 -40 -101t-100 -39q-58 0 -99 39q-40 39 -40 101zM696 1348q0 59 40 99t100 40q57 0 98 -41t41 -98q0 -62 -40 -101q-41 -39 -99 -39q-60 0 -100 39t-40 101z" />
<glyph unicode="&#xfd;" horiz-adv-x="1185" d="M70 993q-4 10 2 21q6 10 18 10h201q29 0 45 -31l258 -649l256 649q16 31 45 31h203q12 0 18 -10q6 -11 2 -21l-577 -1370q-15 -31 -45 -31h-195q-12 0 -18 11t-2 20l184 440zM401 1294q-17 26 7 47l254 211q25 22 43 -6l77 -110q8 -11 5 -24t-15 -19l-283 -168 q-28 -15 -47 10z" />
<glyph unicode="&#xfe;" horiz-adv-x="1255" d="M164 -377v1778q0 33 33 33h176q33 0 33 -33v-400q106 39 217 39q138 0 243 -51q104 -50 160 -134q55 -82 81 -169t26 -174t-26 -174t-81 -169q-56 -84 -160 -134q-105 -51 -243 -51q-111 0 -217 39v-400q0 -33 -33 -33h-176q-33 0 -33 33zM406 250q82 -57 200 -57 q87 0 145 35q61 36 89 90q29 55 41 103t12 91t-12 91t-41 103q-28 54 -89 90q-58 35 -145 35q-118 0 -200 -57v-524z" />
<glyph unicode="&#xff;" horiz-adv-x="1185" d="M70 993q-4 10 2 21q6 10 18 10h201q29 0 45 -31l258 -649l256 649q16 31 45 31h203q12 0 18 -10q6 -11 2 -21l-577 -1370q-15 -31 -45 -31h-195q-12 0 -18 11t-2 20l184 440zM215 1348q0 59 40 99t99 40t100 -41q40 -40 40 -98q0 -62 -40 -101t-100 -39q-58 0 -99 39 q-40 39 -40 101zM694 1348q0 59 40 99t100 40q58 0 99 -41q40 -40 40 -98q0 -62 -40 -101q-41 -39 -99 -39q-60 0 -100 39t-40 101z" />
<glyph unicode="&#x152;" horiz-adv-x="2091" d="M123 719q0 101 20 191q22 98 73 196q52 99 130 176q77 76 204 124q126 48 284 48q97 0 188 -20h913q33 0 33 -33v-160q0 -33 -33 -33h-675v-389h522q33 0 33 -33v-159q0 -33 -33 -33h-522v-369h675q33 0 33 -32v-160q0 -33 -33 -33h-919q-82 -18 -182 -18q-196 0 -340 70 q-145 70 -223 186q-76 113 -112 235q-36 121 -36 246zM377 719q0 -44 8 -103q7 -52 38 -131q29 -73 77 -134q46 -57 134 -100q87 -42 200 -42q95 0 176 29v956q-88 31 -176 31q-112 0 -200 -41q-87 -40 -134 -100q-48 -60 -77 -133q-31 -77 -38 -130q-8 -59 -8 -102z" />
<glyph unicode="&#x153;" horiz-adv-x="1925" d="M123 514q0 90 25 174q26 87 81 169q56 84 160 134q105 51 244 51q256 0 391 -170q136 166 391 166q200 0 308 -117q110 -119 110 -319q0 -68 -10 -127q-5 -33 -37 -33h-635q16 -95 77 -168q59 -71 187 -71q132 0 236 67q28 16 45 -8l78 -104q21 -28 -7 -47 q-159 -123 -352 -123q-256 0 -391 164q-133 -166 -391 -166q-138 0 -244 50q-104 49 -160 132t-81 169q-25 85 -25 177zM362 514q0 -18 6 -64q5 -36 22 -82q18 -47 45 -85q26 -37 79 -63q50 -25 119 -25q84 0 140 36q58 37 84 95t36 103q10 44 10 85t-10 85q-10 45 -36 103 t-84 95t-140 37q-67 0 -119 -26q-53 -26 -79 -63q-27 -38 -45 -85t-22 -81q-6 -46 -6 -65zM1161 635h441q4 75 -41 133q-45 56 -148 61q-201 -1 -252 -194z" />
<glyph unicode="&#x178;" horiz-adv-x="1357" d="M78 1405q-4 9 1 19t15 10h223q33 0 50 -29l313 -533l313 533q17 29 49 29h222q10 0 15 -11t-1 -18l-473 -760v-612q0 -33 -33 -33h-184q-33 0 -33 33v608zM303 1724q-7 33 0 66q11 47 48 77q36 29 87 29q58 0 99 -41t41 -98q0 -61 -40 -100q-41 -39 -100 -39 q-50 0 -88 30q-36 29 -47 76zM778 1757q0 60 40 100q39 39 100 39q57 0 98 -41t41 -98q0 -61 -40 -100q-41 -39 -99 -39q-60 0 -100 39t-40 100z" />
<glyph unicode="&#x2c6;" horiz-adv-x="1060" d="M254 1290q-18 26 6 47l254 211q24 21 49 0l254 -211q24 -21 6 -47l-41 -59q-19 -25 -47 -10l-196 116l-197 -116q-28 -15 -47 10z" />
<glyph unicode="&#x2dc;" horiz-adv-x="1056" d="M190 1300q68 173 224 173q55 0 116 -36q62 -36 84 -36q43 0 82 55q18 29 45 14l88 -47q29 -16 15 -43q-85 -166 -234 -166q-49 0 -106 39t-92 39q-46 0 -80 -59q-17 -29 -43 -14l-80 36q-31 15 -19 45z" />
<glyph unicode="&#x2000;" horiz-adv-x="1014" />
<glyph unicode="&#x2001;" horiz-adv-x="2028" />
<glyph unicode="&#x2002;" horiz-adv-x="1014" />
<glyph unicode="&#x2003;" horiz-adv-x="2028" />
<glyph unicode="&#x2004;" horiz-adv-x="676" />
<glyph unicode="&#x2005;" horiz-adv-x="507" />
<glyph unicode="&#x2006;" horiz-adv-x="338" />
<glyph unicode="&#x2007;" horiz-adv-x="338" />
<glyph unicode="&#x2008;" horiz-adv-x="253" />
<glyph unicode="&#x2009;" horiz-adv-x="405" />
<glyph unicode="&#x200a;" horiz-adv-x="112" />
<glyph unicode="&#x2010;" horiz-adv-x="897" d="M164 520v144q0 32 33 32h503q33 0 33 -32v-144q0 -33 -33 -33h-503q-33 0 -33 33z" />
<glyph unicode="&#x2011;" horiz-adv-x="897" d="M164 520v144q0 32 33 32h503q33 0 33 -32v-144q0 -33 -33 -33h-503q-33 0 -33 33z" />
<glyph unicode="&#x2012;" horiz-adv-x="897" d="M164 520v144q0 32 33 32h503q33 0 33 -32v-144q0 -33 -33 -33h-503q-33 0 -33 33z" />
<glyph unicode="&#x2013;" horiz-adv-x="1181" d="M164 520v144q0 32 33 32h788q33 0 33 -32v-144q0 -33 -33 -33h-788q-33 0 -33 33z" />
<glyph unicode="&#x2014;" horiz-adv-x="2035" d="M164 520v144q0 32 33 32h1642q33 0 33 -32v-144q0 -33 -33 -33h-1642q-33 0 -33 33z" />
<glyph unicode="&#x2018;" horiz-adv-x="561" d="M123 1022q0 88 51 205q49 113 115 207q21 28 49 10l59 -31q28 -15 13 -43q-69 -131 -91 -213q119 -27 119 -151q0 -63 -43 -107q-43 -45 -106 -45q-86 0 -126 49t-40 119z" />
<glyph unicode="&#x2019;" horiz-adv-x="561" d="M123 1309q0 62 43 106q43 45 106 45q86 0 126 -49t40 -119q0 -88 -51 -205q-48 -111 -115 -206q-21 -28 -49 -13l-59 31q-27 17 -12 45q68 128 90 213q-119 27 -119 152z" />
<glyph unicode="&#x201a;" horiz-adv-x="643" d="M164 106q0 63 43 107q43 45 106 45q86 0 126 -49t40 -119q0 -88 -51 -205q-49 -113 -115 -207q-21 -27 -49 -12l-59 31q-27 17 -12 45q67 128 90 213q-119 27 -119 151z" />
<glyph unicode="&#x201c;" horiz-adv-x="999" d="M123 1022q0 88 51 205q49 113 115 207q21 28 49 10l59 -31q28 -15 13 -43q-69 -131 -91 -213q119 -27 119 -151q0 -63 -43 -107q-43 -45 -106 -45q-86 0 -126 49t-40 119zM561 1022q0 88 51 205q49 113 115 207q21 28 49 10l60 -31q27 -15 12 -43q-68 -128 -90 -213 q119 -27 119 -151q0 -63 -43 -107q-44 -45 -107 -45q-86 0 -126 49t-40 119z" />
<glyph unicode="&#x201d;" horiz-adv-x="999" d="M123 1309q0 62 43 106q43 45 106 45q86 0 126 -49t40 -119q0 -88 -51 -205q-48 -111 -115 -206q-21 -28 -49 -13l-59 31q-27 17 -12 45q68 128 90 213q-119 27 -119 152zM561 1309q0 62 43 106q44 45 107 45q86 0 126 -49t40 -119q0 -86 -52 -205q-50 -114 -114 -206 q-21 -28 -49 -13l-60 31q-27 17 -12 45q68 128 90 213q-119 27 -119 152z" />
<glyph unicode="&#x201e;" horiz-adv-x="1034" d="M164 106q0 63 43 107q43 45 106 45q86 0 126 -49t40 -119q0 -88 -51 -205q-49 -113 -115 -207q-21 -27 -49 -12l-59 31q-27 17 -12 45q67 128 90 213q-119 27 -119 151zM637 106q0 63 43 107q44 45 106 45q86 0 126 -49t40 -119q0 -88 -51 -205q-49 -113 -115 -207 q-21 -27 -49 -12l-59 31q-27 17 -12 45q68 128 90 213q-119 27 -119 151z" />
<glyph unicode="&#x2022;" horiz-adv-x="839" d="M164 588q0 105 76 182q77 78 176 78q106 0 183 -78q77 -79 77 -182q0 -102 -77 -177t-183 -75q-100 0 -176 76t-76 176z" />
<glyph unicode="&#x2026;" horiz-adv-x="1583" d="M164 141q0 64 46 110t109 46q64 0 109 -46q45 -47 45 -110t-45 -108t-109 -45q-63 0 -109 45t-46 108zM676 141q0 64 46 110t109 46q64 0 109 -46t45 -110q0 -63 -45 -108t-109 -45q-63 0 -109 45t-46 108zM1192 141q0 64 46 110t110 46q63 0 108 -46t45 -110 q0 -63 -45 -108t-108 -45q-64 0 -110 45t-46 108z" />
<glyph unicode="&#x202f;" horiz-adv-x="405" />
<glyph unicode="&#x2039;" horiz-adv-x="604" d="M61 514q0 26 19 45l319 338q21 24 47 2l72 -61q27 -22 4 -50l-221 -274l221 -276q24 -25 -4 -48l-72 -61q-26 -22 -47 2l-319 338q-19 19 -19 45z" />
<glyph unicode="&#x203a;" horiz-adv-x="604" d="M82 238l221 276l-221 274q-23 28 4 50l72 61q26 22 47 -2l319 -338q19 -19 19 -45t-19 -45l-319 -338q-21 -24 -47 -2l-72 61q-28 23 -4 48z" />
<glyph unicode="&#x205f;" horiz-adv-x="507" />
<glyph unicode="&#x20ac;" horiz-adv-x="1148" d="M31 514l37 119q11 31 43 31h45q-4 44 -4 73v49h-99q-11 0 -19 11q-7 10 -3 20l37 119q11 31 43 31h63q45 209 170 347q124 136 342 136q203 0 356 -162q22 -26 -2 -47l-102 -96q-24 -23 -47 0q-100 88 -205 88q-205 0 -274 -266h419q12 0 20 -11q7 -10 3 -20l-35 -119 q-11 -31 -43 -31h-389v-45q0 -39 2 -77h330q12 0 20 -11t4 -20l-34 -119q-6 -31 -41 -31h-248q77 -282 266 -282q108 0 209 90q25 21 49 0l98 -96q24 -21 2 -48q-155 -161 -358 -161q-207 0 -333 134q-127 134 -173 363h-127q-11 0 -19 11q-7 10 -3 20z" />
<glyph unicode="&#x2122;" horiz-adv-x="1292" d="M92 1466v50q0 32 33 32h332q32 0 32 -32v-50q0 -32 -32 -32h-105v-375q0 -33 -33 -33h-57q-33 0 -33 33v375h-104q-33 0 -33 32zM508 1057l168 473q4 14 18 14q15 0 21 -12l135 -266l129 266q7 12 20 12q15 0 19 -14l172 -473q4 -11 -3 -21t-20 -10h-63q-32 0 -43 31 l-72 233l-131 -264q-2 -6 -12 -6q-6 0 -10 6l-129 260l-68 -229q-11 -31 -43 -31h-66q-12 0 -19 10t-3 21z" />
<glyph unicode="&#x25fc;" horiz-adv-x="1024" d="M0 0v1024h1024v-1024h-1024z" />
</font>
</defs>
</svg>
